<?xml version="1.0" encoding="UTF-8"?>
<svg width="42px" height="64px" viewBox="0 0 42 64" version="1.1" xmlns="http://www.w3.org/2000/svg" xmlns:xlink="http://www.w3.org/1999/xlink">
    <!-- Generator: Sketch 41.2 (35397) - http://www.bohemiancoding.com/sketch -->
    <title>noun_713040_cc</title>
    <desc>Created with Sketch.</desc>
    <defs></defs>
    <g id="Page-1" stroke="none" stroke-width="1" fill="none" fill-rule="evenodd">
        <g id="noun_713040_cc" fill="#000000">
            <g id="Group">
                <g id="Shape">
                    <path d="M10.4557918,26.023097 C7.0983627,23.6051214 5.3697469,22.0632359 3.6930554,19.5431281 C1.4660682,16.1959128 0.3157895,12.0400565 0.3157895,6.7118644 C0.3157895,3.975201 2.4253226,1.5962269 5.1488295,1.2568876 L6.3755303,1.104045 C14.4928922,0.0926505 27.5080144,0.0927635 35.6244697,1.104045 L36.8511705,1.2568876 C39.5658643,1.5951288 41.6842105,3.9763335 41.6842105,6.7118644 C41.6842105,12.0866016 40.5359503,16.2695442 38.3109655,19.631392 C36.6337615,22.1655684 34.9044978,23.7108593 31.5787867,26.1056151 C28.1305502,28.6645413 27.168847,29.8619983 27.168847,32.1047464 C27.168847,34.3474946 28.1305502,35.5449515 31.5442082,38.0785979 C34.9016373,40.4965735 36.6302531,42.0384591 38.3069446,44.5585668 C40.5339318,47.9057821 41.6842105,52.0616384 41.6842105,57.3898305 C41.6842105,60.1264939 39.5746774,62.5054681 36.8511705,62.8448074 L36.7250452,62.8605221 C27.9991677,63.9477355 14.0005569,63.9477012 5.2749548,62.8605221 L5.1488295,62.8448074 C2.4341357,62.5065661 0.3157895,60.1253614 0.3157895,57.3898305 C0.3157895,52.0616384 1.4660682,47.9057821 3.6930554,44.5585668 C5.3697469,42.0384591 7.0983627,40.4965735 10.4557918,38.0785979 C10.5079794,38.035051 10.5079794,38.035051 10.6518916,37.9230017 C13.9868308,35.3268016 14.831153,34.2220398 14.831153,31.9969485 C14.831153,29.7542004 13.8694498,28.5567434 10.4557918,26.023097 Z M12.2090052,40.5129855 C8.0179495,43.5313277 3.3157895,47.0886597 3.3157895,57.3898305 C3.3157895,58.6075283 4.3025366,59.7161655 5.5197508,59.8678261 L5.6458761,59.8835409 C14.1248502,60.9399909 27.8742754,60.9400999 36.3541239,59.8835409 L36.4802492,59.8678261 C37.7082409,59.7148227 38.6842105,58.6067291 38.6842105,57.3898305 C38.6842105,47.0886597 33.9820505,43.5313277 29.7909948,40.5129855 C27.0310313,38.4648247 24.168847,36.308866 24.168847,32.1047464 C24.168847,27.9006269 27.0310313,25.7446681 29.7909948,23.6965073 C33.9820505,20.6781651 38.6842105,17.1208332 38.6842105,6.7118644 C38.6842105,5.4941666 37.6974634,4.3855294 36.4802492,4.2338688 L35.2535485,4.0810263 C27.3844058,3.100559 14.618469,3.1002008 6.7464515,4.0810263 L5.5197508,4.2338688 C4.2917591,4.3868722 3.3157895,5.4949658 3.3157895,6.7118644 C3.3157895,17.0130353 8.0179495,20.5703672 12.2090052,23.5887094 C14.9689687,25.6368702 17.831153,27.7928289 17.831153,31.9969485 C17.831153,36.308866 14.9689687,38.3570268 12.2090052,40.5129855 Z M34.2190418,13.1449441 C34.8194139,13.2393479 35.1431432,13.7911477 34.9455887,14.3509733 C34.9455887,14.3509733 34.8195441,14.7582969 34.6485866,15.1163154 C33.1595854,18.2345746 31.411663,19.3450945 28.4636169,21.5221316 C23.7768609,25.088159 21.9536236,27.4159746 22.0999348,31.875193 C22.0789123,32.357899 22.0989799,31.8979335 22.0989799,31.8979335 C22.0995073,32.506588 21.611455,33 20.9994201,33 C20.3916226,33 19.907798,32.5110443 19.8998602,31.8979335 C19.8998602,31.8979335 19.9199279,32.357899 19.8989053,31.875193 C20.0452166,27.4159746 18.2219793,25.088159 13.5352233,21.5221316 C10.5871772,19.3450945 8.8392547,18.2345746 7.3502536,15.1163154 C7.179296,14.7582969 7.0532515,14.3509733 7.0532515,14.3509733 C6.8541402,13.7793055 7.1851973,13.2384404 7.7797983,13.1449441 L10.6399668,12.6952052 C16.3613349,11.7955654 25.6443928,11.7966484 31.3588733,12.6952052 L34.2190418,13.1449441 Z"></path>
                </g>
            </g>
        </g>
    </g>
</svg>