<?xml version="1.0" encoding="UTF-8"?>
<svg width="78px" height="73px" viewBox="0 0 78 73" version="1.1" xmlns="http://www.w3.org/2000/svg" xmlns:xlink="http://www.w3.org/1999/xlink">
    <!-- Generator: Sketch 41.2 (35397) - http://www.bohemiancoding.com/sketch -->
    <title>noun_125605_cc</title>
    <desc>Created with Sketch.</desc>
    <defs></defs>
    <g id="Page-1" stroke="none" stroke-width="1" fill="none" fill-rule="evenodd">
        <g id="noun_125605_cc" fill="#000000">
            <path d="M55.8,29.3 C53.4,29.3 51.1,28.3 49.4,26.5 C46.2,23 46.4,17.5 49.9,14.3 C51.5,12.8 53.6,12 55.8,12 C58.2,12 60.5,13 62.2,14.8 C65.4,18.3 65.2,23.8 61.7,27 C60,28.5 58,29.3 55.8,29.3 Z M55.8,14.9 C54.3,14.9 52.9,15.4 51.9,16.4 C50.8,17.4 50.1,18.9 50,20.4 C49.9,21.9 50.5,23.4 51.5,24.6 C52.6,25.8 54.1,26.5 55.8,26.5 C57.3,26.5 58.7,26 59.7,25 C62,22.8 62.2,19.2 60,16.8 C58.9,15.5 57.4,14.9 55.8,14.9 Z" id="Shape"></path>
            <path d="M47.5,65.4 L37.9,55 C35.7,56.6 33.1,57.5 30.4,57.5 C26.9,57.5 23.5,56 21.1,53.4 C16.7,48.6 16.7,41.3 20.8,36.5 L11.2,26 L12.2,25 C17.7,20 25,17.4 32.4,18 C46.6,3.8 58.1,0.9 71.9,0.9 C73.3,0.9 74.7,0.9 76.3,1 L77.7,1.1 L77.6,2.5 C77,18.8 73.4,31.1 57.2,44.9 C57.2,52.3 54,59.4 48.6,64.4 L47.5,65.4 Z M38.1,51 L47.6,61.3 C52,56.7 54.4,50.6 54.3,44.2 L54.3,43.5 L54.8,43.1 C70.3,30.1 73.9,19.1 74.7,3.7 L71.9,3.7 C58.7,3.7 47.7,6.5 33.9,20.5 L33.5,21 L32.8,20.9 C32,20.8 31.2,20.8 30.4,20.8 C24.8,20.8 19.5,22.7 15.2,26.2 L24.7,36.5 L23.7,37.5 C19.7,41.2 19.5,47.4 23.1,51.4 C25,53.4 27.6,54.6 30.3,54.6 C32.8,54.6 35.1,53.7 37,52 L38.1,51 Z" id="Shape"></path>
            <path d="M18.2,55.1 C20.6,57.5 19.7,62 16.3,65.4 C12.3,69.4 2.7,72 2.3,72.2 L0.7,72.6 L1.2,71 C1.3,70.6 4.2,60.7 8,57 C10,55 12.6,53.8 14.8,53.8 C16.1,53.8 17.3,54.2 18.2,55.1 Z" id="Shape"></path>
        </g>
    </g>
</svg>