<?xml version="1.0" encoding="UTF-8"?>
<svg width="72px" height="86px" viewBox="0 0 72 86" version="1.1" xmlns="http://www.w3.org/2000/svg" xmlns:xlink="http://www.w3.org/1999/xlink">
    <!-- Generator: Sketch 41.2 (35397) - http://www.bohemiancoding.com/sketch -->
    <title>noun_772761_cc</title>
    <desc>Created with Sketch.</desc>
    <defs></defs>
    <g id="Page-1" stroke="none" stroke-width="1" fill="none" fill-rule="evenodd">
        <g id="noun_772761_cc" fill="#000000">
            <path d="M62.925,54.951 C68.336,49.172 71.672,41.401 71.672,32.85 C71.671,14.98 57.205,0.497 39.354,0.496 C21.5,0.497 7.035,14.98 7.035,32.851 C7.035,33.893 7.096,34.918 7.191,35.928 C6.071,38.198 4.551,41.209 3.276,43.727 C2.603,45.054 2.001,46.242 1.56,47.107 C1.34,47.54 1.162,47.892 1.035,48.142 C0.972,48.267 0.922,48.366 0.886,48.438 L0.841,48.526 L0.801,48.61 L0.795,48.62 C0.492,49.298 0.328,50.05 0.328,50.828 C0.329,53.814 2.744,56.238 5.73,56.24 L8.146,56.24 L8.124,65.89 L8.123,65.893 C8.125,69.724 11.227,72.831 15.058,72.832 L25.204,72.828 L28.658,84.432 C28.771,84.816 29.032,85.136 29.385,85.326 C29.739,85.515 30.149,85.556 30.531,85.44 L67.224,74.28 C68.017,74.039 68.464,73.202 68.224,72.409 L62.925,54.951 Z M31.104,82.13 L27.761,70.899 C27.571,70.261 26.989,69.826 26.323,69.827 L15.057,69.832 C13.967,69.831 12.994,69.394 12.277,68.679 C11.563,67.961 11.126,66.986 11.125,65.893 L11.124,65.896 L11.151,54.743 C11.151,54.343 10.996,53.964 10.713,53.68 C10.43,53.396 10.051,53.239 9.65,53.239 L5.73,53.239 C4.408,53.237 3.33,52.159 3.328,50.827 C3.328,50.47 3.402,50.145 3.532,49.85 C3.562,49.789 3.64,49.634 3.754,49.412 C4.701,47.545 8.096,40.883 10.067,36.879 C10.192,36.623 10.243,36.339 10.213,36.056 C10.099,34.999 10.036,33.929 10.036,32.849 C10.036,24.737 13.315,17.407 18.622,12.091 C23.933,6.777 31.253,3.495 39.354,3.494 C47.455,3.495 54.774,6.776 60.084,12.091 C65.393,17.407 68.671,24.737 68.672,32.849 C68.671,40.911 65.423,48.189 60.171,53.498 C59.783,53.889 59.642,54.462 59.802,54.989 L64.918,71.844 L31.104,82.13 Z" id="Shape"></path>
            <path d="M56.622,32.194 C56.622,32.194 54.451,30.892 54.005,29.088 C53.556,27.284 54.866,25.119 54.866,25.119 C55.15,24.648 55.145,23.882 54.853,23.415 L52.753,20.577 C52.464,20.241 51.932,20.025 51.456,20.025 C51.343,20.025 51.233,20.037 51.131,20.063 C51.131,20.063 50.358,20.257 49.398,20.257 C48.648,20.257 47.785,20.139 47.086,19.717 C45.491,18.757 44.889,16.301 44.889,16.301 C44.758,15.767 44.212,15.23 43.675,15.108 L40.185,14.58 L40.101,14.577 C39.568,14.577 38.941,14.919 38.673,15.367 C38.673,15.367 37.373,17.534 35.569,17.984 C35.304,18.05 35.033,18.078 34.761,18.078 C33.177,18.078 31.6,17.124 31.6,17.124 C31.369,16.984 31.065,16.914 30.761,16.914 C30.447,16.914 30.132,16.988 29.896,17.136 L27.058,19.236 C26.642,19.595 26.41,20.325 26.543,20.859 C26.543,20.859 27.158,23.31 26.199,24.903 C25.238,26.495 22.784,27.1 22.784,27.1 C22.25,27.231 21.714,27.778 21.591,28.314 L21.065,31.804 C21.026,32.353 21.379,33.033 21.851,33.316 C21.851,33.316 24.019,34.616 24.465,36.42 C24.914,38.223 23.605,40.387 23.605,40.387 C23.32,40.858 23.325,41.624 23.617,42.091 L25.717,44.928 C26.008,45.265 26.54,45.481 27.016,45.481 C27.128,45.481 27.238,45.469 27.34,45.443 C27.34,45.443 28.113,45.25 29.072,45.25 C29.822,45.25 30.686,45.368 31.385,45.788 C32.977,46.748 33.581,49.205 33.581,49.205 C33.713,49.739 34.26,50.276 34.795,50.398 L38.285,50.924 L38.369,50.927 C38.9,50.927 39.527,50.585 39.797,50.137 C39.797,50.137 41.099,47.971 42.901,47.523 C43.166,47.457 43.437,47.429 43.709,47.429 C45.293,47.429 46.87,48.384 46.87,48.384 C47.101,48.525 47.406,48.594 47.71,48.594 C48.023,48.594 48.338,48.52 48.574,48.372 L51.41,46.274 C51.828,45.916 52.06,45.186 51.927,44.652 C51.927,44.652 51.314,42.196 52.271,40.604 C53.232,39.01 55.688,38.407 55.688,38.407 C56.223,38.276 56.759,37.73 56.881,37.194 L57.408,33.705 C57.447,33.157 57.094,32.477 56.622,32.194 Z M54.062,35.774 C52.846,36.211 50.833,37.181 49.7,39.061 C48.573,40.936 48.657,43.167 48.839,44.447 L47.585,45.375 C46.702,44.96 45.271,44.431 43.71,44.431 C43.18,44.431 42.663,44.493 42.179,44.614 C40.052,45.142 38.533,46.781 37.759,47.812 L36.216,47.579 C35.778,46.364 34.81,44.351 32.932,43.218 C31.865,42.577 30.568,42.252 29.074,42.252 C28.494,42.252 27.967,42.301 27.549,42.36 L26.619,41.103 C27.17,39.935 27.909,37.825 27.38,35.701 C26.854,33.573 25.213,32.054 24.182,31.278 L24.414,29.735 C25.627,29.297 27.64,28.328 28.772,26.452 C29.902,24.575 29.816,22.344 29.634,21.065 L30.889,20.137 C31.771,20.551 33.202,21.08 34.763,21.08 C35.292,21.08 35.808,21.018 36.295,20.897 C38.421,20.368 39.939,18.73 40.715,17.696 L42.257,17.929 C42.694,19.145 43.661,21.157 45.538,22.286 C46.604,22.931 47.904,23.257 49.399,23.257 C49.98,23.257 50.506,23.207 50.925,23.149 L51.854,24.406 C51.303,25.574 50.564,27.684 51.093,29.809 C51.619,31.937 53.261,33.458 54.295,34.234 L54.062,35.774 Z" id="Shape"></path>
            <path d="M42.901,26.668 C41.755,25.979 40.493,25.65 39.246,25.65 C36.836,25.65 34.486,26.876 33.151,29.09 C31.13,32.449 32.213,36.814 35.573,38.838 C36.719,39.529 37.982,39.858 39.229,39.858 C41.637,39.858 43.987,38.631 45.322,36.418 C47.344,33.06 46.261,28.695 42.901,26.668 Z M42.754,34.869 C42.002,36.115 40.685,36.859 39.23,36.859 C38.491,36.859 37.762,36.655 37.122,36.27 C35.184,35.103 34.557,32.576 35.722,30.64 C36.472,29.395 37.79,28.651 39.247,28.651 C39.987,28.651 40.716,28.855 41.352,29.237 C43.29,30.406 43.918,32.934 42.754,34.869 Z" id="Shape"></path>
        </g>
    </g>
</svg>