<?xml version="1.0" encoding="UTF-8"?>
<svg width="46px" height="36px" viewBox="0 0 46 36" version="1.1" xmlns="http://www.w3.org/2000/svg" xmlns:xlink="http://www.w3.org/1999/xlink">
    <!-- Generator: Sketch 41.2 (35397) - http://www.bohemiancoding.com/sketch -->
    <title>Shape</title>
    <desc>Created with Sketch.</desc>
    <defs></defs>
    <g id="Page-1" stroke="none" stroke-width="1" fill="none" fill-rule="evenodd">
        <g id="noun_737319_cc" fill="#381785">
            <path d="M25.6,3.2 C25.6,3.8 25.8,4.5 26.3,5 L36.9,15.6 L3.1,15.6 C1.7,15.6 0.6,16.7 0.6,18.1 C0.6,19.5 1.7,20.6 3.1,20.6 L36.9,20.6 L26.3,31.1 C25.8,31.6 25.6,32.2 25.6,32.9 C25.6,33.6 25.8,34.2 26.3,34.7 C27.3,35.7 28.9,35.7 29.8,34.7 L44.6,19.9 C44.7,19.8 44.8,19.6 44.9,19.5 C45.4,18.8 45.4,17.9 45.1,17.2 C45,16.9 44.8,16.6 44.6,16.4 L44.6,16.4 L29.8,1.4 C28.8,0.4 27.2,0.4 26.3,1.4 C25.8,1.9 25.6,2.5 25.6,3.2 Z" id="Shape"></path>
        </g>
    </g>
</svg>