<?xml version="1.0" encoding="UTF-8"?>
<svg width="90px" height="90px" viewBox="0 0 90 90" version="1.1" xmlns="http://www.w3.org/2000/svg" xmlns:xlink="http://www.w3.org/1999/xlink">
    <!-- Generator: Sketch 41.2 (35397) - http://www.bohemiancoding.com/sketch -->
    <title>noun_60411</title>
    <desc>Created with Sketch.</desc>
    <defs></defs>
    <g id="Page-1" stroke="none" stroke-width="1" fill="none" fill-rule="evenodd">
        <g id="noun_60411" fill="#000000">
            <path d="M10.614,79.176 L10.777,79.259 C10.818,79.279 10.89,79.319 10.961,79.36 C11.255,79.486 11.594,79.562 11.944,79.576 L12.101,79.574 L18.937,79.578 C19.715,79.578 20.448,79.276 20.998,78.729 C21.546,78.182 21.848,77.454 21.847,76.68 C21.847,75.08 20.537,73.781 18.927,73.781 L14.974,73.781 L14.975,56.351 C14.99,56.072 14.976,55.825 14.934,55.62 C14.787,54.715 14.311,53.986 13.613,53.542 L13.272,53.269 L6.935,46.931 L13.98,39.88 C14.335,39.564 14.596,39.2 14.756,38.801 C14.832,38.62 14.862,38.477 14.897,38.335 L14.935,38.201 C14.971,37.985 14.989,37.671 14.977,37.405 L14.979,19.734 L18.931,19.734 C20.568,19.734 21.849,18.502 21.849,16.928 C21.849,16.159 21.551,15.441 21.008,14.906 C20.46,14.366 19.725,14.069 18.939,14.069 L12.066,14.111 C11.702,14.111 11.342,14.182 10.989,14.321 C10.892,14.38 10.825,14.419 10.757,14.455 L10.602,14.534 C10.54,14.564 10.477,14.592 10.421,14.628 C10.309,14.704 10.197,14.81 10.085,14.915 L9.94,15.039 C9.855,15.131 9.759,15.25 9.668,15.382 L9.595,15.486 C9.527,15.602 9.468,15.724 9.41,15.847 L9.349,15.967 C9.315,16.06 9.296,16.159 9.271,16.255 C9.249,16.347 9.218,16.443 9.186,16.539 C9.164,16.634 9.134,16.74 9.102,16.846 C9.091,16.876 9.096,16.84 9.1,16.801 C9.079,17.008 9.033,17.186 8.988,17.325 L9.072,36.462 L0.846,44.736 C0.292,45.291 -0.003,46.044 0.013,46.86 L0.014,46.91 L0.013,46.961 C-0.012,47.772 0.293,48.536 0.871,49.113 L9.073,57.388 L8.988,76.367 C9.035,76.511 9.08,76.688 9.1,76.894 C9.105,76.955 9.117,77.016 9.129,77.077 C9.168,77.171 9.201,77.263 9.227,77.354 C9.262,77.484 9.291,77.597 9.327,77.7 C9.359,77.759 9.388,77.816 9.414,77.875 C9.461,77.979 9.516,78.089 9.579,78.196 L9.682,78.348 C9.767,78.468 9.851,78.573 9.934,78.661 C9.985,78.702 10.033,78.743 10.08,78.786 C10.188,78.888 10.294,78.99 10.417,79.072 C10.483,79.114 10.549,79.144 10.614,79.176 Z" id="Shape"></path>
            <path d="M89.986,46.784 C90.011,45.875 89.707,45.11 89.129,44.532 L80.93,36.259 L81.015,17.28 C80.967,17.136 80.922,16.956 80.903,16.747 C80.898,16.692 80.886,16.631 80.874,16.57 C80.832,16.468 80.798,16.369 80.77,16.269 C80.741,16.157 80.711,16.048 80.675,15.944 C80.641,15.882 80.61,15.819 80.582,15.756 C80.529,15.641 80.473,15.531 80.415,15.433 L80.325,15.303 C80.247,15.192 80.159,15.081 80.068,14.985 C80.017,14.944 79.969,14.903 79.923,14.86 C79.814,14.758 79.704,14.653 79.577,14.569 C79.507,14.523 79.435,14.492 79.366,14.458 L79.243,14.396 C79.179,14.363 79.098,14.318 79.019,14.272 C78.748,14.157 78.411,14.083 78.06,14.069 L77.901,14.071 L71.065,14.067 C70.287,14.067 69.554,14.369 69.004,14.917 C68.455,15.463 68.153,16.19 68.154,16.964 C68.154,18.563 69.464,19.863 71.075,19.863 L75.026,19.863 L75.025,37.296 C75.01,37.572 75.024,37.818 75.066,38.024 C75.212,38.929 75.69,39.658 76.386,40.102 L76.728,40.375 L83.066,46.712 L76.021,53.764 C75.666,54.081 75.405,54.444 75.246,54.842 C75.171,55.02 75.141,55.161 75.106,55.304 L75.066,55.446 C75.03,55.662 75.012,55.979 75.024,56.235 L75.021,73.911 L71.07,73.911 C69.433,73.911 68.151,75.143 68.151,76.717 C68.15,77.486 68.449,78.203 68.993,78.739 C69.539,79.278 70.273,79.575 71.058,79.576 L77.933,79.534 C78.297,79.534 78.658,79.464 79.007,79.325 L79.405,79.107 C79.467,79.076 79.532,79.047 79.591,79.01 C79.687,78.943 79.805,78.834 79.924,78.725 L80.059,78.608 C80.146,78.514 80.243,78.395 80.332,78.265 L80.406,78.16 C80.473,78.044 80.532,77.922 80.59,77.799 L80.65,77.682 C80.686,77.583 80.706,77.479 80.732,77.376 C80.753,77.292 80.782,77.2 80.815,77.107 C80.838,77.006 80.868,76.904 80.899,76.8 C80.911,76.773 80.904,76.813 80.9,76.859 C80.921,76.643 80.968,76.461 81.015,76.319 L80.93,57.186 L89.156,48.912 C89.709,48.357 90.003,47.603 89.986,46.784 Z" id="Shape"></path>
            <path d="M61.554,2.476 C61.201,2.191 60.668,1.849 60.149,1.849 L59.923,1.84 L40.272,0 C40.226,0.007 40.171,0.018 40.116,0.026 C40.068,0.034 40.02,0.041 39.972,0.048 C39.828,0.101 39.693,0.141 39.559,0.168 C39.439,0.191 39.326,0.217 39.22,0.251 C39.166,0.272 39.106,0.306 39.045,0.336 L38.69,0.502 C38.567,0.568 38.442,0.668 38.317,0.766 L38.177,0.869 C38.105,0.935 38,1.045 37.879,1.187 L37.807,1.27 C37.725,1.383 37.647,1.515 37.585,1.623 L37.513,1.744 C37.458,1.868 37.425,1.973 37.389,2.075 C37.369,2.133 37.344,2.196 37.317,2.26 C37.315,2.283 37.31,2.319 37.304,2.354 L37.276,2.532 C37.262,2.615 37.243,2.706 37.223,2.797 L30.494,75.968 C30.368,76.821 30.591,77.64 31.124,78.272 L39.97,88.788 C40.005,88.843 40.036,88.9 40.076,88.952 C40.638,89.621 41.451,90 42.316,90 L42.316,90 C43.008,90 43.655,89.765 44.186,89.317 L54.873,80.327 C54.983,80.234 55.102,80.109 55.237,79.945 L55.303,79.864 C55.672,79.364 55.862,78.829 55.893,78.254 L61.058,22.029 L61.106,21.857 C61.164,21.649 61.195,21.489 61.207,21.352 C61.218,21.221 61.215,21.072 61.197,20.874 L61.181,20.695 L62.626,4.988 C62.71,4.032 62.309,3.089 61.554,2.476 Z M50.346,74.945 L36.553,73.751 L41.261,22.532 L55.051,23.729 L50.346,74.945 Z M55.581,17.924 L41.79,16.73 L42.762,6.2 L56.55,7.397 L55.581,17.924 Z" id="Shape"></path>
        </g>
    </g>
</svg>