<?xml version="1.0" encoding="UTF-8"?>
<svg width="90px" height="90px" viewBox="0 0 90 90" version="1.1" xmlns="http://www.w3.org/2000/svg" xmlns:xlink="http://www.w3.org/1999/xlink">
    <!-- Generator: Sketch 41.2 (35397) - http://www.bohemiancoding.com/sketch -->
    <title>noun_104096_cc</title>
    <desc>Created with Sketch.</desc>
    <defs></defs>
    <g id="Page-1" stroke="none" stroke-width="1" fill="none" fill-rule="evenodd">
        <g id="noun_104096_cc" fill="#000000">
            <path d="M46,0.125 C34.1,0.2881 22.512,5.657 14.688,15.406 C14.445,15.394 14.214,15.375 13.969,15.375 C6.283,15.375 -1.77635684e-15,21.658 -1.77635684e-15,29.344 C-1.77635684e-15,33.993 2.2958,38.114 5.812,40.656 C5.716,54.062 12.037,67.246 24.031,75.125 C26.9,77.01 29.947,78.374 33.062,79.406 C34.63,85.403 40.09,89.875 46.562,89.875 C53.07,89.875 58.56,85.359 60.094,79.312 C68.172,76.493 75.455,71.236 80.531,63.594 L86.125,67.281 L86.781,54.5 L87.469,41.75 L76.094,47.562 L64.719,53.344 L70.719,57.281 C67.433,62.171 62.906,65.663 57.875,67.781 C55.335,64.25 51.223,61.938 46.562,61.938 C41.896,61.938 37.727,64.242 35.188,67.781 C33.575,67.141 31.98,66.368 30.469,65.375 C22.466,60.118 17.941,51.698 17.375,42.875 C23.428,41.346 27.938,35.856 27.938,29.344 C27.938,26.285 26.932,23.463 25.25,21.156 C34.779,10.893 50.413,8.603 62.531,16.562 C62.644,16.636 62.735,16.734 62.844,16.812 C62.341,18.25 62.062,19.802 62.062,21.406 C62.062,29.092 68.345,35.375 76.031,35.375 C83.717,35.375 90,29.092 90,21.406 C90,13.72 83.717,7.438 76.031,7.438 C74.263,7.438 72.56,7.77 71,8.375 C70.336,7.828 69.662,7.319 68.938,6.844 C61.882,2.2095 53.88,0.017 46,0.125 L46,0.125 Z M76.031,12.094 C81.201,12.094 85.344,16.236 85.344,21.406 C85.344,23.716 84.501,25.816 83.125,27.438 C82.609,26.855 82.016,26.599 81.469,26.469 C80.562,25.487 80.781,21.625 80.781,21.625 C80.793,21.56 80.805,21.504 80.812,21.438 C80.812,21.438 82.048,17.221 78.75,15.719 C78.75,15.719 78.144,15.58 77.688,15.688 C77.374,15.611 77.067,15.562 76.781,15.562 C76.697,15.562 76.639,15.588 76.562,15.594 C76.484,15.588 76.393,15.562 76.312,15.562 C75.952,15.562 75.558,15.629 75.156,15.75 L75.125,15.781 C74.058,16.154 72.244,17.575 72.531,20.406 C72.523,20.416 72.507,20.428 72.5,20.438 C72.203,20.811 72.254,21.322 72.344,21.75 C72.369,22.632 72.427,25.127 72.188,26.375 C72.106,26.392 72.015,26.392 71.938,26.406 C71.154,26.546 70.206,26.884 69.531,28.094 C67.794,26.406 66.719,24.04 66.719,21.406 C66.719,16.236 70.861,12.094 76.031,12.094 L76.031,12.094 Z M78.469,18.656 C78.596,19.012 78.963,19.902 79.562,20.594 L79.562,21.406 L79.75,20.781 C79.756,20.786 79.776,20.807 79.781,20.812 C79.78,20.818 79.782,20.838 79.781,20.844 C79.873,20.932 79.993,20.988 80.094,21.062 C80.109,21.192 80.066,21.403 80,21.688 C79.778,22.645 79.402,22.688 79.312,22.688 C79.312,22.688 79.263,23.595 78.438,24.562 L78.438,24.594 C77.795,25.248 77.126,25.556 76.469,25.531 C75.651,25.497 75.008,24.932 74.688,24.594 C73.845,23.617 73.812,22.688 73.812,22.688 L73.781,22.688 C73.732,22.688 73.587,22.674 73.438,22.5 L73.281,22.219 C73.216,22.081 73.147,21.918 73.094,21.688 C72.974,21.169 73.006,20.958 73.094,20.875 C73.273,20.887 73.45,20.881 73.625,20.875 L73.844,22.062 L74.094,20.844 C74.34,20.813 74.578,20.777 74.812,20.719 C75.82,20.468 76.704,19.958 77.375,19.5 C77.869,19.163 78.247,18.86 78.469,18.656 L78.469,18.656 Z M13.969,20.031 C19.139,20.031 23.281,24.174 23.281,29.344 C23.281,32.058 22.145,34.491 20.312,36.188 C19.722,35.161 18.926,34.794 18.219,34.625 C17.312,33.643 17.531,29.781 17.531,29.781 C17.543,29.717 17.555,29.629 17.562,29.562 C17.562,29.562 18.798,25.377 15.5,23.875 C15.5,23.875 14.894,23.736 14.438,23.844 C14.124,23.768 13.817,23.719 13.531,23.719 C13.447,23.719 13.389,23.713 13.312,23.719 C13.234,23.713 13.143,23.719 13.062,23.719 C12.702,23.719 12.308,23.786 11.906,23.906 L11.875,23.906 C10.808,24.279 8.994,25.7 9.281,28.531 C9.273,28.541 9.288,28.553 9.281,28.562 C8.984,28.936 9.004,29.447 9.094,29.875 C9.119,30.757 9.177,33.252 8.938,34.5 C8.856,34.517 8.765,34.548 8.688,34.562 C8.118,34.664 7.481,34.872 6.906,35.438 C5.504,33.809 4.6562,31.678 4.6562,29.344 C4.6562,24.174 8.799,20.031 13.969,20.031 L13.969,20.031 Z M78.406,25.531 C78.409,25.794 78.422,26.031 78.469,26.156 C78.62,26.562 80.352,26.998 81.062,27.125 C81.503,27.204 81.981,27.337 82.438,27.781 C80.423,28.49 78.633,28.798 77.062,28.875 L76.594,29.344 L76.125,28.906 C72.702,28.884 70.66,27.783 70.656,27.781 C71.113,27.337 71.622,27.204 72.062,27.125 C72.772,26.998 74.505,26.562 74.656,26.156 C74.703,26.034 74.716,25.818 74.719,25.562 C75.153,25.888 75.738,26.188 76.438,26.219 C76.476,26.221 76.524,26.219 76.562,26.219 C77.194,26.219 77.814,25.984 78.406,25.531 L78.406,25.531 Z M15.219,26.781 C15.346,27.137 15.713,28.027 16.312,28.719 L16.312,29.562 L16.5,28.938 C16.506,28.942 16.526,28.932 16.531,28.938 C16.53,28.943 16.532,28.963 16.531,28.969 C16.623,29.057 16.743,29.145 16.844,29.219 C16.859,29.349 16.847,29.528 16.781,29.812 C16.559,30.77 16.183,30.844 16.094,30.844 L16.062,30.844 C16.062,30.844 16.013,31.72 15.188,32.688 L15.188,32.719 C14.545,33.373 13.876,33.712 13.219,33.688 C12.401,33.653 11.758,33.088 11.438,32.75 C11.437,32.745 11.438,32.724 11.438,32.719 C10.595,31.742 10.562,30.844 10.562,30.844 L10.531,30.844 C10.482,30.844 10.337,30.83 10.188,30.656 L10.031,30.375 C9.966,30.237 9.897,30.043 9.844,29.812 C9.724,29.294 9.788,29.083 9.875,29 C10.054,29.012 10.2,29.037 10.375,29.031 L10.625,30.188 L10.844,28.969 C11.09,28.938 11.328,28.902 11.562,28.844 C12.57,28.593 13.454,28.114 14.125,27.656 C14.619,27.319 14.997,26.985 15.219,26.781 L15.219,26.781 Z M48.188,26.906 L43.281,54.406 L44.625,54.406 L49.531,26.906 L48.188,26.906 L48.188,26.906 Z M41.188,32.5 L30.219,40.312 L30.219,42.375 L41.188,50.188 L41.188,47.594 L32.219,41.344 L41.188,35.062 L41.188,32.5 Z M51.156,32.5 L51.156,35.062 L60.125,41.344 L51.156,47.594 L51.156,50.188 L62.125,42.375 L62.125,40.312 L51.156,32.5 L51.156,32.5 Z M15.156,33.688 C15.159,33.951 15.172,34.188 15.219,34.312 C15.37,34.718 17.102,35.154 17.812,35.281 C18.253,35.36 18.762,35.494 19.219,35.938 C17.204,36.646 15.383,36.955 13.812,37.031 L13.344,37.5 L12.875,37.031 C9.452,37.009 7.442,35.94 7.438,35.938 C7.894,35.494 8.372,35.36 8.812,35.281 C9.522,35.155 11.255,34.718 11.406,34.312 C11.453,34.191 11.466,33.974 11.469,33.719 C11.903,34.045 12.488,34.344 13.188,34.375 C13.226,34.377 13.274,34.375 13.312,34.375 C13.944,34.375 14.564,34.14 15.156,33.688 L15.156,33.688 Z M46.562,66.594 C51.732,66.594 55.875,70.736 55.875,75.906 C55.875,78.596 54.741,80.993 52.938,82.688 C52.4,82.262 51.797,82.092 51.281,82 C50.485,81.857 49.508,81.568 49.156,81.375 C49.145,81.215 49.124,80.874 49.156,80.344 C49.176,80.322 49.199,80.304 49.219,80.281 C49.69,79.65 49.899,79.057 50,78.656 C50.304,78.442 50.625,78.027 50.812,77.219 C50.921,76.75 51.024,76.142 50.688,75.719 C50.68,75.709 50.665,75.698 50.656,75.688 C50.957,72.72 49.055,71.234 47.938,70.844 L47.906,70.844 C47.499,70.721 47.086,70.66 46.719,70.656 L46.688,70.656 C46.599,70.656 46.518,70.65 46.438,70.656 C46.356,70.649 46.272,70.656 46.188,70.656 C45.809,70.656 45.421,70.717 45,70.844 L44.969,70.844 C43.851,71.234 41.949,72.72 42.25,75.688 C42.241,75.698 42.226,75.709 42.219,75.719 C41.882,76.142 41.954,76.75 42.062,77.219 C42.251,78.027 42.57,78.442 42.875,78.656 C42.975,79.054 43.194,79.624 43.656,80.25 L43.656,80.281 C43.683,80.317 43.722,80.339 43.75,80.375 C43.78,80.883 43.764,81.208 43.75,81.375 C43.397,81.567 42.42,81.858 41.625,82 C41.148,82.085 40.597,82.234 40.094,82.594 C38.346,80.905 37.25,78.548 37.25,75.906 C37.25,70.736 41.393,66.594 46.562,66.594 L46.562,66.594 Z M44.688,74.188 C44.688,74.188 46.264,75.804 48.219,76.156 C48.219,76.156 47.79,75.393 47.438,74.688 C47.438,74.688 48.575,75.945 49.562,76.156 C49.562,76.156 49.708,75.972 49.875,75.656 C49.858,75.823 49.847,75.976 49.812,76.156 C49.812,76.156 49.873,76.125 49.938,76.125 C50.077,76.125 50.244,76.252 50.062,77.031 C49.83,78.035 49.437,78.094 49.344,78.094 C49.344,78.094 49.272,79.048 48.406,80.062 L48.406,80.094 C47.733,80.779 47.064,81.088 46.375,81.062 C45.518,81.027 44.836,80.448 44.5,80.094 C43.617,79.071 43.562,78.094 43.562,78.094 L43.531,78.094 C43.437,78.094 43.045,78.034 42.812,77.031 C42.631,76.252 42.829,76.125 42.969,76.125 C43.033,76.125 43.094,76.156 43.094,76.156 L43.438,77.156 C43.438,77.156 43.206,74.399 44.688,74.188 Z M48.375,81.094 C48.378,81.369 48.388,81.619 48.438,81.75 C48.512,81.948 48.951,82.138 49.469,82.312 C48.717,83.049 47.634,83.531 46.438,83.531 C45.242,83.531 44.189,83.048 43.438,82.312 C43.954,82.137 44.395,81.948 44.469,81.75 C44.517,81.622 44.528,81.393 44.531,81.125 C44.987,81.467 45.58,81.78 46.312,81.812 C46.353,81.814 46.397,81.812 46.438,81.812 C47.099,81.812 47.754,81.568 48.375,81.094 L48.375,81.094 Z" id="Shape"></path>
        </g>
    </g>
</svg>