<?xml version="1.0" encoding="UTF-8"?>
<svg width="89px" height="60px" viewBox="0 0 89 60" version="1.1" xmlns="http://www.w3.org/2000/svg" xmlns:xlink="http://www.w3.org/1999/xlink">
    <!-- Generator: Sketch 41.2 (35397) - http://www.bohemiancoding.com/sketch -->
    <title>noun_316813_cc</title>
    <desc>Created with Sketch.</desc>
    <defs></defs>
    <g id="Page-1" stroke="none" stroke-width="1" fill="none" fill-rule="evenodd">
        <g id="noun_316813_cc" fill="#000000">
            <path d="M77.383,31.212 C75.742,31.212 74.85,30.333 74.341,28.23 C76.38,26.34 78.161,22.986 78.8,17.133 C79.309,12.474 79.255,8.878 77.492,6.539 C77.816,5.601 78.044,4.439 78.044,2.963 C78.044,2.963 75.761,1.774 69.388,1.774 C65.262,1.774 62.777,3.345 61.369,4.763 C60.654,5.134 60.043,5.582 59.548,6.134 C57.47,8.451 57.403,12.207 57.943,17.133 C58.582,22.986 60.363,26.34 62.401,28.23 C61.892,30.333 61,31.212 59.359,31.212 C58.098,31.212 56.958,31.318 55.926,31.523 C56.505,26.217 56.433,22.174 54.204,19.688 C52.98,18.322 51.155,17.498 48.523,17.12 C47.415,16.915 46.147,16.797 44.684,16.797 C43.163,16.797 41.854,16.926 40.711,17.147 C38.176,17.536 36.404,18.353 35.208,19.687 C32.977,22.175 32.907,26.225 33.488,31.541 C33.517,31.804 33.551,32.054 33.584,32.307 C32.199,31.549 30.656,30.993 28.992,30.726 C26.373,30.305 25.944,28.079 25.875,27.264 C26.185,26.926 26.483,26.561 26.772,26.181 C29.223,25.441 31.029,23.948 32.146,21.579 C35.178,15.146 33.53,6.5 27.354,2.321 C23.912,-0.008 18.95,-0.244 15.215,1.57 C14.948,1.7 14.424,2.158 14.137,2.129 C7.011,1.326 6.309,12.012 6.902,16.598 C7.354,20.088 8.28,23.632 11.424,25.798 C12.018,26.207 12.77,26.366 13.498,26.451 C13.525,26.454 13.563,26.452 13.595,26.453 C13.817,26.732 14.042,27.008 14.276,27.263 C14.207,28.077 13.779,30.304 11.159,30.726 C4.895,31.736 0.17,36.65 0.17,42.157 C0.17,42.71 0.617,43.157 1.17,43.157 C1.723,43.157 2.17,42.71 2.17,42.157 C2.17,38.62 4.608,35.378 8.195,33.713 C9.038,38.885 14.081,42.901 20.077,42.901 C26.073,42.901 31.115,38.884 31.957,33.712 C32.706,34.06 33.396,34.484 34.033,34.958 C34.954,39.248 36.556,41.915 38.336,43.548 C38.056,44.738 37.594,45.898 36.565,46.487 L36.07,46.7 C35.739,46.812 35.376,46.891 34.94,46.891 C25.076,46.891 23.206,51.03 23.206,58.666 C23.206,59.219 23.653,59.666 24.206,59.666 C24.759,59.666 25.206,59.219 25.206,58.666 C25.206,51.995 26.493,49.09 34.169,48.908 L34.218,49.083 C35.452,53.529 41.77,57.263 42.038,57.419 L42.681,57.795 L43.558,56.32 L43.674,56.482 L42.417,59.991 L44.707,59.991 L46.997,59.991 L45.74,56.472 L45.856,56.32 L46.733,57.795 L47.376,57.419 C47.645,57.263 53.962,53.529 55.196,49.083 L55.245,48.908 C62.922,49.09 64.208,51.995 64.208,58.666 C64.208,59.219 64.655,59.666 65.208,59.666 C65.761,59.666 66.208,59.219 66.208,58.666 C66.208,51.029 64.338,46.891 54.474,46.891 C54.037,46.891 53.673,46.812 53.341,46.699 L52.854,46.489 C51.831,45.905 51.366,44.752 51.08,43.549 C53.036,41.756 54.776,38.715 55.634,33.645 C56.461,33.424 57.388,33.284 58.442,33.237 C58.96,36.5 63.194,38.986 68.432,38.986 C73.669,38.986 77.902,36.502 78.421,33.24 C83.992,33.52 86.292,36.163 86.292,42.157 C86.292,42.71 86.739,43.157 87.292,43.157 C87.845,43.157 88.292,42.71 88.292,42.157 C88.289,34.69 84.823,31.212 77.383,31.212 Z M12.201,17.025 C12.201,16.02 12.215,15.077 12.253,14.187 C13.766,12.417 15.553,10.013 16.284,7.786 C16.284,7.786 17.403,11.018 20.386,12.075 C23.184,13.066 26.597,13.798 27.934,15.32 C27.945,15.871 27.951,16.435 27.951,17.025 C27.951,23.562 22.703,28.54 20.076,28.54 C17.449,28.54 12.201,23.562 12.201,17.025 Z M20.076,41.401 C14.69,41.401 10.181,37.764 9.626,33.147 C10.222,32.956 10.84,32.805 11.478,32.702 C14.171,32.269 15.457,30.47 15.983,28.845 C17.385,29.922 18.836,30.539 20.077,30.539 C21.318,30.539 22.768,29.922 24.17,28.845 C24.696,30.47 25.982,32.268 28.675,32.701 C29.313,32.804 29.931,32.955 30.527,33.146 C29.97,37.764 25.462,41.401 20.076,41.401 Z M42.164,55.729 C40.65,54.742 36.857,52.033 35.786,49.068 L36.037,48.791 C36.42,48.721 36.773,48.603 37.11,48.457 C38.861,50.336 41.387,52.724 43.519,53.452 L42.164,55.729 Z M44.706,52.172 C43.218,52.172 40.551,49.903 38.391,47.63 C39.114,46.957 39.662,46.005 40.049,44.799 C41.71,45.74 43.386,45.995 44.706,45.995 C46.027,45.995 47.704,45.739 49.365,44.798 C49.753,46.004 50.301,46.956 51.022,47.628 C48.862,49.902 46.195,52.172 44.706,52.172 Z M44.706,40.889 C44.153,40.889 43.706,41.336 43.706,41.889 L43.706,42.912 L42.19,42.912 C41.223,42.912 40.44,42.129 40.44,41.162 C40.44,40.195 41.223,39.412 42.19,39.412 L46.966,39.412 C47.933,39.412 48.716,40.195 48.716,41.162 C48.716,42.129 47.933,42.912 46.966,42.912 L45.705,42.912 L45.705,41.889 C45.706,41.336 45.259,40.889 44.706,40.889 Z M52.303,48.456 C52.637,48.601 52.988,48.718 53.367,48.788 L53.626,49.067 C52.555,52.027 48.762,54.739 47.248,55.728 L45.894,53.451 C48.026,52.723 50.552,50.335 52.303,48.456 Z M53.936,31.325 C53.605,34.356 52.964,36.859 52.039,38.822 C51.007,37.095 44.707,36.971 44.707,36.971 C44.707,36.971 38.407,37.096 37.375,38.822 C36.449,36.859 35.809,34.356 35.477,31.325 C35.297,29.679 35.202,28.265 35.19,27.038 C35.794,25.812 36.663,24.414 37.803,23.503 L37.62,22.556 C37.797,22.714 38.009,22.891 38.252,23.085 C38.271,23.102 38.289,23.126 38.307,23.143 C38.31,23.141 38.314,23.14 38.317,23.138 C40.604,24.944 45.709,27.992 54.189,28.182 C54.146,29.128 54.062,30.168 53.936,31.325 Z M59.931,16.916 C59.757,15.327 59.667,13.971 59.664,12.807 C60.307,11.544 61.215,10.212 62.349,9.732 C65.298,11.378 66.922,11.836 70.06,11.836 C73.888,11.836 75.57,10.464 75.57,10.464 C75.57,10.464 76.37,11.376 77.077,12.58 C77.086,13.794 76.997,15.223 76.812,16.917 C76.233,22.219 74.297,28.541 68.372,28.541 C62.447,28.541 60.51,22.219 59.931,16.916 Z M68.429,37.486 C64.102,37.486 60.468,35.59 59.946,33.165 C61.969,32.965 63.373,31.734 64.126,29.477 C65.643,30.311 67.167,30.54 68.372,30.54 C69.577,30.54 71.101,30.311 72.617,29.478 C73.383,31.777 74.827,33.011 76.911,33.175 C76.38,35.595 72.752,37.486 68.429,37.486 Z" id="Shape"></path>
        </g>
    </g>
</svg>