<?xml version="1.0" encoding="UTF-8"?>
<svg width="60px" height="62px" viewBox="0 0 60 62" version="1.1" xmlns="http://www.w3.org/2000/svg" xmlns:xlink="http://www.w3.org/1999/xlink">
    <!-- Generator: Sketch 41.2 (35397) - http://www.bohemiancoding.com/sketch -->
    <title>noun_781796_cc</title>
    <desc>Created with Sketch.</desc>
    <defs></defs>
    <g id="Page-1" stroke="none" stroke-width="1" fill="none" fill-rule="evenodd">
        <g id="noun_781796_cc" fill="#000000">
            <g id="Group">
                <path d="M26.6,13.6 C26.6,14 26.8,14.3 27,14.6 C27.3,14.9 27.6,15 28,15.1 C28.3,15.2 28.7,15.2 29,15.2 L29.4,15.2 L29.9,15.2 L30.3,15.2 L30.4,15.9 C30.4,16.1 30.5,16.2 30.5,16.4 C30.6,16.7 30.8,16.9 31.2,16.9 L31.3,16.9 L37,15.8 C37.3,15.7 37.5,15.5 37.5,15.2 C37.5,14.2 37.7,12.2 38.4,10.8 C38.5,10.5 38.7,10.3 38.8,10 C39.3,9.1 39.8,8.3 39.9,7.2 C40.1,5.5 39.4,3.7 38.2,2.5 L38.2,2.5 C37.5,1.8 36.6,1.2 35.7,0.8 C34.8,0.4 33.7,0.2 32.8,0.2 C31.5,0.2 30.3,0.5 29.3,1.2 C28.2,1.9 27.4,2.9 26.9,4.2 C26.7,4.6 26.6,5.1 26.6,5.6 C26.6,5.9 26.6,6.1 26.7,6.4 C26.8,6.7 26.8,7 26.7,7.3 C26.6,7.8 26.2,8.1 25.9,8.5 C25.7,8.7 25.5,9 25.4,9.2 C25.3,9.4 25.3,9.6 25.3,9.8 C25.4,10.1 25.6,10.3 25.9,10.5 L26.4,10.7 L26.3,11.1 L26.3,11.5 L26.3,11.6 C26.4,11.9 26.4,12.2 26.5,12.6 C26.6,12.8 26.6,13 26.5,13.2 C26.6,13.3 26.6,13.4 26.6,13.6 Z" id="Shape"></path>
                <path d="M45.9,48.3 C45.9,48.7 46.1,49 46.3,49.3 C46.6,49.6 46.9,49.7 47.3,49.8 C47.6,49.9 48,49.9 48.3,49.9 L48.7,49.9 L49.2,49.9 L49.6,49.9 L49.7,50.6 C49.7,50.8 49.8,50.9 49.8,51.1 C49.9,51.4 50.1,51.6 50.5,51.6 L50.6,51.6 L56.3,50.5 C56.6,50.4 56.8,50.2 56.8,49.9 C56.8,48.9 57,46.9 57.7,45.5 C57.8,45.2 58,45 58.1,44.7 C58.6,43.8 59.1,43 59.2,41.9 C59.4,40.2 58.7,38.4 57.5,37.2 L57.5,37.2 C56.8,36.5 55.9,35.9 55,35.5 C54.1,35.1 53,34.9 52.1,34.9 C50.8,34.9 49.6,35.2 48.6,35.9 C47.5,36.6 46.7,37.6 46.2,38.9 C46,39.3 45.9,39.8 45.9,40.3 C45.9,40.6 45.9,40.8 46,41.1 C46.1,41.4 46.1,41.7 46,42 C45.9,42.5 45.5,42.8 45.2,43.2 C45,43.4 44.8,43.7 44.7,43.9 C44.6,44.1 44.6,44.3 44.6,44.5 C44.7,44.8 44.9,45 45.2,45.2 L45.7,45.4 L45.6,45.8 L45.6,46.2 L45.6,46.3 C45.7,46.6 45.7,46.9 45.8,47.3 C45.9,47.5 45.9,47.7 45.8,47.9 C45.9,48 45.9,48.1 45.9,48.3 Z" id="Shape"></path>
                <path d="M7.7,51 C7.7,51.4 7.9,51.7 8.1,52 C8.4,52.3 8.7,52.4 9.1,52.5 C9.4,52.6 9.8,52.6 10.1,52.6 L10.5,52.6 L11,52.6 L11.4,52.6 L11.5,53.3 C11.5,53.5 11.6,53.6 11.6,53.8 C11.7,54.1 11.9,54.3 12.3,54.3 L12.4,54.3 L18.1,53.2 C18.4,53.1 18.6,52.9 18.6,52.6 C18.6,51.6 18.8,49.6 19.5,48.2 C19.6,47.9 19.8,47.7 19.9,47.4 C20.4,46.5 20.9,45.7 21,44.6 C21.2,42.9 20.5,41.1 19.3,39.9 L19.3,39.9 C18.6,39.2 17.7,38.6 16.8,38.2 C15.9,37.8 14.8,37.6 13.9,37.6 C12.6,37.6 11.4,37.9 10.4,38.6 C9.3,39.3 8.5,40.3 8,41.6 C7.8,42 7.7,42.5 7.7,43 C7.7,43.3 7.7,43.5 7.8,43.8 C7.9,44.1 7.9,44.4 7.8,44.7 C7.7,45.2 7.3,45.5 7,45.9 C6.8,46.1 6.6,46.4 6.5,46.6 C6.4,46.8 6.4,47 6.4,47.2 C6.5,47.5 6.7,47.7 7,47.9 L7.5,48.1 L7.4,48.5 L7.4,48.9 L7.4,49 C7.5,49.3 7.5,49.6 7.6,50 C7.7,50.2 7.7,50.4 7.6,50.6 C7.7,50.7 7.7,50.8 7.7,51 Z" id="Shape"></path>
                <g transform="translate(0.000000, 6.000000)" id="Shape">
                    <path d="M5.3,25.6 L5.3,25.7 L5.3,26.3 L2,22.8 L0.6,24 L5.9,29.8 L11.9,24.8 L10.7,23.4 L7,26.5 L7,25.7 C7.6,16.8 12.7,8.9 20.6,4.7 L19.7,3.1 C11.3,7.7 5.9,16.1 5.3,25.6 Z"></path>
                    <path d="M40.5,47.1 L45,48.9 L44.3,49.2 C37,52.5 28.9,52.3 21.8,48.7 C21.7,49 21.4,49.8 21.3,50.5 C28.8,54.2 37.4,54.4 45.1,50.9 C45.2,50.9 45.2,50.9 45.2,50.8 L45.7,50.6 L44.1,55.1 L45.8,55.7 L48.4,48.3 L41.1,45.4 L40.5,47.1 Z"></path>
                    <path d="M48.4,3.9 L48.3,3.8 L47.8,3.4 L52.5,2.6 L52.2,0.8 L44.5,2 L45.4,9.8 L47.2,9.6 L46.6,4.8 L47.2,5.3 C53.7,10.2 57.5,17.7 57.5,25.9 L59.3,25.9 C59.4,17.2 55.4,9.2 48.4,3.9 Z"></path>
                </g>
                <path d="M40.9,26.2 L40.9,26.2 C38.4,21.5 34.1,21.2 32.8,21.2 L32.6,21.2 L32.6,21 L32.6,21.2 L32.3,21.2 C31.1,21.2 26.7,21.5 24.2,26.2 C24.1,26.4 22,31 24.8,35.6 L25,35.9 C25.4,36.6 26.4,38.1 26.5,38.3 C26.6,38.5 26.7,39 26.8,39.6 L26.8,41.8 L26.8,42.7 C26.8,43.5 27.5,44.2 28.3,44.3 C28.6,44.3 29,44.4 29.5,44.4 L29.6,44.4 L29.7,44.5 C30.2,45.4 31.3,46 32.5,46 C33.1,46 33.7,45.9 34.2,45.6 C34.7,45.3 35,45 35.3,44.6 L35.4,44.5 L35.5,44.5 C35.9,44.5 36.2,44.5 36.5,44.4 C37.6,44.3 38.3,43.5 38.2,42.4 L38.2,41.9 L38.4,41.8 L38.2,41.8 L38.2,41.4 L38.2,40.8 L38.2,40.5 L38.2,39.4 C38.3,38.9 38.3,38.5 38.5,38.3 C38.7,38 40.2,35.7 40.3,35.6 C43.1,31 41,26.4 40.9,26.2 Z M38.3,34.3 L37.8,35.1 C37.3,35.8 36.7,36.8 36.6,36.9 L36.6,36.9 C36.5,37 36.4,37.2 36.4,37.3 C36.2,37.8 35.7,38.1 35.1,38.1 L30,38.1 C29.5,38.1 29.1,37.8 28.9,37.4 C28.8,37.2 28.7,37 28.6,36.9 C28.4,36.6 27,34.4 26.9,34.2 C24.9,30.9 26.2,27.5 26.4,27.2 C27.6,24.9 29.9,23.5 32.6,23.5 C35.3,23.5 37.6,24.8 38.8,27.1 C38.8,27.4 40.4,30.9 38.3,34.3 Z" id="Shape"></path>
                <path d="M34.7,35.4 C34.8,35.1 34.9,34.8 35,34.5 L35,34.5 C35.1,34.3 35.1,34.1 35.2,34 C35.7,32.2 36.2,30.5 36.7,28.7 C36.8,28.3 36.7,28.1 36.5,28 C36.4,27.9 36.3,27.9 36.2,27.9 C36,27.9 35.7,28.1 35.7,28.3 C35.6,28.5 35.6,28.8 35.5,29 L35.4,29.3 L35.3,29.2 C34.7,29 34.1,28.8 33.4,28.8 L33.3,28.8 L33.3,28.7 L33.3,28.7 L33.3,28.7 L33.3,28.7 L33.3,28.4 L33.3,28.1 C33.3,27.8 33,27.5 32.7,27.5 C32.4,27.5 32.1,27.8 32.1,28.1 L32.1,28.7 L32.1,28.7 L32.1,28.8 L32,28.8 L32,28.8 C31.7,28.8 31.4,28.9 31.2,28.9 C30.9,29 30.6,29 30.4,29.1 L30.1,29.2 L29.8,29 C29.7,28.8 29.7,28.5 29.6,28.3 C29.5,28 29.3,27.8 29,27.8 L28.9,27.8 C28.7,27.8 28.6,27.9 28.5,28.1 C28.4,28.2 28.4,28.4 28.5,28.6 C29.1,30.8 29.8,33 30.5,35.4 C30.6,35.7 30.8,35.9 31.1,35.9 L31.3,35.9 C31.4,35.9 31.6,35.8 31.6,35.6 C31.7,35.5 31.7,35.3 31.6,35.1 C31.4,34.4 31.2,33.6 31,32.9 L30.8,32.2 C30.7,31.8 30.6,31.4 30.5,31 L30.3,30.4 L30.4,30.4 C30.9,30.2 31.4,30.1 32,30 L32.2,30 L32.2,30.2 L32.2,30.5 L32.2,30.5 L32.2,31.2 C32.2,31.6 32.4,31.8 32.8,31.8 C33.1,31.8 33.4,31.6 33.4,31.2 L33.4,31 L33.4,30.9 L33.4,30 L33.6,30 C34.2,30.1 34.7,30.2 35.2,30.4 L35.3,30.4 L35.3,30.5 L35.3,30.6 L34.5,32 C34.2,33 33.9,34.1 33.6,35.1 C33.5,35.3 33.6,35.5 33.7,35.6 C33.8,35.8 34,35.8 34.2,35.8 C34.5,35.8 34.7,35.7 34.7,35.4 Z" id="Shape"></path>
            </g>
        </g>
    </g>
</svg>