<?xml version="1.0" encoding="UTF-8"?>
<svg width="90px" height="63px" viewBox="0 0 90 63" version="1.1" xmlns="http://www.w3.org/2000/svg" xmlns:xlink="http://www.w3.org/1999/xlink">
    <!-- Generator: Sketch 41.2 (35397) - http://www.bohemiancoding.com/sketch -->
    <title>noun_90236_cc</title>
    <desc>Created with Sketch.</desc>
    <defs></defs>
    <g id="Page-1" stroke="none" stroke-width="1" fill="none" fill-rule="evenodd">
        <g id="noun_90236_cc" fill="#000000">
            <path d="M57.846,32.446 C57.574,30.091 56.525,27.959 55.028,26.378 C56.049,23.306 58.64,21.185 61.278,21.185 C61.278,21.185 63.272,22.407 65.485,22.407 C67.697,22.407 69.693,21.185 69.693,21.185 C71.796,21.185 73.887,22.519 75.146,24.619 L66.625,24.619 C66.109,24.619 65.652,25.041 65.58,25.522 L64.711,32.447 L57.846,32.447 L57.846,32.446 Z M65.895,20.518 C69.06,20.518 71.62,17.959 71.62,14.796 C71.62,11.631 69.06,9.072 65.895,9.072 C62.732,9.072 60.139,11.631 60.139,14.796 C60.139,17.958 62.731,20.518 65.895,20.518 Z M79.83,25.851 L79.018,32.447 L65.982,32.447 L66.793,25.851 L79.83,25.851 Z M74.291,29.042 C74.291,28.428 73.815,27.953 73.203,27.953 C72.588,27.953 72.08,28.429 72.08,29.042 C72.08,29.656 72.588,30.165 73.203,30.165 C73.815,30.164 74.291,29.656 74.291,29.042 Z M57.929,33.679 L57.929,37.375 L70.252,37.375 L70.252,44.769 L66.555,44.769 L66.555,54.661 L86.304,54.661 L86.304,37.375 L90,37.375 L90,33.679 L57.929,33.679 Z M49.285,24.913 C49.285,24.913 47.087,26.286 44.621,26.286 C42.124,26.286 39.924,24.913 39.924,24.913 C37.611,24.913 35.271,26.418 33.862,28.75 L43.433,28.75 C43.949,28.75 44.407,29.173 44.479,29.653 L45.444,37.376 L56.698,37.376 L56.698,33.68 C56.697,28.75 53,24.913 49.285,24.913 Z M44.179,24.201 C47.695,24.201 50.535,21.365 50.535,17.849 C50.535,14.333 47.694,11.476 44.179,11.476 C40.664,11.476 37.799,14.333 37.799,17.849 C37.799,21.365 40.664,24.201 44.179,24.201 Z M29.43,37.375 L28.49,29.982 L43.264,29.982 L44.205,37.375 L29.43,37.375 Z M34.807,33.679 C34.807,34.368 35.35,34.911 36.038,34.911 C36.728,34.911 37.271,34.368 37.271,33.679 C37.271,32.99 36.728,32.446 36.038,32.446 C35.35,32.446 34.807,32.99 34.807,33.679 Z M17.23,38.608 L17.23,43.537 L20.926,43.537 L20.926,62.054 L65.322,62.054 L65.322,43.537 L69.019,43.537 L69.019,38.608 L17.23,38.608 L17.23,38.608 Z M29.861,4.468 L29.861,18.023 C29.861,20.245 28.024,22.084 25.767,22.084 L24.425,22.084 L24.425,27.518 L16.273,22.084 L4.06,22.084 C1.838,22.084 8.8817842e-16,20.246 8.8817842e-16,18.023 L8.8817842e-16,4.468 C8.8817842e-16,2.211 1.838,0.374 4.06,0.374 L25.768,0.374 C28.024,0.374 29.861,2.211 29.861,4.468 Z M6.144,11.37 L9.657,9.703 C9.909,9.596 10.085,9.486 10.187,9.339 C10.297,9.214 10.37,9.04 10.37,8.818 C10.37,8.61 10.291,8.42 10.135,8.269 C10.008,8.111 9.824,8.033 9.58,8.033 C9.499,8.033 9.413,8.041 9.319,8.092 C9.235,8.107 9.122,8.172 8.946,8.255 L4.115,10.489 C3.589,10.739 3.322,11.029 3.322,11.419 C3.322,11.773 3.582,12.058 4.064,12.303 L8.948,14.524 C9.067,14.597 9.204,14.624 9.296,14.673 C9.396,14.692 9.49,14.7 9.58,14.7 C9.824,14.7 10.008,14.62 10.135,14.497 C10.291,14.339 10.37,14.155 10.37,13.914 C10.37,13.725 10.298,13.551 10.188,13.398 C10.086,13.284 9.91,13.177 9.656,13.037 L6.144,11.37 Z M17.219,7.13 C17.219,6.883 17.122,6.687 16.903,6.524 C16.722,6.366 16.525,6.316 16.282,6.316 C16.103,6.316 15.934,6.361 15.818,6.51 C15.715,6.613 15.578,6.795 15.468,7.062 L11.939,14.664 C11.795,14.937 11.76,15.128 11.76,15.288 C11.76,15.501 11.856,15.73 12.041,15.893 C12.221,16.019 12.418,16.099 12.664,16.099 C12.843,16.099 13.012,16.022 13.161,15.907 C13.264,15.772 13.367,15.592 13.509,15.33 L17.031,7.785 C17.078,7.64 17.141,7.498 17.159,7.41 C17.209,7.315 17.219,7.221 17.219,7.13 Z M25.481,11.418 C25.481,11.027 25.216,10.738 24.626,10.47 L19.863,8.25 C19.695,8.173 19.583,8.109 19.493,8.093 C19.364,8.068 19.273,8.032 19.187,8.032 C18.978,8.032 18.793,8.112 18.639,8.27 C18.489,8.419 18.441,8.611 18.441,8.817 C18.441,9.039 18.48,9.213 18.625,9.338 C18.727,9.485 18.899,9.593 19.151,9.702 L22.667,11.369 L19.152,13.036 C18.895,13.176 18.72,13.284 18.62,13.409 C18.479,13.551 18.441,13.724 18.441,13.912 C18.441,14.155 18.489,14.341 18.64,14.495 C18.794,14.62 18.978,14.698 19.187,14.698 C19.313,14.698 19.409,14.689 19.507,14.671 C19.6,14.622 19.704,14.593 19.853,14.522 L24.701,12.303 C25.221,12.06 25.481,11.774 25.481,11.418 Z" id="Shape"></path>
        </g>
    </g>
</svg>