<?xml version="1.0" encoding="UTF-8"?>
<svg width="94px" height="84px" viewBox="0 0 94 84" version="1.1" xmlns="http://www.w3.org/2000/svg" xmlns:xlink="http://www.w3.org/1999/xlink">
    <!-- Generator: Sketch 41.2 (35397) - http://www.bohemiancoding.com/sketch -->
    <title>noun_655341_cc</title>
    <desc>Created with Sketch.</desc>
    <defs></defs>
    <g id="Page-1" stroke="none" stroke-width="1" fill="none" fill-rule="evenodd">
        <g id="noun_655341_cc" transform="translate(0.000000, -3.000000)">
            <rect id="Rectangle-path" x="2" y="0" width="90" height="90"></rect>
            <g id="Group" transform="translate(0.000000, 3.000000)" fill="#147D30">
                <path d="M86.697,49.176 L81.418,48.1 C81.188,48.055 80.951,48.1 80.756,48.229 C80.561,48.358 80.426,48.559 80.379,48.788 C79.867,51.294 79.068,53.757 78,56.104 C77.871,56.387 77.736,56.672 77.6,56.952 C73.606,65.14 66.662,71.284 58.047,74.249 C54.432,75.495 50.686,76.126 46.916,76.126 C41.735,76.126 36.714,74.958 31.993,72.655 C24.701,69.098 19.014,63.202 15.782,55.905 L21.956,58.917 C22.165,59.019 22.408,59.034 22.628,58.958 C22.848,58.882 23.03,58.722 23.132,58.511 L25.494,53.669 C25.707,53.231 25.526,52.704 25.089,52.491 L9.141,44.714 C8.705,44.501 8.179,44.683 7.965,45.118 L6.779,47.534 L1.794,57.684 C1.777,57.719 1.762,57.754 1.75,57.791 L0.14,61.076 C-0.074,61.512 0.107,62.039 0.543,62.252 L5.381,64.625 C5.59,64.729 5.832,64.742 6.053,64.668 C6.274,64.592 6.455,64.432 6.558,64.223 L9.244,58.744 C10.52,61.621 12.11,64.334 13.985,66.826 C17.925,72.064 22.929,76.187 28.859,79.08 C33.863,81.521 39.198,82.908 44.715,83.205 C45.455,83.244 46.205,83.264 46.943,83.264 C51.506,83.264 56.026,82.506 60.375,81.008 C65.439,79.264 70.047,76.602 74.068,73.098 C78.234,69.467 81.584,65.088 84.025,60.084 C84.189,59.746 84.351,59.402 84.505,59.063 C85.796,56.225 86.765,53.249 87.382,50.215 C87.48,49.738 87.172,49.273 86.697,49.176 Z" id="Shape"></path>
                <path d="M93.904,22.213 C93.83,21.992 93.67,21.81 93.461,21.707 L88.627,19.325 C88.191,19.11 87.664,19.289 87.449,19.725 L84.685,25.332 C83.005,21.519 80.771,18 78.021,14.852 C74.394,10.697 70.023,7.355 65.029,4.919 C60.023,2.478 54.689,1.09 49.172,0.794 C48.434,0.754 47.684,0.734 46.946,0.734 C42.382,0.734 37.863,1.493 33.513,2.991 C28.448,4.735 23.841,7.397 19.819,10.902 C15.654,14.532 12.304,18.91 9.863,23.915 C8.342,27.034 7.218,30.325 6.523,33.694 C6.476,33.923 6.522,34.16 6.65,34.356 C6.778,34.551 6.979,34.687 7.208,34.734 L12.485,35.822 C12.961,35.92 13.426,35.614 13.525,35.138 C14.099,32.353 15.029,29.632 16.289,27.049 C20.283,18.861 27.227,12.717 35.841,9.751 C39.457,8.506 43.203,7.875 46.974,7.875 C52.155,7.875 57.175,9.042 61.895,11.345 C69.09,14.854 74.743,20.686 78.008,27.913 L72.033,25.033 C71.594,24.822 71.068,25.006 70.857,25.444 L68.519,30.298 C68.308,30.736 68.492,31.262 68.929,31.473 L84.87,39.155 C84.993,39.215 85.124,39.243 85.251,39.243 C85.575,39.243 85.888,39.062 86.042,38.751 L93.86,22.888 C93.963,22.676 93.979,22.434 93.904,22.213 Z" id="Shape"></path>
            </g>
        </g>
    </g>
</svg>