<?xml version="1.0" encoding="UTF-8"?>
<svg width="579px" height="402px" viewBox="0 0 579 402" version="1.1" xmlns="http://www.w3.org/2000/svg" xmlns:xlink="http://www.w3.org/1999/xlink">
    <!-- Generator: Sketch 41.2 (35397) - http://www.bohemiancoding.com/sketch -->
    <title>Desktop</title>
    <desc>Created with Sketch.</desc>
    <defs>
        <rect id="path-1" x="0" y="0" width="500" height="210" rx="6"></rect>
        <filter x="-50%" y="-50%" width="200%" height="200%" filterUnits="objectBoundingBox" id="filter-3">
            <feMorphology radius="1" operator="dilate" in="SourceAlpha" result="shadowSpreadOuter1"></feMorphology>
            <feOffset dx="0" dy="10" in="shadowSpreadOuter1" result="shadowOffsetOuter1"></feOffset>
            <feGaussianBlur stdDeviation="10" in="shadowOffsetOuter1" result="shadowBlurOuter1"></feGaussianBlur>
            <feComposite in="shadowBlurOuter1" in2="SourceAlpha" operator="out" result="shadowBlurOuter1"></feComposite>
            <feColorMatrix values="0 0 0 0 0   0 0 0 0 0   0 0 0 0 0  0 0 0 0.1 0" type="matrix" in="shadowBlurOuter1" result="shadowMatrixOuter1"></feColorMatrix>
            <feMorphology radius="1" operator="dilate" in="SourceAlpha" result="shadowSpreadOuter2"></feMorphology>
            <feOffset dx="0" dy="0" in="shadowSpreadOuter2" result="shadowOffsetOuter2"></feOffset>
            <feGaussianBlur stdDeviation="5" in="shadowOffsetOuter2" result="shadowBlurOuter2"></feGaussianBlur>
            <feComposite in="shadowBlurOuter2" in2="SourceAlpha" operator="out" result="shadowBlurOuter2"></feComposite>
            <feColorMatrix values="0 0 0 0 0   0 0 0 0 0   0 0 0 0 0  0 0 0 0.100000001 0" type="matrix" in="shadowBlurOuter2" result="shadowMatrixOuter2"></feColorMatrix>
            <feMerge>
                <feMergeNode in="shadowMatrixOuter1"></feMergeNode>
                <feMergeNode in="shadowMatrixOuter2"></feMergeNode>
            </feMerge>
        </filter>
        <mask id="mask-4" maskContentUnits="userSpaceOnUse" maskUnits="objectBoundingBox" x="-1" y="-1" width="502" height="212">
            <rect x="-1" y="-1" width="502" height="212" fill="white"></rect>
            <use xlink:href="#path-1" fill="black"></use>
        </mask>
        <rect id="path-5" x="0" y="0" width="460" height="124" rx="3"></rect>
        <mask id="mask-7" maskContentUnits="userSpaceOnUse" maskUnits="objectBoundingBox" x="-1" y="-1" width="462" height="126">
            <rect x="-1" y="-1" width="462" height="126" fill="white"></rect>
            <use xlink:href="#path-5" fill="black"></use>
        </mask>
        <linearGradient x1="50%" y1="0%" x2="50%" y2="100%" id="linearGradient-8">
            <stop stop-color="#E5E5E7" offset="0%"></stop>
            <stop stop-color="#F3F4F4" offset="100%"></stop>
        </linearGradient>
        <path d="M1.97714185e-15,19.0001062 C1.97714185e-15,17.895478 1.97714185e-15,16.1099416 1.97714185e-15,14.9998938 L1.97714185e-15,3.00012623 C1.97714185e-15,1.34320226 1.33760056,0 2.99119347,0 L276.008807,0 C277.660797,0 279,1.33396149 279,3.00012623 L279,17 L279,30.9998738 C279,32.6567977 277.662399,34 276.008807,34 L2.99119347,34 C1.33920293,34 1.97714185e-15,32.6660385 1.97714185e-15,30.9998738 L1.97714185e-15,19.0001062 Z" id="path-9"></path>
        <filter x="-50%" y="-50%" width="200%" height="200%" filterUnits="objectBoundingBox" id="filter-10">
            <feOffset dx="0" dy="5" in="SourceAlpha" result="shadowOffsetOuter1"></feOffset>
            <feGaussianBlur stdDeviation="5" in="shadowOffsetOuter1" result="shadowBlurOuter1"></feGaussianBlur>
            <feComposite in="shadowBlurOuter1" in2="SourceAlpha" operator="out" result="shadowBlurOuter1"></feComposite>
            <feColorMatrix values="0 0 0 0 0   0 0 0 0 0   0 0 0 0 0  0 0 0 0.1 0" type="matrix" in="shadowBlurOuter1" result="shadowMatrixOuter1"></feColorMatrix>
            <feOffset dx="0" dy="0" in="SourceAlpha" result="shadowOffsetOuter2"></feOffset>
            <feGaussianBlur stdDeviation="2.5" in="shadowOffsetOuter2" result="shadowBlurOuter2"></feGaussianBlur>
            <feComposite in="shadowBlurOuter2" in2="SourceAlpha" operator="out" result="shadowBlurOuter2"></feComposite>
            <feColorMatrix values="0 0 0 0 0   0 0 0 0 0   0 0 0 0 0  0 0 0 0.100000001 0" type="matrix" in="shadowBlurOuter2" result="shadowMatrixOuter2"></feColorMatrix>
            <feOffset dx="0" dy="-5" in="SourceAlpha" result="shadowOffsetOuter3"></feOffset>
            <feGaussianBlur stdDeviation="5" in="shadowOffsetOuter3" result="shadowBlurOuter3"></feGaussianBlur>
            <feComposite in="shadowBlurOuter3" in2="SourceAlpha" operator="out" result="shadowBlurOuter3"></feComposite>
            <feColorMatrix values="0 0 0 0 1   0 0 0 0 1   0 0 0 0 1  0 0 0 0.5 0" type="matrix" in="shadowBlurOuter3" result="shadowMatrixOuter3"></feColorMatrix>
            <feMerge>
                <feMergeNode in="shadowMatrixOuter1"></feMergeNode>
                <feMergeNode in="shadowMatrixOuter2"></feMergeNode>
                <feMergeNode in="shadowMatrixOuter3"></feMergeNode>
            </feMerge>
        </filter>
        <mask id="mask-11" maskContentUnits="userSpaceOnUse" maskUnits="objectBoundingBox" x="0" y="0" width="279" height="34" fill="white">
            <use xlink:href="#path-9"></use>
        </mask>
    </defs>
    <g id="Page-4" stroke="none" stroke-width="1" fill="none" fill-rule="evenodd">
        <g id="Desktop">
            <g id="Примеры-использования-Copy" transform="translate(42.000000, 156.000000)">
                <mask id="mask-2" fill="white">
                    <use xlink:href="#path-1"></use>
                </mask>
                <g id="Rectangle-2-Copy-2">
                    <use fill="black" fill-opacity="1" filter="url(#filter-3)" xlink:href="#path-1"></use>
                    <use fill="#FFFFFF" fill-rule="evenodd" xlink:href="#path-1"></use>
                    <use stroke="#CCCCCC" mask="url(#mask-4)" stroke-width="2" xlink:href="#path-1"></use>
                </g>
                <g id="Group-3" mask="url(#mask-2)">
                    <g transform="translate(20.000000, 66.000000)">
                        <g id="Group">
                            <mask id="mask-6" fill="white">
                                <use xlink:href="#path-5"></use>
                            </mask>
                            <g id="Текстовое-поле">
                                <use fill="#D6F4C9" fill-rule="evenodd" xlink:href="#path-5"></use>
                                <use stroke="#3FC33E" mask="url(#mask-7)" stroke-width="2" stroke-dasharray="6,5" xlink:href="#path-5"></use>
                            </g>
                        </g>
                        <g id="Group-2" transform="translate(49.000000, 22.000000)">
                            <g id="Стандартная-кнопка" transform="translate(42.000000, 39.000000)">
                                <g id="Rectangle-1">
                                    <use fill="black" fill-opacity="1" filter="url(#filter-10)" xlink:href="#path-9"></use>
                                    <use stroke="#929292" mask="url(#mask-11)" stroke-width="2" fill="url(#linearGradient-8)" fill-rule="evenodd" xlink:href="#path-9"></use>
                                </g>
                                <path d="M49.558,13.334 C49.558,13.6460016 49.5190004,13.9579984 49.441,14.27 C49.3629996,14.5820016 49.2340009,14.8669987 49.054,15.125 C48.8739991,15.3830013 48.6400014,15.610999 48.352,15.809 C48.0639986,16.007001 47.716002,16.1539995 47.308,16.25 L47.308,16.358 C47.6680018,16.4180003 48.0099984,16.5199993 48.334,16.664 C48.6580016,16.8080007 48.9399988,17.0059987 49.18,17.258 C49.4200012,17.5100013 49.6089993,17.8159982 49.747,18.176 C49.8850007,18.5360018 49.954,18.9619975 49.954,19.454 C49.954,20.1020032 49.8160014,20.6629976 49.54,21.137 C49.2639986,21.6110024 48.8950023,21.9979985 48.433,22.298 C47.9709977,22.5980015 47.4460029,22.8199993 46.858,22.964 C46.2699971,23.1080007 45.6640031,23.18 45.04,23.18 L44.257,23.18 C43.9389984,23.18 43.5970018,23.1710001 43.231,23.153 C42.8649982,23.1349999 42.4930019,23.1080002 42.115,23.072 C41.7369981,23.0359998 41.3920016,22.9820004 41.08,22.91 L41.08,10.49 C41.3080011,10.4539998 41.5689985,10.4180002 41.863,10.382 C42.1570015,10.3459998 42.4719983,10.3160001 42.808,10.292 C43.1440017,10.2679999 43.4889982,10.2500001 43.843,10.238 C44.1970018,10.2259999 44.5479983,10.22 44.896,10.22 C45.4840029,10.22 46.0569972,10.2649995 46.615,10.355 C47.1730028,10.4450004 47.6709978,10.6039989 48.109,10.832 C48.5470022,11.0600011 48.8979987,11.377998 49.162,11.786 C49.4260013,12.194002 49.558,12.7099969 49.558,13.334 Z M45.058,21.146 C45.3580015,21.146 45.6489986,21.1100004 45.931,21.038 C46.2130014,20.9659996 46.4619989,20.8550007 46.678,20.705 C46.8940011,20.5549992 47.0679993,20.3660011 47.2,20.138 C47.3320007,19.9099989 47.398,19.6400016 47.398,19.328 C47.398,18.931998 47.3200008,18.6200011 47.164,18.392 C47.0079992,18.1639989 46.8040013,17.9870006 46.552,17.861 C46.2999987,17.7349994 46.0180016,17.6540002 45.706,17.618 C45.3939984,17.5819998 45.0820016,17.564 44.77,17.564 L43.456,17.564 L43.456,21.038 C43.5160003,21.0620001 43.6119993,21.0799999 43.744,21.092 C43.8760007,21.1040001 44.0169992,21.113 44.167,21.119 C44.3170007,21.125 44.4729992,21.131 44.635,21.137 C44.7970008,21.143 44.9379994,21.146 45.058,21.146 Z M44.248,15.692 C44.4160008,15.692 44.6109989,15.6860001 44.833,15.674 C45.0550011,15.6619999 45.2379993,15.6440001 45.382,15.62 C45.8380023,15.4759993 46.2309983,15.2600014 46.561,14.972 C46.8910016,14.6839986 47.056,14.3060023 47.056,13.838 C47.056,13.5259984 46.9960006,13.268001 46.876,13.064 C46.7559994,12.859999 46.597001,12.6980006 46.399,12.578 C46.200999,12.4579994 45.9760013,12.3740002 45.724,12.326 C45.4719987,12.2779998 45.2080014,12.254 44.932,12.254 C44.6199984,12.254 44.3320013,12.2599999 44.068,12.272 C43.8039987,12.2840001 43.6000007,12.3019999 43.456,12.326 L43.456,15.692 L44.248,15.692 Z M54.004,21.038 C54.3640018,21.1100004 54.7059984,21.146 55.03,21.146 C55.5700027,21.146 55.9479989,21.047001 56.164,20.849 C56.3800011,20.650999 56.488,20.3420021 56.488,19.922 C56.488,19.5379981 56.3800011,19.247001 56.164,19.049 C55.9479989,18.850999 55.5880025,18.752 55.084,18.752 C54.687998,18.752 54.3280016,18.7939996 54.004,18.878 L54.004,21.038 Z M54.004,17.204 C54.2920014,17.1559998 54.5829985,17.1230001 54.877,17.105 C55.1710015,17.0869999 55.4379988,17.078 55.678,17.078 C56.2900031,17.078 56.799998,17.1469993 57.208,17.285 C57.616002,17.4230007 57.9459987,17.6179987 58.198,17.87 C58.4500013,18.1220013 58.6299995,18.4189983 58.738,18.761 C58.8460005,19.1030017 58.9,19.471998 58.9,19.868 C58.9,20.4080027 58.8280007,20.881998 58.684,21.29 C58.5399993,21.698002 58.3060016,22.0369986 57.982,22.307 C57.6579984,22.5770013 57.2380026,22.7809993 56.722,22.919 C56.2059974,23.0570007 55.5700038,23.126 54.814,23.126 C54.1299966,23.126 53.5390025,23.1140001 53.041,23.09 C52.5429975,23.0659999 52.0840021,23.0360002 51.664,23 L51.664,14 L54.004,14 L54.004,17.204 Z M59.926,14 L62.266,14 L62.266,23 L59.926,23 L59.926,14 Z M65.848,15.692 C66.1960017,15.1639974 66.6069976,14.7830012 67.081,14.549 C67.5550024,14.3149988 68.1279966,14.198 68.8,14.198 C69.8920055,14.198 70.7589968,14.5309967 71.401,15.197 C72.0430032,15.8630033 72.364,16.897993 72.364,18.302 C72.364,19.9220081 71.9980037,21.1519958 71.266,21.992 C70.5339963,22.8320042 69.5020067,23.252 68.17,23.252 C66.777993,23.252 65.7160037,22.7900046 64.984,21.866 C64.2519963,20.9419954 63.886,19.5020098 63.886,17.546 C63.886,16.5139948 63.9459994,15.6320037 64.066,14.9 C64.1860006,14.1679963 64.3569989,13.5500025 64.579,13.046 C64.8010011,12.5419975 65.0649985,12.1400015 65.371,11.84 C65.6770015,11.5399985 66.0189981,11.3030009 66.397,11.129 C66.7750019,10.9549991 67.1799978,10.8320004 67.612,10.76 C68.0440022,10.6879996 68.4999976,10.6280002 68.98,10.58 C69.6040031,10.5199997 70.1379978,10.4450004 70.582,10.355 C71.0260022,10.2649995 71.3559989,10.118001 71.572,9.914 L71.662,12.002 C71.4219988,12.206001 71.0800022,12.3469996 70.636,12.425 C70.1919978,12.5030004 69.5920038,12.5719997 68.836,12.632 C68.3799977,12.6560001 67.9780017,12.7099996 67.63,12.794 C67.2819983,12.8780004 66.9820013,13.0279989 66.73,13.244 C66.4779987,13.4600011 66.2770007,13.762998 66.127,14.153 C65.9769992,14.5430019 65.8660004,15.0559968 65.794,15.692 L65.848,15.692 Z M66.298,18.608 C66.298,19.3760038 66.4479985,20.0119975 66.748,20.516 C67.0480015,21.0200025 67.5099969,21.272 68.134,21.272 C68.7820032,21.272 69.2469986,21.0440023 69.529,20.588 C69.8110014,20.1319977 69.952,19.4720043 69.952,18.608 C69.952,17.8279961 69.8200013,17.2280021 69.556,16.808 C69.2919987,16.3879979 68.8540031,16.178 68.242,16.178 C67.5819967,16.178 67.0930016,16.3939978 66.775,16.826 C66.4569984,17.2580022 66.298,17.8519962 66.298,18.608 Z M73.984,14 L75.694,14 L75.964,15.08 L76.036,15.08 C76.3480016,14.6239977 76.7169979,14.2880011 77.143,14.072 C77.5690021,13.8559989 78.0879969,13.748 78.7,13.748 C79.8280056,13.748 80.6739972,14.1049964 81.238,14.819 C81.8020028,15.5330036 82.084,16.6819921 82.084,18.266 C82.084,19.0340038 81.9940009,19.7269969 81.814,20.345 C81.6339991,20.9630031 81.3670018,21.4879978 81.013,21.92 C80.6589982,22.3520022 80.2270025,22.6819989 79.717,22.91 C79.2069974,23.1380011 78.6220033,23.252 77.962,23.252 C77.5899981,23.252 77.2840012,23.2250003 77.044,23.171 C76.8039988,23.1169997 76.5640012,23.0300006 76.324,22.91 L76.324,26.6 L73.984,26.6 L73.984,14 Z M77.998,15.728 C77.5419977,15.728 77.1850013,15.8419989 76.927,16.07 C76.6689987,16.2980011 76.4680007,16.6399977 76.324,17.096 L76.324,20.84 C76.4920008,20.9720007 76.674999,21.0769996 76.873,21.155 C77.071001,21.2330004 77.3319984,21.272 77.656,21.272 C78.3280034,21.272 78.8319983,21.0350024 79.168,20.561 C79.5040017,20.0869976 79.672,19.3040055 79.672,18.212 C79.672,17.419996 79.5400013,16.8080022 79.276,16.376 C79.0119987,15.9439978 78.5860029,15.728 77.998,15.728 Z M83.65,14.522 C84.1300024,14.3059989 84.6999967,14.1350006 85.36,14.009 C86.0200033,13.8829994 86.7099964,13.82 87.43,13.82 C88.0540031,13.82 88.5759979,13.8949992 88.996,14.045 C89.4160021,14.1950007 89.7489988,14.4079986 89.995,14.684 C90.2410012,14.9600014 90.4149995,15.2899981 90.517,15.674 C90.6190005,16.0580019 90.67,16.4899976 90.67,16.97 C90.67,17.4980026 90.6520002,18.0289973 90.616,18.563 C90.5799998,19.0970027 90.559,19.6219974 90.553,20.138 C90.547,20.6540026 90.5619998,21.1549976 90.598,21.641 C90.6340002,22.1270024 90.7239993,22.5859978 90.868,23.018 L88.96,23.018 L88.582,21.776 L88.492,21.776 C88.2519988,22.1480019 87.9190021,22.4689986 87.493,22.739 C87.0669979,23.0090013 86.5180034,23.144 85.846,23.144 C85.4259979,23.144 85.0480017,23.0810006 84.712,22.955 C84.3759983,22.8289994 84.0880012,22.6490012 83.848,22.415 C83.6079988,22.1809988 83.4220007,21.9050016 83.29,21.587 C83.1579993,21.2689984 83.092,20.912002 83.092,20.516 C83.092,19.9639972 83.2149988,19.4990019 83.461,19.121 C83.7070012,18.7429981 84.0609977,18.4370012 84.523,18.203 C84.9850023,17.9689988 85.5369968,17.8070004 86.179,17.717 C86.8210032,17.6269995 87.537996,17.5999998 88.33,17.636 C88.4140004,16.9639966 88.3660009,16.4810015 88.186,16.187 C88.0059991,15.8929985 87.6040031,15.746 86.98,15.746 C86.5119977,15.746 86.0170026,15.7939995 85.495,15.89 C84.9729974,15.9860005 84.5440017,16.1119992 84.208,16.268 L83.65,14.522 Z M86.62,21.218 C87.0880023,21.218 87.4599986,21.113001 87.736,20.903 C88.0120014,20.6929989 88.2159993,20.4680012 88.348,20.228 L88.348,19.058 C87.9759981,19.0219998 87.6190017,19.0159999 87.277,19.04 C86.9349983,19.0640001 86.6320013,19.1179996 86.368,19.202 C86.1039987,19.2860004 85.8940008,19.4059992 85.738,19.562 C85.5819992,19.7180008 85.504,19.9159988 85.504,20.156 C85.504,20.4920017 85.602999,20.7529991 85.801,20.939 C85.999001,21.1250009 86.2719983,21.218 86.62,21.218 Z M99.112,16.07 L96.61,16.07 L96.61,23 L94.198,23 L94.198,16.07 L91.624,16.07 L91.624,14 L99.112,14 L99.112,16.07 Z M102.496,21.038 C102.856002,21.1100004 103.197998,21.146 103.522,21.146 C104.098003,21.146 104.514999,21.047001 104.773,20.849 C105.031001,20.650999 105.16,20.3420021 105.16,19.922 C105.16,19.1419961 104.632005,18.752 103.576,18.752 C103.179998,18.752 102.820002,18.7939996 102.496,18.878 L102.496,21.038 Z M102.496,17.204 C102.784001,17.1559998 103.074999,17.1230001 103.369,17.105 C103.663001,17.0869999 103.929999,17.078 104.17,17.078 C104.794003,17.078 105.321998,17.1469993 105.754,17.285 C106.186002,17.4230007 106.536999,17.6179987 106.807,17.87 C107.077001,18.1220013 107.271999,18.4189983 107.392,18.761 C107.512001,19.1030017 107.572,19.471998 107.572,19.868 C107.572,20.9600055 107.248003,21.7759973 106.6,22.316 C105.951997,22.8560027 104.854008,23.126 103.306,23.126 C102.621997,23.126 102.031002,23.1140001 101.533,23.09 C101.034998,23.0659999 100.576002,23.0360002 100.156,23 L100.156,14 L102.496,14 L102.496,17.204 Z M117.652,23.108 C117.447999,23.1800004 117.235001,23.2219999 117.013,23.234 C116.790999,23.2460001 116.590001,23.252 116.41,23.252 C115.317995,23.252 114.478003,22.8620039 113.89,22.082 C113.301997,21.3019961 113.008,20.108008 113.008,18.5 C113.008,16.9639923 113.331997,15.800004 113.98,15.008 C114.628003,14.215996 115.563994,13.82 116.788,13.82 C117.124002,13.82 117.411999,13.8439998 117.652,13.892 L117.652,10.4 L119.956,10.4 L119.956,13.91 C120.172001,13.8739998 120.363999,13.8500001 120.532,13.838 C120.700001,13.8259999 120.861999,13.82 121.018,13.82 C122.206006,13.82 123.099997,14.1709965 123.7,14.873 C124.300003,15.5750035 124.6,16.723992 124.6,18.32 C124.6,19.0760038 124.519001,19.756997 124.357,20.363 C124.194999,20.969003 123.958002,21.4879978 123.646,21.92 C123.333998,22.3520022 122.953002,22.6819989 122.503,22.91 C122.052998,23.1380011 121.534003,23.252 120.946,23.252 C120.837999,23.252 120.679001,23.2430001 120.469,23.225 C120.258999,23.2069999 120.088001,23.1740002 119.956,23.126 L119.956,26.6 L117.652,26.6 L117.652,23.108 Z M120.496,15.674 C120.375999,15.674 120.271,15.6829999 120.181,15.701 C120.091,15.7190001 119.980001,15.7399999 119.848,15.764 L119.848,21.344 C119.944,21.3680001 120.054999,21.383 120.181,21.389 C120.307001,21.395 120.441999,21.398 120.586,21.398 C121.162003,21.398 121.584999,21.1610024 121.855,20.687 C122.125001,20.2129976 122.26,19.4240055 122.26,18.32 C122.26,17.3839953 122.128001,16.7090021 121.864,16.295 C121.599999,15.8809979 121.144003,15.674 120.496,15.674 Z M117.022,21.398 C117.154001,21.398 117.276999,21.3890001 117.391,21.371 C117.505001,21.3529999 117.627999,21.3320001 117.76,21.308 L117.76,15.746 C117.531999,15.6979998 117.298001,15.674 117.058,15.674 C116.505997,15.674 116.083001,15.8869979 115.789,16.313 C115.494999,16.7390021 115.348,17.4679948 115.348,18.5 C115.348,19.4360047 115.482999,20.1529975 115.753,20.651 C116.023001,21.1490025 116.445997,21.398 117.022,21.398 Z M126.076,14.522 C126.556002,14.3059989 127.125997,14.1350006 127.786,14.009 C128.446003,13.8829994 129.135996,13.82 129.856,13.82 C130.480003,13.82 131.001998,13.8949992 131.422,14.045 C131.842002,14.1950007 132.174999,14.4079986 132.421,14.684 C132.667001,14.9600014 132.840999,15.2899981 132.943,15.674 C133.045001,16.0580019 133.096,16.4899976 133.096,16.97 C133.096,17.4980026 133.078,18.0289973 133.042,18.563 C133.006,19.0970027 132.985,19.6219974 132.979,20.138 C132.973,20.6540026 132.988,21.1549976 133.024,21.641 C133.06,22.1270024 133.149999,22.5859978 133.294,23.018 L131.386,23.018 L131.008,21.776 L130.918,21.776 C130.677999,22.1480019 130.345002,22.4689986 129.919,22.739 C129.492998,23.0090013 128.944003,23.144 128.272,23.144 C127.851998,23.144 127.474002,23.0810006 127.138,22.955 C126.801998,22.8289994 126.514001,22.6490012 126.274,22.415 C126.033999,22.1809988 125.848001,21.9050016 125.716,21.587 C125.583999,21.2689984 125.518,20.912002 125.518,20.516 C125.518,19.9639972 125.640999,19.4990019 125.887,19.121 C126.133001,18.7429981 126.486998,18.4370012 126.949,18.203 C127.411002,17.9689988 127.962997,17.8070004 128.605,17.717 C129.247003,17.6269995 129.963996,17.5999998 130.756,17.636 C130.84,16.9639966 130.792001,16.4810015 130.612,16.187 C130.431999,15.8929985 130.030003,15.746 129.406,15.746 C128.937998,15.746 128.443003,15.7939995 127.921,15.89 C127.398997,15.9860005 126.970002,16.1119992 126.634,16.268 L126.076,14.522 Z M129.046,21.218 C129.514002,21.218 129.885999,21.113001 130.162,20.903 C130.438001,20.6929989 130.641999,20.4680012 130.774,20.228 L130.774,19.058 C130.401998,19.0219998 130.045002,19.0159999 129.703,19.04 C129.360998,19.0640001 129.058001,19.1179996 128.794,19.202 C128.529999,19.2860004 128.320001,19.4059992 128.164,19.562 C128.007999,19.7180008 127.93,19.9159988 127.93,20.156 C127.93,20.4920017 128.028999,20.7529991 128.227,20.939 C128.425001,21.1250009 128.697998,21.218 129.046,21.218 Z M140.476,18.896 L140.566,17.618 L140.512,17.618 L139.738,18.932 L136.534,23 L135.058,23 L135.058,14 L137.398,14 L137.398,18.284 L137.29,19.508 L137.362,19.508 L138.1,18.23 L141.34,14 L142.816,14 L142.816,23 L140.476,23 L140.476,18.896 Z M137.974,10.328 C138.058,10.7960023 138.198999,11.125999 138.397,11.318 C138.595001,11.510001 138.849998,11.606 139.162,11.606 C139.498002,11.606 139.764999,11.510001 139.963,11.318 C140.161001,11.125999 140.296,10.8020023 140.368,10.346 L142.15,10.796 C142.005999,11.5760039 141.652003,12.1549981 141.088,12.533 C140.523997,12.9110019 139.864004,13.1 139.108,13.1 C138.735998,13.1 138.376002,13.0580004 138.028,12.974 C137.679998,12.8899996 137.368001,12.7550009 137.092,12.569 C136.815999,12.3829991 136.582001,12.1460014 136.39,11.858 C136.197999,11.5699986 136.066,11.2160021 135.994,10.796 L137.974,10.328 Z M149.764,16.07 L147.982,16.07 C147.91,16.9220043 147.826,17.7679958 147.73,18.608 C147.634,19.4480042 147.481001,20.2009967 147.271,20.867 C147.060999,21.5330033 146.776002,22.0729979 146.416,22.487 C146.055998,22.9010021 145.588003,23.108 145.012,23.108 C144.315997,23.108 143.824001,23.0180009 143.536,22.838 L143.824,20.894 C144.016001,20.9660004 144.195999,21.002 144.364,21.002 C144.604001,21.002 144.813999,20.900001 144.994,20.696 C145.174001,20.491999 145.326999,20.1260026 145.453,19.598 C145.579001,19.0699974 145.681,18.3530045 145.759,17.447 C145.837,16.5409955 145.894,15.392007 145.93,14 L152.104,14 L152.104,23 L149.764,23 L149.764,16.07 Z M156.478,21.038 C156.838002,21.1100004 157.179998,21.146 157.504,21.146 C158.044003,21.146 158.421999,21.047001 158.638,20.849 C158.854001,20.650999 158.962,20.3420021 158.962,19.922 C158.962,19.5379981 158.854001,19.247001 158.638,19.049 C158.421999,18.850999 158.062003,18.752 157.558,18.752 C157.161998,18.752 156.802002,18.7939996 156.478,18.878 L156.478,21.038 Z M156.478,17.204 C156.766001,17.1559998 157.056999,17.1230001 157.351,17.105 C157.645001,17.0869999 157.911999,17.078 158.152,17.078 C158.764003,17.078 159.273998,17.1469993 159.682,17.285 C160.090002,17.4230007 160.419999,17.6179987 160.672,17.87 C160.924001,18.1220013 161.103999,18.4189983 161.212,18.761 C161.320001,19.1030017 161.374,19.471998 161.374,19.868 C161.374,20.4080027 161.302001,20.881998 161.158,21.29 C161.013999,21.698002 160.780002,22.0369986 160.456,22.307 C160.131998,22.5770013 159.712003,22.7809993 159.196,22.919 C158.679997,23.0570007 158.044004,23.126 157.288,23.126 C156.603997,23.126 156.013002,23.1140001 155.515,23.09 C155.016998,23.0659999 154.558002,23.0360002 154.138,23 L154.138,14 L156.478,14 L156.478,17.204 Z M162.4,14 L164.74,14 L164.74,23 L162.4,23 L162.4,14 Z M176.62,19.472 L173.686,19.472 L173.686,23 L171.346,23 L171.346,14 L173.686,14 L173.686,17.384 L176.62,17.384 L176.62,14 L178.96,14 L178.96,23 L176.62,23 L176.62,19.472 Z M180.958,14.522 C181.438002,14.3059989 182.007997,14.1350006 182.668,14.009 C183.328003,13.8829994 184.017996,13.82 184.738,13.82 C185.362003,13.82 185.883998,13.8949992 186.304,14.045 C186.724002,14.1950007 187.056999,14.4079986 187.303,14.684 C187.549001,14.9600014 187.722999,15.2899981 187.825,15.674 C187.927001,16.0580019 187.978,16.4899976 187.978,16.97 C187.978,17.4980026 187.96,18.0289973 187.924,18.563 C187.888,19.0970027 187.867,19.6219974 187.861,20.138 C187.855,20.6540026 187.87,21.1549976 187.906,21.641 C187.942,22.1270024 188.031999,22.5859978 188.176,23.018 L186.268,23.018 L185.89,21.776 L185.8,21.776 C185.559999,22.1480019 185.227002,22.4689986 184.801,22.739 C184.374998,23.0090013 183.826003,23.144 183.154,23.144 C182.733998,23.144 182.356002,23.0810006 182.02,22.955 C181.683998,22.8289994 181.396001,22.6490012 181.156,22.415 C180.915999,22.1809988 180.730001,21.9050016 180.598,21.587 C180.465999,21.2689984 180.4,20.912002 180.4,20.516 C180.4,19.9639972 180.522999,19.4990019 180.769,19.121 C181.015001,18.7429981 181.368998,18.4370012 181.831,18.203 C182.293002,17.9689988 182.844997,17.8070004 183.487,17.717 C184.129003,17.6269995 184.845996,17.5999998 185.638,17.636 C185.722,16.9639966 185.674001,16.4810015 185.494,16.187 C185.313999,15.8929985 184.912003,15.746 184.288,15.746 C183.819998,15.746 183.325003,15.7939995 182.803,15.89 C182.280997,15.9860005 181.852002,16.1119992 181.516,16.268 L180.958,14.522 Z M183.928,21.218 C184.396002,21.218 184.767999,21.113001 185.044,20.903 C185.320001,20.6929989 185.523999,20.4680012 185.656,20.228 L185.656,19.058 C185.283998,19.0219998 184.927002,19.0159999 184.585,19.04 C184.242998,19.0640001 183.940001,19.1179996 183.676,19.202 C183.411999,19.2860004 183.202001,19.4059992 183.046,19.562 C182.889999,19.7180008 182.812,19.9159988 182.812,20.156 C182.812,20.4920017 182.910999,20.7529991 183.109,20.939 C183.307001,21.1250009 183.579998,21.218 183.928,21.218 Z M203.44,25.052 L201.73,25.052 L201.46,23 L195.412,23 L195.142,25.052 L193.432,25.052 L193.432,20.93 L194.494,20.93 C194.59,20.7979993 194.712999,20.5730016 194.863,20.255 C195.013001,19.9369984 195.162999,19.5020028 195.313,18.95 C195.463001,18.3979972 195.591999,17.7140041 195.7,16.898 C195.808001,16.0819959 195.862,15.1160056 195.862,14 L202.126,14 L202.126,20.93 L203.44,20.93 L203.44,25.052 Z M199.786,21.038 L199.786,15.98 L197.896,15.98 C197.872,16.4120022 197.83,16.8709976 197.77,17.357 C197.71,17.8430024 197.635,18.3139977 197.545,18.77 C197.455,19.2260023 197.350001,19.651998 197.23,20.048 C197.109999,20.444002 196.978001,20.7739987 196.834,21.038 L199.786,21.038 Z M210.136,18.896 L210.226,17.618 L210.172,17.618 L209.398,18.932 L206.194,23 L204.718,23 L204.718,14 L207.058,14 L207.058,18.284 L206.95,19.508 L207.022,19.508 L207.76,18.23 L211,14 L212.476,14 L212.476,23 L210.136,23 L210.136,18.896 Z M220.9,22.442 C220.539998,22.7060013 220.105003,22.9069993 219.595,23.045 C219.084997,23.1830007 218.560003,23.252 218.02,23.252 C217.299996,23.252 216.691002,23.1380011 216.193,22.91 C215.694998,22.6819989 215.290002,22.3610021 214.978,21.947 C214.665998,21.5329979 214.441001,21.0320029 214.303,20.444 C214.164999,19.8559971 214.096,19.2080035 214.096,18.5 C214.096,16.9759924 214.437997,15.8030041 215.122,14.981 C215.806003,14.1589959 216.801993,13.748 218.11,13.748 C218.770003,13.748 219.300998,13.8019995 219.703,13.91 C220.105002,14.0180005 220.467998,14.1559992 220.792,14.324 L220.234,16.232 C219.957999,16.0999993 219.685001,15.9980004 219.415,15.926 C219.144999,15.8539996 218.836002,15.818 218.488,15.818 C217.839997,15.818 217.348002,16.0309979 217.012,16.457 C216.675998,16.8830021 216.508,17.5639953 216.508,18.5 C216.508,18.8840019 216.55,19.2379984 216.634,19.562 C216.718,19.8860016 216.843999,20.1679988 217.012,20.408 C217.180001,20.6480012 217.398999,20.8369993 217.669,20.975 C217.939001,21.1130007 218.253998,21.182 218.614,21.182 C219.010002,21.182 219.345999,21.1310005 219.622,21.029 C219.898001,20.9269995 220.143999,20.8040007 220.36,20.66 L220.9,22.442 Z M225.292,19.274 L224.662,19.274 L224.662,23 L222.322,23 L222.322,14 L224.662,14 L224.662,17.834 L225.22,17.582 L227.326,14 L229.828,14 L227.65,17.42 L226.732,18.104 L227.74,18.806 L230.17,23 L227.488,23 L225.292,19.274 Z M238.324,22.226 C237.963998,22.5140014 237.475003,22.756999 236.857,22.955 C236.238997,23.153001 235.582003,23.252 234.886,23.252 C233.433993,23.252 232.372003,22.8290042 231.7,21.983 C231.027997,21.1369958 230.692,19.9760074 230.692,18.5 C230.692,16.9159921 231.069996,15.728004 231.826,14.936 C232.582004,14.143996 233.643993,13.748 235.012,13.748 C235.468002,13.748 235.911998,13.8079994 236.344,13.928 C236.776002,14.0480006 237.159998,14.2459986 237.496,14.522 C237.832002,14.7980014 238.101999,15.1699977 238.306,15.638 C238.510001,16.1060023 238.612,16.6879965 238.612,17.384 C238.612,17.6360013 238.597,17.9059986 238.567,18.194 C238.537,18.4820014 238.492,18.7819984 238.432,19.094 L233.032,19.094 C233.068,19.8500038 233.262998,20.4199981 233.617,20.804 C233.971002,21.1880019 234.543996,21.38 235.336,21.38 C235.828002,21.38 236.268998,21.3050007 236.659,21.155 C237.049002,21.0049992 237.345999,20.8520008 237.55,20.696 L238.324,22.226 Z M234.976,15.62 C234.363997,15.62 233.911001,15.8029982 233.617,16.169 C233.322999,16.5350018 233.146,17.0239969 233.086,17.636 L236.434,17.636 C236.482,16.9879968 236.383001,16.4900017 236.137,16.142 C235.890999,15.7939983 235.504003,15.62 234.976,15.62 Z" id="Выбрать-файлы-на-дис" fill="#000000"></path>
                            </g>
                            <path d="M8.558,3.334 C8.558,3.64600156 8.51900039,3.95799844 8.441,4.27 C8.36299961,4.58200156 8.2340009,4.86699871 8.054,5.125 C7.8739991,5.38300129 7.64000144,5.61099901 7.352,5.809 C7.06399856,6.00700099 6.71600204,6.15399952 6.308,6.25 L6.308,6.358 C6.6680018,6.4180003 7.00999838,6.51999928 7.334,6.664 C7.65800162,6.80800072 7.9399988,7.00599874 8.18,7.258 C8.4200012,7.51000126 8.60899931,7.8159982 8.747,8.176 C8.88500069,8.5360018 8.954,8.96199754 8.954,9.454 C8.954,10.1020032 8.81600138,10.6629976 8.54,11.137 C8.26399862,11.6110024 7.89500231,11.9979985 7.433,12.298 C6.97099769,12.5980015 6.44600294,12.8199993 5.858,12.964 C5.26999706,13.1080007 4.66400312,13.18 4.04,13.18 L3.257,13.18 C2.93899841,13.18 2.59700183,13.1710001 2.231,13.153 C1.86499817,13.1349999 1.49300189,13.1080002 1.115,13.072 C0.73699811,13.0359998 0.39200156,12.9820004 0.08,12.91 L0.08,0.49 C0.30800114,0.45399982 0.56899853,0.41800018 0.863,0.382 C1.15700147,0.34599982 1.47199832,0.31600012 1.808,0.292 C2.14400168,0.26799988 2.48899823,0.25000006 2.843,0.238 C3.19700177,0.22599994 3.54799826,0.22 3.896,0.22 C4.48400294,0.22 5.05699721,0.26499955 5.615,0.355 C6.17300279,0.44500045 6.67099781,0.60399886 7.109,0.832 C7.54700219,1.06000114 7.89799868,1.37799796 8.162,1.786 C8.42600132,2.19400204 8.558,2.70999688 8.558,3.334 Z M4.058,11.146 C4.3580015,11.146 4.64899859,11.1100004 4.931,11.038 C5.21300141,10.9659996 5.46199892,10.8550008 5.678,10.705 C5.89400108,10.5549992 6.06799934,10.3660011 6.2,10.138 C6.33200066,9.90999886 6.398,9.64000156 6.398,9.328 C6.398,8.93199802 6.32000078,8.62000114 6.164,8.392 C6.00799922,8.16399886 5.80400126,7.98700063 5.552,7.861 C5.29999874,7.73499937 5.01800156,7.65400018 4.706,7.618 C4.39399844,7.58199982 4.08200156,7.564 3.77,7.564 L2.456,7.564 L2.456,11.038 C2.5160003,11.0620001 2.61199934,11.0799999 2.744,11.092 C2.87600066,11.1040001 3.01699925,11.113 3.167,11.119 C3.31700075,11.125 3.47299919,11.131 3.635,11.137 C3.79700081,11.143 3.9379994,11.146 4.058,11.146 Z M3.248,5.692 C3.41600084,5.692 3.61099889,5.68600006 3.833,5.674 C4.05500111,5.66199994 4.23799928,5.64400012 4.382,5.62 C4.83800228,5.47599928 5.23099835,5.26000144 5.561,4.972 C5.89100165,4.68399856 6.056,4.30600234 6.056,3.838 C6.056,3.52599844 5.9960006,3.26800102 5.876,3.064 C5.7559994,2.85999898 5.59700099,2.6980006 5.399,2.578 C5.20099901,2.4579994 4.97600126,2.37400024 4.724,2.326 C4.47199874,2.27799976 4.20800138,2.254 3.932,2.254 C3.61999844,2.254 3.33200132,2.25999994 3.068,2.272 C2.80399868,2.28400006 2.60000072,2.30199988 2.456,2.326 L2.456,5.692 L3.248,5.692 Z M13.004,11.038 C13.3640018,11.1100004 13.7059984,11.146 14.03,11.146 C14.5700027,11.146 14.9479989,11.047001 15.164,10.849 C15.3800011,10.650999 15.488,10.3420021 15.488,9.922 C15.488,9.53799808 15.3800011,9.24700099 15.164,9.049 C14.9479989,8.85099901 14.5880025,8.752 14.084,8.752 C13.687998,8.752 13.3280016,8.79399958 13.004,8.878 L13.004,11.038 Z M13.004,7.204 C13.2920014,7.15599976 13.5829985,7.12300009 13.877,7.105 C14.1710015,7.08699991 14.4379988,7.078 14.678,7.078 C15.2900031,7.078 15.799998,7.14699931 16.208,7.285 C16.616002,7.42300069 16.9459987,7.61799874 17.198,7.87 C17.4500013,8.12200126 17.6299995,8.41899829 17.738,8.761 C17.8460005,9.10300171 17.9,9.47199802 17.9,9.868 C17.9,10.4080027 17.8280007,10.881998 17.684,11.29 C17.5399993,11.698002 17.3060016,12.0369987 16.982,12.307 C16.6579984,12.5770013 16.2380026,12.7809993 15.722,12.919 C15.2059974,13.0570007 14.5700038,13.126 13.814,13.126 C13.1299966,13.126 12.5390025,13.1140001 12.041,13.09 C11.5429975,13.0659999 11.0840021,13.0360002 10.664,13 L10.664,4 L13.004,4 L13.004,7.204 Z M18.926,4 L21.266,4 L21.266,13 L18.926,13 L18.926,4 Z M35.576,8.878 L35.72,7.006 L35.63,7.006 L34.91,8.554 L33.218,11.344 L32.372,11.344 L30.518,8.554 L29.834,7.006 L29.726,7.006 L29.96,8.86 L29.96,13 L27.872,13 L27.872,4 L30.302,4 L32.372,7.384 L32.876,8.518 L32.948,8.518 L33.47,7.348 L35.378,4 L37.826,4 L37.826,13 L35.576,13 L35.576,8.878 Z M39.428,8.5 C39.428,6.97599238 39.7999963,5.80300411 40.544,4.981 C41.2880037,4.15899589 42.3319933,3.748 43.676,3.748 C44.3960036,3.748 45.0199974,3.86199886 45.548,4.09 C46.0760026,4.31800114 46.5139983,4.63899793 46.862,5.053 C47.2100017,5.46700207 47.4709991,5.96799706 47.645,6.556 C47.8190009,7.14400294 47.906,7.79199646 47.906,8.5 C47.906,10.0240076 47.5370037,11.1969959 46.799,12.019 C46.0609963,12.8410041 45.0200067,13.252 43.676,13.252 C42.9559964,13.252 42.3320026,13.1380011 41.804,12.91 C41.2759974,12.6819989 40.8350018,12.3610021 40.481,11.947 C40.1269982,11.5329979 39.8630009,11.0320029 39.689,10.444 C39.5149991,9.85599706 39.428,9.20800354 39.428,8.5 Z M41.84,8.5 C41.84,8.89600198 41.8759996,9.26199832 41.948,9.598 C42.0200004,9.93400168 42.1279993,10.2279987 42.272,10.48 C42.4160007,10.7320013 42.6049988,10.9269993 42.839,11.065 C43.0730012,11.2030007 43.3519984,11.272 43.676,11.272 C44.2880031,11.272 44.7439985,11.0500022 45.044,10.606 C45.3440015,10.1619978 45.494,9.4600048 45.494,8.5 C45.494,7.67199586 45.3560014,7.00300255 45.08,6.493 C44.8039986,5.98299745 44.3360033,5.728 43.676,5.728 C43.0999971,5.728 42.6500016,5.94399784 42.326,6.376 C42.0019984,6.80800216 41.84,7.51599508 41.84,8.5 Z M52.856,9.346 L51.02,13 L48.392,13 L50.75,8.878 L51.362,8.338 L50.444,7.654 L48.59,4 L51.092,4 L52.766,7.654 L53.54,7.654 L53.54,4 L55.772,4 L55.772,7.834 L56.456,7.582 L58.148,4 L60.632,4 L58.67,7.654 L57.968,8.23 L58.886,8.95 L61.064,13 L58.382,13 L56.546,9.274 L55.772,9.274 L55.772,13 L53.54,13 L53.54,9.094 L52.856,9.346 Z M69.2,12.226 C68.8399982,12.5140014 68.3510031,12.756999 67.733,12.955 C67.1149969,13.153001 66.4580035,13.252 65.762,13.252 C64.3099927,13.252 63.2480034,12.8290042 62.576,11.983 C61.9039966,11.1369958 61.568,9.97600738 61.568,8.5 C61.568,6.91599208 61.9459962,5.72800396 62.702,4.936 C63.4580038,4.14399604 64.5199932,3.748 65.888,3.748 C66.3440023,3.748 66.7879978,3.8079994 67.22,3.928 C67.6520022,4.0480006 68.0359983,4.24599862 68.372,4.522 C68.7080017,4.79800138 68.977999,5.16999766 69.182,5.638 C69.386001,6.10600234 69.488,6.68799652 69.488,7.384 C69.488,7.63600126 69.4730001,7.90599856 69.443,8.194 C69.4129999,8.48200144 69.3680003,8.78199844 69.308,9.094 L63.908,9.094 C63.9440002,9.85000378 64.1389982,10.4199981 64.493,10.804 C64.8470018,11.1880019 65.419996,11.38 66.212,11.38 C66.7040025,11.38 67.144998,11.3050008 67.535,11.155 C67.9250019,11.0049993 68.221999,10.8520008 68.426,10.696 L69.2,12.226 Z M65.852,5.62 C65.2399969,5.62 64.7870015,5.80299817 64.493,6.169 C64.1989985,6.53500183 64.0220003,7.02399694 63.962,7.636 L67.31,7.636 C67.3580002,6.98799676 67.2590012,6.49000174 67.013,6.142 C66.7669988,5.79399826 66.3800026,5.62 65.852,5.62 Z M77.624,6.07 L75.122,6.07 L75.122,13 L72.71,13 L72.71,6.07 L70.136,6.07 L70.136,4 L77.624,4 L77.624,6.07 Z M85.868,12.226 C85.5079982,12.5140014 85.0190031,12.756999 84.401,12.955 C83.7829969,13.153001 83.1260035,13.252 82.43,13.252 C80.9779927,13.252 79.9160034,12.8290042 79.244,11.983 C78.5719966,11.1369958 78.236,9.97600738 78.236,8.5 C78.236,6.91599208 78.6139962,5.72800396 79.37,4.936 C80.1260038,4.14399604 81.1879932,3.748 82.556,3.748 C83.0120023,3.748 83.4559978,3.8079994 83.888,3.928 C84.3200022,4.0480006 84.7039983,4.24599862 85.04,4.522 C85.3760017,4.79800138 85.645999,5.16999766 85.85,5.638 C86.054001,6.10600234 86.156,6.68799652 86.156,7.384 C86.156,7.63600126 86.1410001,7.90599856 86.111,8.194 C86.0809998,8.48200144 86.0360003,8.78199844 85.976,9.094 L80.576,9.094 C80.6120002,9.85000378 80.8069982,10.4199981 81.161,10.804 C81.5150018,11.1880019 82.087996,11.38 82.88,11.38 C83.3720025,11.38 83.812998,11.3050008 84.203,11.155 C84.593002,11.0049993 84.889999,10.8520008 85.094,10.696 L85.868,12.226 Z M82.52,5.62 C81.9079969,5.62 81.4550015,5.80299817 81.161,6.169 C80.8669985,6.53500183 80.6900003,7.02399694 80.63,7.636 L83.978,7.636 C84.0260002,6.98799676 83.9270012,6.49000174 83.681,6.142 C83.4349988,5.79399826 83.0480026,5.62 82.52,5.62 Z M97.55,6.07 L94.706,6.07 L94.706,13 L92.366,13 L92.366,4 L99.89,4 L99.89,13 L97.55,13 L97.55,6.07 Z M109.142,12.226 C108.781998,12.5140014 108.293003,12.756999 107.675,12.955 C107.056997,13.153001 106.400003,13.252 105.704,13.252 C104.251993,13.252 103.190003,12.8290042 102.518,11.983 C101.845997,11.1369958 101.51,9.97600738 101.51,8.5 C101.51,6.91599208 101.887996,5.72800396 102.644,4.936 C103.400004,4.14399604 104.461993,3.748 105.83,3.748 C106.286002,3.748 106.729998,3.8079994 107.162,3.928 C107.594002,4.0480006 107.977998,4.24599862 108.314,4.522 C108.650002,4.79800138 108.919999,5.16999766 109.124,5.638 C109.328001,6.10600234 109.43,6.68799652 109.43,7.384 C109.43,7.63600126 109.415,7.90599856 109.385,8.194 C109.355,8.48200144 109.31,8.78199844 109.25,9.094 L103.85,9.094 C103.886,9.85000378 104.080998,10.4199981 104.435,10.804 C104.789002,11.1880019 105.361996,11.38 106.154,11.38 C106.646002,11.38 107.086998,11.3050008 107.477,11.155 C107.867002,11.0049993 108.163999,10.8520008 108.368,10.696 L109.142,12.226 Z M105.794,5.62 C105.181997,5.62 104.729001,5.80299817 104.435,6.169 C104.140999,6.53500183 103.964,7.02399694 103.904,7.636 L107.252,7.636 C107.3,6.98799676 107.201001,6.49000174 106.955,6.142 C106.708999,5.79399826 106.322003,5.62 105.794,5.62 Z M111.086,4 L112.796,4 L113.066,5.08 L113.138,5.08 C113.450002,4.62399772 113.818998,4.28800108 114.245,4.072 C114.671002,3.85599892 115.189997,3.748 115.802,3.748 C116.930006,3.748 117.775997,4.10499643 118.34,4.819 C118.904003,5.53300357 119.186,6.68199208 119.186,8.266 C119.186,9.03400384 119.096001,9.72699691 118.916,10.345 C118.735999,10.9630031 118.469002,11.4879978 118.115,11.92 C117.760998,12.3520022 117.329003,12.6819989 116.819,12.91 C116.308997,13.1380011 115.724003,13.252 115.064,13.252 C114.691998,13.252 114.386001,13.2250003 114.146,13.171 C113.905999,13.1169997 113.666001,13.0300006 113.426,12.91 L113.426,16.6 L111.086,16.6 L111.086,4 Z M115.1,5.728 C114.643998,5.728 114.287001,5.84199886 114.029,6.07 C113.770999,6.29800114 113.570001,6.63999772 113.426,7.096 L113.426,10.84 C113.594001,10.9720007 113.776999,11.0769996 113.975,11.155 C114.173001,11.2330004 114.433998,11.272 114.758,11.272 C115.430003,11.272 115.933998,11.0350024 116.27,10.561 C116.606002,10.0869976 116.774,9.30400546 116.774,8.212 C116.774,7.41999604 116.642001,6.80800216 116.378,6.376 C116.113999,5.94399784 115.688003,5.728 115.1,5.728 Z M128.006,12.226 C127.645998,12.5140014 127.157003,12.756999 126.539,12.955 C125.920997,13.153001 125.264003,13.252 124.568,13.252 C123.115993,13.252 122.054003,12.8290042 121.382,11.983 C120.709997,11.1369958 120.374,9.97600738 120.374,8.5 C120.374,6.91599208 120.751996,5.72800396 121.508,4.936 C122.264004,4.14399604 123.325993,3.748 124.694,3.748 C125.150002,3.748 125.593998,3.8079994 126.026,3.928 C126.458002,4.0480006 126.841998,4.24599862 127.178,4.522 C127.514002,4.79800138 127.783999,5.16999766 127.988,5.638 C128.192001,6.10600234 128.294,6.68799652 128.294,7.384 C128.294,7.63600126 128.279,7.90599856 128.249,8.194 C128.219,8.48200144 128.174,8.78199844 128.114,9.094 L122.714,9.094 C122.75,9.85000378 122.944998,10.4199981 123.299,10.804 C123.653002,11.1880019 124.225996,11.38 125.018,11.38 C125.510002,11.38 125.950998,11.3050008 126.341,11.155 C126.731002,11.0049993 127.027999,10.8520008 127.232,10.696 L128.006,12.226 Z M124.658,5.62 C124.045997,5.62 123.593001,5.80299817 123.299,6.169 C123.004999,6.53500183 122.828,7.02399694 122.768,7.636 L126.116,7.636 C126.164,6.98799676 126.065001,6.49000174 125.819,6.142 C125.572999,5.79399826 125.186003,5.62 124.658,5.62 Z M136.43,6.07 L133.928,6.07 L133.928,13 L131.516,13 L131.516,6.07 L128.942,6.07 L128.942,4 L136.43,4 L136.43,6.07 Z M137.42,4.522 C137.900002,4.30599892 138.469997,4.13500063 139.13,4.009 C139.790003,3.88299937 140.479996,3.82 141.2,3.82 C141.824003,3.82 142.345998,3.89499925 142.766,4.045 C143.186002,4.19500075 143.518999,4.40799862 143.765,4.684 C144.011001,4.96000138 144.184999,5.28999808 144.287,5.674 C144.389001,6.05800192 144.44,6.4899976 144.44,6.97 C144.44,7.49800264 144.422,8.02899733 144.386,8.563 C144.35,9.09700267 144.329,9.62199742 144.323,10.138 C144.317,10.6540026 144.332,11.1549976 144.368,11.641 C144.404,12.1270024 144.493999,12.5859978 144.638,13.018 L142.73,13.018 L142.352,11.776 L142.262,11.776 C142.021999,12.1480019 141.689002,12.4689986 141.263,12.739 C140.836998,13.0090013 140.288003,13.144 139.616,13.144 C139.195998,13.144 138.818002,13.0810006 138.482,12.955 C138.145998,12.8289994 137.858001,12.6490012 137.618,12.415 C137.377999,12.1809988 137.192001,11.9050016 137.06,11.587 C136.927999,11.2689984 136.862,10.912002 136.862,10.516 C136.862,9.96399724 136.984999,9.49900189 137.231,9.121 C137.477001,8.74299811 137.830998,8.43700117 138.293,8.203 C138.755002,7.96899883 139.306997,7.80700045 139.949,7.717 C140.591003,7.62699955 141.307996,7.59999982 142.1,7.636 C142.184,6.96399664 142.136001,6.48100147 141.956,6.187 C141.775999,5.89299853 141.374003,5.746 140.75,5.746 C140.281998,5.746 139.787003,5.79399952 139.265,5.89 C138.742997,5.98600048 138.314002,6.11199922 137.978,6.268 L137.42,4.522 Z M140.39,11.218 C140.858002,11.218 141.229999,11.113001 141.506,10.903 C141.782001,10.6929989 141.985999,10.4680012 142.118,10.228 L142.118,9.058 C141.745998,9.02199982 141.389002,9.01599988 141.047,9.04 C140.704998,9.06400012 140.402001,9.11799958 140.138,9.202 C139.873999,9.28600042 139.664001,9.40599922 139.508,9.562 C139.351999,9.71800078 139.274,9.9159988 139.274,10.156 C139.274,10.4920017 139.372999,10.7529991 139.571,10.939 C139.769001,11.1250009 140.041998,11.218 140.39,11.218 Z M159.218,15.34 L157.526,15.34 L157.256,13 L146.402,13 L146.402,4 L148.742,4 L148.742,10.93 L150.992,10.93 L150.992,4 L153.332,4 L153.332,10.93 L155.582,10.93 L155.582,4 L157.922,4 L157.922,10.93 L159.218,10.93 L159.218,15.34 Z M165.914,8.896 L166.004,7.618 L165.95,7.618 L165.176,8.932 L161.972,13 L160.496,13 L160.496,4 L162.836,4 L162.836,8.284 L162.728,9.508 L162.8,9.508 L163.538,8.23 L166.778,4 L168.254,4 L168.254,13 L165.914,13 L165.914,8.896 Z M176.786,6.07 L174.284,6.07 L174.284,13 L171.872,13 L171.872,6.07 L169.298,6.07 L169.298,4 L176.786,4 L176.786,6.07 Z M180.17,11.038 C180.530002,11.1100004 180.871998,11.146 181.196,11.146 C181.772003,11.146 182.188999,11.047001 182.447,10.849 C182.705001,10.650999 182.834,10.3420021 182.834,9.922 C182.834,9.1419961 182.306005,8.752 181.25,8.752 C180.853998,8.752 180.494002,8.79399958 180.17,8.878 L180.17,11.038 Z M180.17,7.204 C180.458001,7.15599976 180.748999,7.12300009 181.043,7.105 C181.337001,7.08699991 181.603999,7.078 181.844,7.078 C182.468003,7.078 182.995998,7.14699931 183.428,7.285 C183.860002,7.42300069 184.210999,7.61799874 184.481,7.87 C184.751001,8.12200126 184.945999,8.41899829 185.066,8.761 C185.186001,9.10300171 185.246,9.47199802 185.246,9.868 C185.246,10.9600055 184.922003,11.7759973 184.274,12.316 C183.625997,12.8560027 182.528008,13.126 180.98,13.126 C180.295997,13.126 179.705002,13.1140001 179.207,13.09 C178.708998,13.0659999 178.250002,13.0360002 177.83,13 L177.83,4 L180.17,4 L180.17,7.204 Z M195.326,13.108 C195.121999,13.1800004 194.909001,13.2219999 194.687,13.234 C194.464999,13.2460001 194.264001,13.252 194.084,13.252 C192.991995,13.252 192.152003,12.8620039 191.564,12.082 C190.975997,11.3019961 190.682,10.108008 190.682,8.5 C190.682,6.96399232 191.005997,5.80000396 191.654,5.008 C192.302003,4.21599604 193.237994,3.82 194.462,3.82 C194.798002,3.82 195.085999,3.84399976 195.326,3.892 L195.326,0.4 L197.63,0.4 L197.63,3.91 C197.846001,3.87399982 198.037999,3.85000006 198.206,3.838 C198.374001,3.82599994 198.535999,3.82 198.692,3.82 C199.880006,3.82 200.773997,4.17099649 201.374,4.873 C201.974003,5.57500351 202.274,6.72399202 202.274,8.32 C202.274,9.07600378 202.193001,9.75699697 202.031,10.363 C201.868999,10.969003 201.632002,11.4879978 201.32,11.92 C201.007998,12.3520022 200.627002,12.6819989 200.177,12.91 C199.726998,13.1380011 199.208003,13.252 198.62,13.252 C198.511999,13.252 198.353001,13.2430001 198.143,13.225 C197.932999,13.2069999 197.762001,13.1740002 197.63,13.126 L197.63,16.6 L195.326,16.6 L195.326,13.108 Z M198.17,5.674 C198.049999,5.674 197.945,5.68299991 197.855,5.701 C197.765,5.71900009 197.654001,5.73999988 197.522,5.764 L197.522,11.344 C197.618,11.3680001 197.728999,11.383 197.855,11.389 C197.981001,11.395 198.115999,11.398 198.26,11.398 C198.836003,11.398 199.258999,11.1610024 199.529,10.687 C199.799001,10.2129976 199.934,9.42400552 199.934,8.32 C199.934,7.38399532 199.802001,6.70900207 199.538,6.295 C199.273999,5.88099793 198.818003,5.674 198.17,5.674 Z M194.696,11.398 C194.828001,11.398 194.950999,11.3890001 195.065,11.371 C195.179001,11.3529999 195.301999,11.3320001 195.434,11.308 L195.434,5.746 C195.205999,5.69799976 194.972001,5.674 194.732,5.674 C194.179997,5.674 193.757001,5.88699787 193.463,6.313 C193.168999,6.73900213 193.022,7.46799484 193.022,8.5 C193.022,9.43600468 193.156999,10.1529975 193.427,10.651 C193.697001,11.1490025 194.119997,11.398 194.696,11.398 Z M203.75,4.522 C204.230002,4.30599892 204.799997,4.13500063 205.46,4.009 C206.120003,3.88299937 206.809996,3.82 207.53,3.82 C208.154003,3.82 208.675998,3.89499925 209.096,4.045 C209.516002,4.19500075 209.848999,4.40799862 210.095,4.684 C210.341001,4.96000138 210.514999,5.28999808 210.617,5.674 C210.719001,6.05800192 210.77,6.4899976 210.77,6.97 C210.77,7.49800264 210.752,8.02899733 210.716,8.563 C210.68,9.09700267 210.659,9.62199742 210.653,10.138 C210.647,10.6540026 210.662,11.1549976 210.698,11.641 C210.734,12.1270024 210.823999,12.5859978 210.968,13.018 L209.06,13.018 L208.682,11.776 L208.592,11.776 C208.351999,12.1480019 208.019002,12.4689986 207.593,12.739 C207.166998,13.0090013 206.618003,13.144 205.946,13.144 C205.525998,13.144 205.148002,13.0810006 204.812,12.955 C204.475998,12.8289994 204.188001,12.6490012 203.948,12.415 C203.707999,12.1809988 203.522001,11.9050016 203.39,11.587 C203.257999,11.2689984 203.192,10.912002 203.192,10.516 C203.192,9.96399724 203.314999,9.49900189 203.561,9.121 C203.807001,8.74299811 204.160998,8.43700117 204.623,8.203 C205.085002,7.96899883 205.636997,7.80700045 206.279,7.717 C206.921003,7.62699955 207.637996,7.59999982 208.43,7.636 C208.514,6.96399664 208.466001,6.48100147 208.286,6.187 C208.105999,5.89299853 207.704003,5.746 207.08,5.746 C206.611998,5.746 206.117003,5.79399952 205.595,5.89 C205.072997,5.98600048 204.644002,6.11199922 204.308,6.268 L203.75,4.522 Z M206.72,11.218 C207.188002,11.218 207.559999,11.113001 207.836,10.903 C208.112001,10.6929989 208.315999,10.4680012 208.448,10.228 L208.448,9.058 C208.075998,9.02199982 207.719002,9.01599988 207.377,9.04 C207.034998,9.06400012 206.732001,9.11799958 206.468,9.202 C206.203999,9.28600042 205.994001,9.40599922 205.838,9.562 C205.681999,9.71800078 205.604,9.9159988 205.604,10.156 C205.604,10.4920017 205.702999,10.7529991 205.901,10.939 C206.099001,11.1250009 206.371998,11.218 206.72,11.218 Z M218.15,8.896 L218.24,7.618 L218.186,7.618 L217.412,8.932 L214.208,13 L212.732,13 L212.732,4 L215.072,4 L215.072,8.284 L214.964,9.508 L215.036,9.508 L215.774,8.23 L219.014,4 L220.49,4 L220.49,13 L218.15,13 L218.15,8.896 Z M215.648,0.328 C215.732,0.79600234 215.872999,1.12599904 216.071,1.318 C216.269001,1.51000096 216.523998,1.606 216.836,1.606 C217.172002,1.606 217.438999,1.51000096 217.637,1.318 C217.835001,1.12599904 217.97,0.80200228 218.042,0.346 L219.824,0.796 C219.679999,1.5760039 219.326003,2.15499811 218.762,2.533 C218.197997,2.91100189 217.538004,3.1 216.782,3.1 C216.409998,3.1 216.050002,3.05800042 215.702,2.974 C215.353998,2.88999958 215.042001,2.75500093 214.766,2.569 C214.489999,2.38299907 214.256001,2.14600144 214.064,1.858 C213.871999,1.56999856 213.74,1.2160021 213.668,0.796 L215.648,0.328 Z M227.438,6.07 L225.656,6.07 C225.584,6.92200426 225.5,7.7679958 225.404,8.608 C225.308,9.4480042 225.155001,10.2009967 224.945,10.867 C224.734999,11.5330033 224.450002,12.0729979 224.09,12.487 C223.729998,12.9010021 223.262003,13.108 222.686,13.108 C221.989997,13.108 221.498001,13.0180009 221.21,12.838 L221.498,10.894 C221.690001,10.9660004 221.869999,11.002 222.038,11.002 C222.278001,11.002 222.487999,10.900001 222.668,10.696 C222.848001,10.491999 223.000999,10.1260026 223.127,9.598 C223.253001,9.06999736 223.355,8.35300453 223.433,7.447 C223.511,6.54099547 223.568,5.39200696 223.604,4 L229.778,4 L229.778,13 L227.438,13 L227.438,6.07 Z M234.152,11.038 C234.512002,11.1100004 234.853998,11.146 235.178,11.146 C235.718003,11.146 236.095999,11.047001 236.312,10.849 C236.528001,10.650999 236.636,10.3420021 236.636,9.922 C236.636,9.53799808 236.528001,9.24700099 236.312,9.049 C236.095999,8.85099901 235.736003,8.752 235.232,8.752 C234.835998,8.752 234.476002,8.79399958 234.152,8.878 L234.152,11.038 Z M234.152,7.204 C234.440001,7.15599976 234.730999,7.12300009 235.025,7.105 C235.319001,7.08699991 235.585999,7.078 235.826,7.078 C236.438003,7.078 236.947998,7.14699931 237.356,7.285 C237.764002,7.42300069 238.093999,7.61799874 238.346,7.87 C238.598001,8.12200126 238.777999,8.41899829 238.886,8.761 C238.994001,9.10300171 239.048,9.47199802 239.048,9.868 C239.048,10.4080027 238.976001,10.881998 238.832,11.29 C238.687999,11.698002 238.454002,12.0369987 238.13,12.307 C237.805998,12.5770013 237.386003,12.7809993 236.87,12.919 C236.353997,13.0570007 235.718004,13.126 234.962,13.126 C234.277997,13.126 233.687002,13.1140001 233.189,13.09 C232.690998,13.0659999 232.232002,13.0360002 231.812,13 L231.812,4 L234.152,4 L234.152,7.204 Z M240.074,4 L242.414,4 L242.414,13 L240.074,13 L240.074,4 Z M249.02,4.018 C249.440002,3.98199982 249.946997,3.94600018 250.541,3.91 C251.135003,3.87399982 251.773997,3.856 252.458,3.856 C253.778007,3.856 254.716997,4.04499811 255.275,4.423 C255.833003,4.80100189 256.112,5.36799622 256.112,6.124 C256.112,6.5440021 255.992001,6.95199802 255.752,7.348 C255.511999,7.74400198 255.134003,8.0319991 254.618,8.212 L254.618,8.284 C255.266003,8.42800072 255.733999,8.68299817 256.022,9.049 C256.310001,9.41500183 256.454,9.88599712 256.454,10.462 C256.454,11.3620045 256.109003,12.0339978 255.419,12.478 C254.728997,12.9220022 253.622008,13.144 252.098,13.144 C251.593997,13.144 251.060003,13.1290001 250.496,13.099 C249.931997,13.0689999 249.440002,13.0300002 249.02,12.982 L249.02,4.018 Z M251.306,11.2 C251.474001,11.2240001 251.629999,11.2419999 251.774,11.254 C251.918001,11.2660001 252.097999,11.272 252.314,11.272 C252.962003,11.272 253.423999,11.1820009 253.7,11.002 C253.976001,10.8219991 254.114,10.5460019 254.114,10.174 C254.114,9.86199844 253.997001,9.60700099 253.763,9.409 C253.528999,9.21099901 253.112003,9.112 252.512,9.112 L251.306,9.112 L251.306,11.2 Z M252.548,7.672 C252.932002,7.672 253.246999,7.57900093 253.493,7.393 C253.739001,7.20699907 253.862,6.97000144 253.862,6.682 C253.862,6.36999844 253.757001,6.13300081 253.547,5.971 C253.336999,5.80899919 252.956003,5.728 252.404,5.728 C252.127999,5.728 251.909001,5.73399994 251.747,5.746 C251.584999,5.75800006 251.438001,5.76999994 251.306,5.782 L251.306,7.672 L252.548,7.672 Z M263.6,7.6 L266.948,7.6 C266.888,6.999997 266.690002,6.53800162 266.354,6.214 C266.017998,5.88999838 265.520003,5.728 264.86,5.728 C264.403998,5.728 264.002002,5.78199946 263.654,5.89 C263.305998,5.99800054 263.000001,6.12399928 262.736,6.268 L262.106,4.576 C262.898004,4.02399724 263.965993,3.748 265.31,3.748 C266.654007,3.748 267.655997,4.14699601 268.316,4.945 C268.976003,5.74300399 269.306,6.92799214 269.306,8.5 C269.306,10.0840079 268.934004,11.271996 268.19,12.064 C267.445996,12.856004 266.426006,13.252 265.13,13.252 C264.565997,13.252 263.996003,13.1950006 263.42,13.081 C262.843997,12.9669994 262.388002,12.808001 262.052,12.604 L262.628,10.768 C262.904001,10.9240008 263.230998,11.0469996 263.609,11.137 C263.987002,11.2270005 264.367998,11.272 264.752,11.272 C265.520004,11.272 266.065998,11.1100016 266.39,10.786 C266.714002,10.4619984 266.906,9.95800342 266.966,9.274 L263.6,9.274 L263.6,7.6 Z M277.406,6.07 L274.904,6.07 L274.904,13 L272.492,13 L272.492,6.07 L269.918,6.07 L269.918,4 L277.406,4 L277.406,6.07 Z M278.018,8.5 C278.018,6.97599238 278.389996,5.80300411 279.134,4.981 C279.878004,4.15899589 280.921993,3.748 282.266,3.748 C282.986004,3.748 283.609997,3.86199886 284.138,4.09 C284.666003,4.31800114 285.103998,4.63899793 285.452,5.053 C285.800002,5.46700207 286.060999,5.96799706 286.235,6.556 C286.409001,7.14400294 286.496,7.79199646 286.496,8.5 C286.496,10.0240076 286.127004,11.1969959 285.389,12.019 C284.650996,12.8410041 283.610007,13.252 282.266,13.252 C281.545996,13.252 280.922003,13.1380011 280.394,12.91 C279.865997,12.6819989 279.425002,12.3610021 279.071,11.947 C278.716998,11.5329979 278.453001,11.0320029 278.279,10.444 C278.104999,9.85599706 278.018,9.20800354 278.018,8.5 Z M280.43,8.5 C280.43,8.89600198 280.466,9.26199832 280.538,9.598 C280.61,9.93400168 280.717999,10.2279987 280.862,10.48 C281.006001,10.7320013 281.194999,10.9269993 281.429,11.065 C281.663001,11.2030007 281.941998,11.272 282.266,11.272 C282.878003,11.272 283.333999,11.0500022 283.634,10.606 C283.934002,10.1619978 284.084,9.4600048 284.084,8.5 C284.084,7.67199586 283.946001,7.00300255 283.67,6.493 C283.393999,5.98299745 282.926003,5.728 282.266,5.728 C281.689997,5.728 281.240002,5.94399784 280.916,6.376 C280.591998,6.80800216 280.43,7.51599508 280.43,8.5 Z M297.854,6.07 L295.01,6.07 L295.01,13 L292.67,13 L292.67,4 L300.194,4 L300.194,13 L297.854,13 L297.854,6.07 Z M301.814,8.5 C301.814,6.97599238 302.185996,5.80300411 302.93,4.981 C303.674004,4.15899589 304.717993,3.748 306.062,3.748 C306.782004,3.748 307.405997,3.86199886 307.934,4.09 C308.462003,4.31800114 308.899998,4.63899793 309.248,5.053 C309.596002,5.46700207 309.856999,5.96799706 310.031,6.556 C310.205001,7.14400294 310.292,7.79199646 310.292,8.5 C310.292,10.0240076 309.923004,11.1969959 309.185,12.019 C308.446996,12.8410041 307.406007,13.252 306.062,13.252 C305.341996,13.252 304.718003,13.1380011 304.19,12.91 C303.661997,12.6819989 303.221002,12.3610021 302.867,11.947 C302.512998,11.5329979 302.249001,11.0320029 302.075,10.444 C301.900999,9.85599706 301.814,9.20800354 301.814,8.5 Z M304.226,8.5 C304.226,8.89600198 304.262,9.26199832 304.334,9.598 C304.406,9.93400168 304.513999,10.2279987 304.658,10.48 C304.802001,10.7320013 304.990999,10.9269993 305.225,11.065 C305.459001,11.2030007 305.737998,11.272 306.062,11.272 C306.674003,11.272 307.129998,11.0500022 307.43,10.606 C307.730001,10.1619978 307.88,9.4600048 307.88,8.5 C307.88,7.67199586 307.742001,7.00300255 307.466,6.493 C307.189999,5.98299745 306.722003,5.728 306.062,5.728 C305.485997,5.728 305.036002,5.94399784 304.712,6.376 C304.387998,6.80800216 304.226,7.51599508 304.226,8.5 Z M316.808,6.07 L315.026,6.07 C314.954,6.92200426 314.87,7.7679958 314.774,8.608 C314.678,9.4480042 314.525001,10.2009967 314.315,10.867 C314.104999,11.5330033 313.820002,12.0729979 313.46,12.487 C313.099998,12.9010021 312.632003,13.108 312.056,13.108 C311.359997,13.108 310.868001,13.0180009 310.58,12.838 L310.868,10.894 C311.060001,10.9660004 311.239999,11.002 311.408,11.002 C311.648001,11.002 311.857999,10.900001 312.038,10.696 C312.218001,10.491999 312.370999,10.1260026 312.497,9.598 C312.623001,9.06999736 312.725,8.35300453 312.803,7.447 C312.881,6.54099547 312.938,5.39200696 312.974,4 L319.148,4 L319.148,13 L316.808,13 L316.808,6.07 Z M328.382,12.226 C328.021998,12.5140014 327.533003,12.756999 326.915,12.955 C326.296997,13.153001 325.640003,13.252 324.944,13.252 C323.491993,13.252 322.430003,12.8290042 321.758,11.983 C321.085997,11.1369958 320.75,9.97600738 320.75,8.5 C320.75,6.91599208 321.127996,5.72800396 321.884,4.936 C322.640004,4.14399604 323.701993,3.748 325.07,3.748 C325.526002,3.748 325.969998,3.8079994 326.402,3.928 C326.834002,4.0480006 327.217998,4.24599862 327.554,4.522 C327.890002,4.79800138 328.159999,5.16999766 328.364,5.638 C328.568001,6.10600234 328.67,6.68799652 328.67,7.384 C328.67,7.63600126 328.655,7.90599856 328.625,8.194 C328.595,8.48200144 328.55,8.78199844 328.49,9.094 L323.09,9.094 C323.126,9.85000378 323.320998,10.4199981 323.675,10.804 C324.029002,11.1880019 324.601996,11.38 325.394,11.38 C325.886002,11.38 326.326998,11.3050008 326.717,11.155 C327.107002,11.0049993 327.403999,10.8520008 327.608,10.696 L328.382,12.226 Z M325.034,5.62 C324.421997,5.62 323.969001,5.80299817 323.675,6.169 C323.380999,6.53500183 323.204,7.02399694 323.144,7.636 L326.492,7.636 C326.54,6.98799676 326.441001,6.49000174 326.195,6.142 C325.948999,5.79399826 325.562003,5.62 325.034,5.62 Z M340.298,8.896 L340.388,7.618 L340.334,7.618 L339.56,8.932 L336.356,13 L334.88,13 L334.88,4 L337.22,4 L337.22,8.284 L337.112,9.508 L337.184,9.508 L337.922,8.23 L341.162,4 L342.638,4 L342.638,13 L340.298,13 L340.298,8.896 Z M349.586,6.07 L347.804,6.07 C347.732,6.92200426 347.648,7.7679958 347.552,8.608 C347.456,9.4480042 347.303001,10.2009967 347.093,10.867 C346.882999,11.5330033 346.598002,12.0729979 346.238,12.487 C345.877998,12.9010021 345.410003,13.108 344.834,13.108 C344.137997,13.108 343.646001,13.0180009 343.358,12.838 L343.646,10.894 C343.838001,10.9660004 344.017999,11.002 344.186,11.002 C344.426001,11.002 344.635999,10.900001 344.816,10.696 C344.996001,10.491999 345.148999,10.1260026 345.275,9.598 C345.401001,9.06999736 345.503,8.35300453 345.581,7.447 C345.659,6.54099547 345.716,5.39200696 345.752,4 L351.926,4 L351.926,13 L349.586,13 L349.586,6.07 Z M359.378,8.896 L359.468,7.618 L359.414,7.618 L358.64,8.932 L355.436,13 L353.96,13 L353.96,4 L356.3,4 L356.3,8.284 L356.192,9.508 L356.264,9.508 L357.002,8.23 L360.242,4 L361.718,4 L361.718,13 L359.378,13 L359.378,8.896 Z" id="Вы-можете-перетащить" fill="#000000"></path>
                        </g>
                    </g>
                </g>
                <path d="M20.16,32.42 L20.16,30.494 L20.988,30.494 C21.1440008,30.494 21.3029992,30.491 21.465,30.485 C21.6270008,30.479 21.7859992,30.4670001 21.942,30.449 C22.0980008,30.4309999 22.2239995,30.4100001 22.32,30.386 C22.7400021,30.2899995 23.0999985,30.1190012 23.4,29.873 C23.7000015,29.6269988 23.85,29.2940021 23.85,28.874 C23.85,28.2979971 23.6670018,27.905001 23.301,27.695 C22.9349982,27.4849989 22.452003,27.38 21.852,27.38 C21.3119973,27.38 20.8080023,27.4519993 20.34,27.596 C19.8719977,27.7400007 19.5180012,27.8779993 19.278,28.01 L18.648,25.922 C18.7800007,25.8499996 18.9689988,25.7720004 19.215,25.688 C19.4610012,25.6039996 19.7429984,25.5230004 20.061,25.445 C20.3790016,25.3669996 20.7239981,25.3040002 21.096,25.256 C21.4680019,25.2079998 21.8459981,25.184 22.23,25.184 C22.7580026,25.184 23.2739975,25.2319995 23.778,25.328 C24.2820025,25.4240005 24.731998,25.5919988 25.128,25.832 C25.524002,26.0720012 25.8419988,26.392998 26.082,26.795 C26.3220012,27.197002 26.442,27.7099969 26.442,28.334 C26.442,28.9580031 26.2770017,29.5339974 25.947,30.062 C25.6169984,30.5900026 25.0860037,30.9739988 24.354,31.214 L24.354,31.304 C25.1340039,31.4600008 25.7429978,31.7959974 26.181,32.312 C26.6190022,32.8280026 26.838,33.5179957 26.838,34.382 C26.838,35.0660034 26.7000014,35.6509976 26.424,36.137 C26.1479986,36.6230024 25.7850023,37.0219984 25.335,37.334 C24.8849978,37.6460016 24.3660029,37.8769992 23.778,38.027 C23.1899971,38.1770008 22.5900031,38.252 21.978,38.252 C21.185996,38.252 20.4660032,38.1860007 19.818,38.054 C19.1699968,37.9219993 18.6720017,37.7660009 18.324,37.586 L18.954,35.444 C19.2300014,35.5760007 19.6259974,35.7109993 20.142,35.849 C20.6580026,35.9870007 21.2699965,36.056 21.978,36.056 C22.2420013,36.056 22.5089987,36.0230003 22.779,35.957 C23.0490014,35.8909997 23.2919989,35.7830007 23.508,35.633 C23.7240011,35.4829992 23.8979993,35.2880012 24.03,35.048 C24.1620007,34.8079988 24.228,34.5200017 24.228,34.184 C24.228,33.6199972 24.0180021,33.1940014 23.598,32.906 C23.1779979,32.6179986 22.4280054,32.4620001 21.348,32.438 C21.2039993,32.4259999 21.0960004,32.42 21.024,32.42 L20.16,32.42 Z M28.44,29.522 C28.9200024,29.3059989 29.4899967,29.1350006 30.15,29.009 C30.8100033,28.8829994 31.4999964,28.82 32.22,28.82 C32.8440031,28.82 33.3659979,28.8949992 33.786,29.045 C34.2060021,29.1950007 34.5389988,29.4079986 34.785,29.684 C35.0310012,29.9600014 35.2049995,30.2899981 35.307,30.674 C35.4090005,31.0580019 35.46,31.4899976 35.46,31.97 C35.46,32.4980026 35.4420002,33.0289973 35.406,33.563 C35.3699998,34.0970027 35.349,34.6219974 35.343,35.138 C35.337,35.6540026 35.3519998,36.1549976 35.388,36.641 C35.4240002,37.1270024 35.5139993,37.5859978 35.658,38.018 L33.75,38.018 L33.372,36.776 L33.282,36.776 C33.0419988,37.1480019 32.7090021,37.4689987 32.283,37.739 C31.8569979,38.0090013 31.3080034,38.144 30.636,38.144 C30.2159979,38.144 29.8380017,38.0810006 29.502,37.955 C29.1659983,37.8289994 28.8780012,37.6490012 28.638,37.415 C28.3979988,37.1809988 28.2120007,36.9050016 28.08,36.587 C27.9479993,36.2689984 27.882,35.912002 27.882,35.516 C27.882,34.9639972 28.0049988,34.4990019 28.251,34.121 C28.4970012,33.7429981 28.8509977,33.4370012 29.313,33.203 C29.7750023,32.9689988 30.3269968,32.8070005 30.969,32.717 C31.6110032,32.6269996 32.327996,32.5999998 33.12,32.636 C33.2040004,31.9639966 33.1560009,31.4810015 32.976,31.187 C32.7959991,30.8929985 32.3940031,30.746 31.77,30.746 C31.3019977,30.746 30.8070026,30.7939995 30.285,30.89 C29.7629974,30.9860005 29.3340017,31.1119992 28.998,31.268 L28.44,29.522 Z M31.41,36.218 C31.8780023,36.218 32.2499986,36.1130011 32.526,35.903 C32.8020014,35.692999 33.0059993,35.4680012 33.138,35.228 L33.138,34.058 C32.7659981,34.0219998 32.4090017,34.0159999 32.067,34.04 C31.7249983,34.0640001 31.4220013,34.1179996 31.158,34.202 C30.8939987,34.2860004 30.6840008,34.4059992 30.528,34.562 C30.3719992,34.7180008 30.294,34.9159988 30.294,35.156 C30.294,35.4920017 30.392999,35.7529991 30.591,35.939 C30.789001,36.1250009 31.0619983,36.218 31.41,36.218 Z M43.236,31.07 L39.834,31.07 L39.834,38 L37.422,38 L37.422,29 L43.236,29 L43.236,31.07 Z M44.19,29 L45.9,29 L46.17,30.08 L46.242,30.08 C46.5540016,29.6239977 46.9229979,29.2880011 47.349,29.072 C47.7750021,28.8559989 48.2939969,28.748 48.906,28.748 C50.0340056,28.748 50.8799972,29.1049964 51.444,29.819 C52.0080028,30.5330036 52.29,31.6819921 52.29,33.266 C52.29,34.0340038 52.2000009,34.7269969 52.02,35.345 C51.8399991,35.9630031 51.5730018,36.4879978 51.219,36.92 C50.8649982,37.3520022 50.4330026,37.6819989 49.923,37.91 C49.4129975,38.1380011 48.8280033,38.252 48.168,38.252 C47.7959981,38.252 47.4900012,38.2250003 47.25,38.171 C47.0099988,38.1169997 46.7700012,38.0300006 46.53,37.91 L46.53,41.6 L44.19,41.6 L44.19,29 Z M48.204,30.728 C47.7479977,30.728 47.3910013,30.8419989 47.133,31.07 C46.8749987,31.2980011 46.6740007,31.6399977 46.53,32.096 L46.53,35.84 C46.6980008,35.9720007 46.880999,36.0769996 47.079,36.155 C47.277001,36.2330004 47.5379984,36.272 47.862,36.272 C48.5340034,36.272 49.0379983,36.0350024 49.374,35.561 C49.7100017,35.0869976 49.878,34.3040055 49.878,33.212 C49.878,32.419996 49.7460013,31.8080022 49.482,31.376 C49.2179987,30.9439978 48.7920029,30.728 48.204,30.728 Z M57.186,34.058 L57.51,35.462 L57.618,35.462 L57.852,34.04 L59.22,29 L61.632,29 L58.896,37.118 C58.6679989,37.7900034 58.4490011,38.4049972 58.239,38.963 C58.028999,39.5210028 57.7980013,40.003998 57.546,40.412 C57.2939987,40.820002 57.0150015,41.1349989 56.709,41.357 C56.4029985,41.5790011 56.0400021,41.69 55.62,41.69 C54.9959969,41.69 54.4980019,41.588001 54.126,41.384 L54.558,39.512 C54.7380009,39.5840004 54.9179991,39.62 55.098,39.62 C55.3740014,39.62 55.6409987,39.5030012 55.899,39.269 C56.1570013,39.0349988 56.3519993,38.6120031 56.484,38 L52.722,29 L55.53,29 L57.186,34.058 Z M63.45,34.274 L63.45,32.636 L64.548,32.636 C64.9680021,32.636 65.3129987,32.5520008 65.583,32.384 C65.8530014,32.2159992 65.988,31.9940014 65.988,31.718 C65.988,31.3939984 65.8680012,31.1630007 65.628,31.025 C65.3879988,30.8869993 65.0220025,30.818 64.53,30.818 C64.0619977,30.818 63.6480018,30.8779994 63.288,30.998 C62.9279982,31.1180006 62.6400011,31.2439993 62.424,31.376 L61.92,29.594 C62.2800018,29.389999 62.756997,29.2130007 63.351,29.063 C63.945003,28.9129992 64.5779966,28.838 65.25,28.838 C66.2820052,28.838 67.0529975,29.0299981 67.563,29.414 C68.0730026,29.7980019 68.328,30.3559963 68.328,31.088 C68.328,31.292001 68.3010003,31.498999 68.247,31.709 C68.1929997,31.919001 68.1060006,32.119999 67.986,32.312 C67.8659994,32.504001 67.7190009,32.6749992 67.545,32.825 C67.3709991,32.9750007 67.1640012,33.0919996 66.924,33.176 L66.924,33.248 C67.5600032,33.3920007 68.0099987,33.6469982 68.274,34.013 C68.5380013,34.3790018 68.67,34.8679969 68.67,35.48 C68.67,35.8640019 68.5920008,36.2209984 68.436,36.551 C68.2799992,36.8810017 68.0430016,37.1659988 67.725,37.406 C67.4069984,37.6460012 67.0080024,37.8379993 66.528,37.982 C66.0479976,38.1260007 65.4780033,38.198 64.818,38.198 C64.1579967,38.198 63.5850024,38.1290007 63.099,37.991 C62.6129976,37.8529993 62.2080016,37.6940009 61.884,37.514 L62.388,35.696 C62.6640014,35.8520008 62.9969981,35.9779995 63.387,36.074 C63.777002,36.1700005 64.2119976,36.218 64.692,36.218 C65.7840055,36.218 66.33,35.8700035 66.33,35.174 C66.33,34.8619984 66.1890014,34.6340007 65.907,34.49 C65.6249986,34.3459993 65.1000038,34.274 64.332,34.274 L63.45,34.274 Z M73.26,34.274 L72.63,34.274 L72.63,38 L70.29,38 L70.29,29 L72.63,29 L72.63,32.834 L73.188,32.582 L75.294,29 L77.796,29 L75.618,32.42 L74.7,33.104 L75.708,33.806 L78.138,38 L75.456,38 L73.26,34.274 Z M79.038,29.522 C79.5180024,29.3059989 80.0879967,29.1350006 80.748,29.009 C81.4080033,28.8829994 82.0979964,28.82 82.818,28.82 C83.4420031,28.82 83.9639979,28.8949992 84.384,29.045 C84.8040021,29.1950007 85.1369988,29.4079986 85.383,29.684 C85.6290012,29.9600014 85.8029995,30.2899981 85.905,30.674 C86.0070005,31.0580019 86.058,31.4899976 86.058,31.97 C86.058,32.4980026 86.0400002,33.0289973 86.004,33.563 C85.9679998,34.0970027 85.947,34.6219974 85.941,35.138 C85.935,35.6540026 85.9499998,36.1549976 85.986,36.641 C86.0220002,37.1270024 86.1119993,37.5859978 86.256,38.018 L84.348,38.018 L83.97,36.776 L83.88,36.776 C83.6399988,37.1480019 83.3070021,37.4689987 82.881,37.739 C82.4549979,38.0090013 81.9060034,38.144 81.234,38.144 C80.8139979,38.144 80.4360017,38.0810006 80.1,37.955 C79.7639983,37.8289994 79.4760012,37.6490012 79.236,37.415 C78.9959988,37.1809988 78.8100007,36.9050016 78.678,36.587 C78.5459993,36.2689984 78.48,35.912002 78.48,35.516 C78.48,34.9639972 78.6029988,34.4990019 78.849,34.121 C79.0950012,33.7429981 79.4489977,33.4370012 79.911,33.203 C80.3730023,32.9689988 80.9249968,32.8070005 81.567,32.717 C82.2090032,32.6269996 82.925996,32.5999998 83.718,32.636 C83.8020004,31.9639966 83.7540009,31.4810015 83.574,31.187 C83.3939991,30.8929985 82.9920031,30.746 82.368,30.746 C81.8999977,30.746 81.4050026,30.7939995 80.883,30.89 C80.3609974,30.9860005 79.9320017,31.1119992 79.596,31.268 L79.038,29.522 Z M82.008,36.218 C82.4760023,36.218 82.8479986,36.1130011 83.124,35.903 C83.4000014,35.692999 83.6039993,35.4680012 83.736,35.228 L83.736,34.058 C83.3639981,34.0219998 83.0070017,34.0159999 82.665,34.04 C82.3229983,34.0640001 82.0200013,34.1179996 81.756,34.202 C81.4919987,34.2860004 81.2820008,34.4059992 81.126,34.562 C80.9699992,34.7180008 80.892,34.9159988 80.892,35.156 C80.892,35.4920017 80.990999,35.7529991 81.189,35.939 C81.387001,36.1250009 81.6599983,36.218 82.008,36.218 Z M96.696,38.108 C96.491999,38.1800004 96.2790011,38.2219999 96.057,38.234 C95.8349989,38.2460001 95.6340009,38.252 95.454,38.252 C94.3619945,38.252 93.5220029,37.8620039 92.934,37.082 C92.3459971,36.3019961 92.052,35.108008 92.052,33.5 C92.052,31.9639923 92.3759968,30.800004 93.024,30.008 C93.6720032,29.215996 94.6079939,28.82 95.832,28.82 C96.1680017,28.82 96.4559988,28.8439998 96.696,28.892 L96.696,25.4 L99,25.4 L99,28.91 C99.2160011,28.8739998 99.4079992,28.8500001 99.576,28.838 C99.7440008,28.8259999 99.9059992,28.82 100.062,28.82 C101.250006,28.82 102.143997,29.1709965 102.744,29.873 C103.344003,30.5750035 103.644,31.723992 103.644,33.32 C103.644,34.0760038 103.563001,34.756997 103.401,35.363 C103.238999,35.969003 103.002002,36.4879978 102.69,36.92 C102.377998,37.3520022 101.997002,37.6819989 101.547,37.91 C101.096998,38.1380011 100.578003,38.252 99.99,38.252 C99.8819995,38.252 99.7230011,38.2430001 99.513,38.225 C99.302999,38.2069999 99.1320007,38.1740002 99,38.126 L99,41.6 L96.696,41.6 L96.696,38.108 Z M99.54,30.674 C99.4199994,30.674 99.3150005,30.6829999 99.225,30.701 C99.1349996,30.7190001 99.0240007,30.7399999 98.892,30.764 L98.892,36.344 C98.9880005,36.3680001 99.0989994,36.383 99.225,36.389 C99.3510006,36.395 99.4859993,36.398 99.63,36.398 C100.206003,36.398 100.628999,36.1610024 100.899,35.687 C101.169001,35.2129976 101.304,34.4240055 101.304,33.32 C101.304,32.3839953 101.172001,31.7090021 100.908,31.295 C100.643999,30.8809979 100.188003,30.674 99.54,30.674 Z M96.066,36.398 C96.1980007,36.398 96.3209994,36.3890001 96.435,36.371 C96.5490006,36.3529999 96.6719993,36.3320001 96.804,36.308 L96.804,30.746 C96.5759989,30.6979998 96.3420012,30.674 96.102,30.674 C95.5499972,30.674 95.1270015,30.8869979 94.833,31.313 C94.5389985,31.7390021 94.392,32.4679948 94.392,33.5 C94.392,34.4360047 94.5269987,35.1529975 94.797,35.651 C95.0670014,36.1490025 95.4899971,36.398 96.066,36.398 Z M105.12,29.522 C105.600002,29.3059989 106.169997,29.1350006 106.83,29.009 C107.490003,28.8829994 108.179996,28.82 108.9,28.82 C109.524003,28.82 110.045998,28.8949992 110.466,29.045 C110.886002,29.1950007 111.218999,29.4079986 111.465,29.684 C111.711001,29.9600014 111.884999,30.2899981 111.987,30.674 C112.089001,31.0580019 112.14,31.4899976 112.14,31.97 C112.14,32.4980026 112.122,33.0289973 112.086,33.563 C112.05,34.0970027 112.029,34.6219974 112.023,35.138 C112.017,35.6540026 112.032,36.1549976 112.068,36.641 C112.104,37.1270024 112.193999,37.5859978 112.338,38.018 L110.43,38.018 L110.052,36.776 L109.962,36.776 C109.721999,37.1480019 109.389002,37.4689987 108.963,37.739 C108.536998,38.0090013 107.988003,38.144 107.316,38.144 C106.895998,38.144 106.518002,38.0810006 106.182,37.955 C105.845998,37.8289994 105.558001,37.6490012 105.318,37.415 C105.077999,37.1809988 104.892001,36.9050016 104.76,36.587 C104.627999,36.2689984 104.562,35.912002 104.562,35.516 C104.562,34.9639972 104.684999,34.4990019 104.931,34.121 C105.177001,33.7429981 105.530998,33.4370012 105.993,33.203 C106.455002,32.9689988 107.006997,32.8070005 107.649,32.717 C108.291003,32.6269996 109.007996,32.5999998 109.8,32.636 C109.884,31.9639966 109.836001,31.4810015 109.656,31.187 C109.475999,30.8929985 109.074003,30.746 108.45,30.746 C107.981998,30.746 107.487003,30.7939995 106.965,30.89 C106.442997,30.9860005 106.014002,31.1119992 105.678,31.268 L105.12,29.522 Z M108.09,36.218 C108.558002,36.218 108.929999,36.1130011 109.206,35.903 C109.482001,35.692999 109.685999,35.4680012 109.818,35.228 L109.818,34.058 C109.445998,34.0219998 109.089002,34.0159999 108.747,34.04 C108.404998,34.0640001 108.102001,34.1179996 107.838,34.202 C107.573999,34.2860004 107.364001,34.4059992 107.208,34.562 C107.051999,34.7180008 106.974,34.9159988 106.974,35.156 C106.974,35.4920017 107.072999,35.7529991 107.271,35.939 C107.469001,36.1250009 107.741998,36.218 108.09,36.218 Z M119.52,33.896 L119.61,32.618 L119.556,32.618 L118.782,33.932 L115.578,38 L114.102,38 L114.102,29 L116.442,29 L116.442,33.284 L116.334,34.508 L116.406,34.508 L117.144,33.23 L120.384,29 L121.86,29 L121.86,38 L119.52,38 L119.52,33.896 Z M117.018,25.328 C117.102,25.7960023 117.242999,26.125999 117.441,26.318 C117.639001,26.510001 117.893998,26.606 118.206,26.606 C118.542002,26.606 118.808999,26.510001 119.007,26.318 C119.205001,26.125999 119.34,25.8020023 119.412,25.346 L121.194,25.796 C121.049999,26.5760039 120.696003,27.1549981 120.132,27.533 C119.567997,27.9110019 118.908004,28.1 118.152,28.1 C117.779998,28.1 117.420002,28.0580004 117.072,27.974 C116.723998,27.8899996 116.412001,27.7550009 116.136,27.569 C115.859999,27.3829991 115.626001,27.1460014 115.434,26.858 C115.241999,26.5699986 115.11,26.2160021 115.038,25.796 L117.018,25.328 Z M128.808,31.07 L127.026,31.07 C126.954,31.9220043 126.87,32.7679958 126.774,33.608 C126.678,34.4480042 126.525001,35.2009967 126.315,35.867 C126.104999,36.5330033 125.820002,37.0729979 125.46,37.487 C125.099998,37.9010021 124.632003,38.108 124.056,38.108 C123.359997,38.108 122.868001,38.0180009 122.58,37.838 L122.868,35.894 C123.060001,35.9660004 123.239999,36.002 123.408,36.002 C123.648001,36.002 123.857999,35.900001 124.038,35.696 C124.218001,35.491999 124.370999,35.1260026 124.497,34.598 C124.623001,34.0699974 124.725,33.3530045 124.803,32.447 C124.881,31.5409955 124.938,30.392007 124.974,29 L131.148,29 L131.148,38 L128.808,38 L128.808,31.07 Z M132.75,33.5 C132.75,31.9759924 133.121996,30.8030041 133.866,29.981 C134.610004,29.1589959 135.653993,28.748 136.998,28.748 C137.718004,28.748 138.341997,28.8619989 138.87,29.09 C139.398003,29.3180011 139.835998,29.6389979 140.184,30.053 C140.532002,30.4670021 140.792999,30.9679971 140.967,31.556 C141.141001,32.1440029 141.228,32.7919965 141.228,33.5 C141.228,35.0240076 140.859004,36.1969959 140.121,37.019 C139.382996,37.8410041 138.342007,38.252 136.998,38.252 C136.277996,38.252 135.654003,38.1380011 135.126,37.91 C134.597997,37.6819989 134.157002,37.3610021 133.803,36.947 C133.448998,36.5329979 133.185001,36.0320029 133.011,35.444 C132.836999,34.8559971 132.75,34.2080035 132.75,33.5 Z M135.162,33.5 C135.162,33.896002 135.198,34.2619983 135.27,34.598 C135.342,34.9340017 135.449999,35.2279987 135.594,35.48 C135.738001,35.7320013 135.926999,35.9269993 136.161,36.065 C136.395001,36.2030007 136.673998,36.272 136.998,36.272 C137.610003,36.272 138.065998,36.0500022 138.366,35.606 C138.666001,35.1619978 138.816,34.4600048 138.816,33.5 C138.816,32.6719959 138.678001,32.0030025 138.402,31.493 C138.125999,30.9829974 137.658003,30.728 136.998,30.728 C136.421997,30.728 135.972002,30.9439978 135.648,31.376 C135.323998,31.8080022 135.162,32.5159951 135.162,33.5 Z M142.848,29.018 C143.268002,28.9819998 143.774997,28.9460002 144.369,28.91 C144.963003,28.8739998 145.601997,28.856 146.286,28.856 C147.606007,28.856 148.544997,29.0449981 149.103,29.423 C149.661003,29.8010019 149.94,30.3679962 149.94,31.124 C149.94,31.5440021 149.820001,31.951998 149.58,32.348 C149.339999,32.744002 148.962003,33.0319991 148.446,33.212 L148.446,33.284 C149.094003,33.4280007 149.561999,33.6829982 149.85,34.049 C150.138001,34.4150018 150.282,34.8859971 150.282,35.462 C150.282,36.3620045 149.937003,37.0339978 149.247,37.478 C148.556997,37.9220022 147.450008,38.144 145.926,38.144 C145.421997,38.144 144.888003,38.1290001 144.324,38.099 C143.759997,38.0689998 143.268002,38.0300002 142.848,37.982 L142.848,29.018 Z M145.134,36.2 C145.302001,36.2240001 145.457999,36.2419999 145.602,36.254 C145.746001,36.2660001 145.925999,36.272 146.142,36.272 C146.790003,36.272 147.251999,36.1820009 147.528,36.002 C147.804001,35.8219991 147.942,35.5460019 147.942,35.174 C147.942,34.8619984 147.825001,34.607001 147.591,34.409 C147.356999,34.210999 146.940003,34.112 146.34,34.112 L145.134,34.112 L145.134,36.2 Z M146.376,32.672 C146.760002,32.672 147.074999,32.5790009 147.321,32.393 C147.567001,32.2069991 147.69,31.9700014 147.69,31.682 C147.69,31.3699984 147.585001,31.1330008 147.375,30.971 C147.164999,30.8089992 146.784003,30.728 146.232,30.728 C145.955999,30.728 145.737001,30.7339999 145.575,30.746 C145.412999,30.7580001 145.266001,30.7699999 145.134,30.782 L145.134,32.672 L146.376,32.672 Z" id="Загрузка-файлов" fill="#000000" mask="url(#mask-2)"></path>
            </g>
        </g>
    </g>
</svg>