<?xml version="1.0" encoding="UTF-8"?>
<svg width="823px" height="593px" viewBox="0 0 823 593" version="1.1" xmlns="http://www.w3.org/2000/svg" xmlns:xlink="http://www.w3.org/1999/xlink">
    <!-- Generator: Sketch 41.2 (35397) - http://www.bohemiancoding.com/sketch -->
    <title>Desktop</title>
    <desc>Created with Sketch.</desc>
    <defs>
        <rect id="path-1" x="0" y="0" width="781" height="430" rx="6"></rect>
        <filter x="-50%" y="-50%" width="200%" height="200%" filterUnits="objectBoundingBox" id="filter-2">
            <feOffset dx="0" dy="10" in="SourceAlpha" result="shadowOffsetOuter1"></feOffset>
            <feGaussianBlur stdDeviation="10" in="shadowOffsetOuter1" result="shadowBlurOuter1"></feGaussianBlur>
            <feComposite in="shadowBlurOuter1" in2="SourceAlpha" operator="out" result="shadowBlurOuter1"></feComposite>
            <feColorMatrix values="0 0 0 0 0   0 0 0 0 0   0 0 0 0 0  0 0 0 0.1 0" type="matrix" in="shadowBlurOuter1" result="shadowMatrixOuter1"></feColorMatrix>
            <feOffset dx="0" dy="0" in="SourceAlpha" result="shadowOffsetOuter2"></feOffset>
            <feGaussianBlur stdDeviation="5" in="shadowOffsetOuter2" result="shadowBlurOuter2"></feGaussianBlur>
            <feComposite in="shadowBlurOuter2" in2="SourceAlpha" operator="out" result="shadowBlurOuter2"></feComposite>
            <feColorMatrix values="0 0 0 0 0   0 0 0 0 0   0 0 0 0 0  0 0 0 0.100000001 0" type="matrix" in="shadowBlurOuter2" result="shadowMatrixOuter2"></feColorMatrix>
            <feMerge>
                <feMergeNode in="shadowMatrixOuter1"></feMergeNode>
                <feMergeNode in="shadowMatrixOuter2"></feMergeNode>
            </feMerge>
        </filter>
        <mask id="mask-3" maskContentUnits="userSpaceOnUse" maskUnits="objectBoundingBox" x="0" y="0" width="781" height="430" fill="white">
            <use xlink:href="#path-1"></use>
        </mask>
        <path d="M32,64 C49.673112,64 64,49.673112 64,32 C64,14.326888 49.673112,0 32,0 C14.326888,0 0,14.326888 0,32 C0,49.673112 14.326888,64 32,64 Z M32,58 C46.3594035,58 58,46.3594035 58,32 C58,17.6405965 46.3594035,6 32,6 C17.6405965,6 6,17.6405965 6,32 C6,46.3594035 17.6405965,58 32,58 Z" id="path-4"></path>
    </defs>
    <g id="Page-3" stroke="none" stroke-width="1" fill="none" fill-rule="evenodd">
        <g id="Desktop">
            <g id="block" transform="translate(17.000000, 127.000000)">
                <g id="Rectangle-2-Copy">
                    <use fill="black" fill-opacity="1" filter="url(#filter-2)" xlink:href="#path-1"></use>
                    <use stroke="#CCCCCC" mask="url(#mask-3)" stroke-width="2" fill="#FFFFFF" fill-rule="evenodd" xlink:href="#path-1"></use>
                </g>
                <g id="Большой-лоадер" transform="translate(264.000000, 154.000000)">
                    <g id="Group" transform="translate(94.000000, 0.000000)">
                        <mask id="mask-5" fill="white">
                            <use xlink:href="#path-4"></use>
                        </mask>
                        <use id="Combined-Shape" fill="#3FC33E" xlink:href="#path-4"></use>
                        <polygon id="Path-2" fill="#D6F4C9" mask="url(#mask-5)" points="31.5 -14 31.5 32 62.0788969 -7.45236186"></polygon>
                    </g>
                    <path d="M18,84 L20.6,84 L20.6,90.22 L21.3,89.94 L24.2,84 L27.28,84 L24.02,90.14 L23.08,90.82 L24.22,91.66 L27.9,98 L24.6,98 L21.38,91.92 L20.6,91.92 L20.6,98 L18,98 L18,91.68 L17.28,91.96 L14.06,98 L10.86,98 L14.52,91.86 L15.6,91.08 L14.56,90.34 L11.14,84 L14.32,84 L17.22,89.98 L18,89.98 L18,84 Z M38.86,100.28 L36.96,100.28 L36.66,98 L29.94,98 L29.64,100.28 L27.74,100.28 L27.74,95.7 L28.92,95.7 C29.0266672,95.5533326 29.1633325,95.3033351 29.33,94.95 C29.4966675,94.5966649 29.6633325,94.1133364 29.83,93.5 C29.9966675,92.8866636 30.1399994,92.1266712 30.26,91.22 C30.3800006,90.3133288 30.44,89.2400062 30.44,88 L37.4,88 L37.4,95.7 L38.86,95.7 L38.86,100.28 Z M34.8,95.82 L34.8,90.2 L32.7,90.2 C32.6733332,90.6800024 32.626667,91.1899973 32.56,91.73 C32.493333,92.2700027 32.4100005,92.7933308 32.31,93.3 C32.2099995,93.8066692 32.093334,94.2799978 31.96,94.72 C31.826666,95.1600022 31.6800008,95.5266652 31.52,95.82 L34.8,95.82 Z M48.28,97.14 C47.879998,97.4600016 47.3366701,97.7299989 46.65,97.95 C45.9633299,98.1700011 45.2333372,98.28 44.46,98.28 C42.8466586,98.28 41.6666704,97.8100047 40.92,96.87 C40.1733296,95.9299953 39.8,94.6400082 39.8,93 C39.8,91.2399912 40.2199958,89.9200044 41.06,89.04 C41.9000042,88.1599956 43.0799924,87.72 44.6,87.72 C45.1066692,87.72 45.5999976,87.786666 46.08,87.92 C46.5600024,88.053334 46.9866648,88.2733318 47.36,88.58 C47.7333352,88.8866682 48.0333322,89.2999974 48.26,89.82 C48.4866678,90.3400026 48.6,90.9866628 48.6,91.76 C48.6,92.0400014 48.5833335,92.3399984 48.55,92.66 C48.5166665,92.9800016 48.466667,93.3133316 48.4,93.66 L42.4,93.66 C42.4400002,94.5000042 42.6566647,95.1333312 43.05,95.56 C43.4433353,95.9866688 44.0799956,96.2 44.96,96.2 C45.5066694,96.2 45.9966645,96.1166675 46.43,95.95 C46.8633355,95.7833325 47.1933322,95.6133342 47.42,95.44 L48.28,97.14 Z M44.56,89.8 C43.8799966,89.8 43.3766683,90.0033313 43.05,90.41 C42.7233317,90.8166687 42.526667,91.3599966 42.46,92.04 L46.18,92.04 C46.2333336,91.3199964 46.1233347,90.7666686 45.85,90.38 C45.5766653,89.9933314 45.1466696,89.8 44.56,89.8 Z M40.92,85.34 C40.92,84.9133312 41.0499987,84.5733346 41.31,84.32 C41.5700013,84.0666654 41.9133312,83.94 42.34,83.94 C42.7666688,83.94 43.1033321,84.0666654 43.35,84.32 C43.5966679,84.5733346 43.72,84.9133312 43.72,85.34 C43.72,85.740002 43.5966679,86.0666654 43.35,86.32 C43.1033321,86.5733346 42.7666688,86.7 42.34,86.7 C41.9133312,86.7 41.5700013,86.5733346 41.31,86.32 C41.0499987,86.0666654 40.92,85.740002 40.92,85.34 Z M45.3,85.34 C45.3,84.9133312 45.4233321,84.5733346 45.67,84.32 C45.9166679,84.0666654 46.2533312,83.94 46.68,83.94 C47.1066688,83.94 47.4499987,84.0666654 47.71,84.32 C47.9700013,84.5733346 48.1,84.9133312 48.1,85.34 C48.1,85.740002 47.9700013,86.0666654 47.71,86.32 C47.4499987,86.5733346 47.1066688,86.7 46.68,86.7 C46.2533312,86.7 45.9166679,86.5733346 45.67,86.32 C45.4233321,86.0666654 45.3,85.740002 45.3,85.34 Z M59,93.42 L59.16,91.34 L59.06,91.34 L58.26,93.06 L56.38,96.16 L55.44,96.16 L53.38,93.06 L52.62,91.34 L52.5,91.34 L52.76,93.4 L52.76,98 L50.44,98 L50.44,88 L53.14,88 L55.44,91.76 L56,93.02 L56.08,93.02 L56.66,91.72 L58.78,88 L61.5,88 L61.5,98 L59,98 L59,93.42 Z M68.34,93 C68.34,91.3066582 68.7533292,90.0033379 69.58,89.09 C70.4066708,88.1766621 71.5666592,87.72 73.06,87.72 C73.860004,87.72 74.5533304,87.8466654 75.14,88.1 C75.7266696,88.3533346 76.2133314,88.7099977 76.6,89.17 C76.9866686,89.6300023 77.2766657,90.1866634 77.47,90.84 C77.6633343,91.4933366 77.76,92.2133294 77.76,93 C77.76,94.6933418 77.3500041,95.9966621 76.53,96.91 C75.7099959,97.8233379 74.5533408,98.28 73.06,98.28 C72.259996,98.28 71.5666696,98.1533346 70.98,97.9 C70.3933304,97.6466654 69.9033353,97.2900023 69.51,96.83 C69.1166647,96.3699977 68.8233343,95.8133366 68.63,95.16 C68.4366657,94.5066634 68.34,93.7866706 68.34,93 Z M71.02,93 C71.02,93.4400022 71.0599996,93.8466648 71.14,94.22 C71.2200004,94.5933352 71.3399992,94.9199986 71.5,95.2 C71.6600008,95.4800014 71.8699987,95.6966659 72.13,95.85 C72.3900013,96.0033341 72.6999982,96.08 73.06,96.08 C73.7400034,96.08 74.246665,95.8333358 74.58,95.34 C74.913335,94.8466642 75.08,94.066672 75.08,93 C75.08,92.0799954 74.9266682,91.3366695 74.62,90.77 C74.3133318,90.2033305 73.793337,89.92 73.06,89.92 C72.4199968,89.92 71.9200018,90.1599976 71.56,90.64 C71.1999982,91.1200024 71.02,91.9066612 71.02,93 Z M86.76,90.3 L83.98,90.3 L83.98,98 L81.3,98 L81.3,90.3 L78.44,90.3 L78.44,88 L86.76,88 L86.76,90.3 Z M87.92,88.02 C88.386669,87.9799998 88.9499967,87.9400002 89.61,87.9 C90.2700033,87.8599998 90.9799962,87.84 91.74,87.84 C93.206674,87.84 94.2499969,88.0499979 94.87,88.47 C95.4900031,88.8900021 95.8,89.5199958 95.8,90.36 C95.8,90.826669 95.666668,91.2799978 95.4,91.72 C95.133332,92.1600022 94.7133362,92.479999 94.14,92.68 L94.14,92.76 C94.8600036,92.9200008 95.3799984,93.2033313 95.7,93.61 C96.0200016,94.0166687 96.18,94.5399968 96.18,95.18 C96.18,96.180005 95.7966705,96.9266642 95.03,97.42 C94.2633295,97.9133358 93.0333418,98.16 91.34,98.16 C90.7799972,98.16 90.1866698,98.1433335 89.56,98.11 C88.9333302,98.0766665 88.386669,98.0333336 87.92,97.98 L87.92,88.02 Z M90.46,96 C90.6466676,96.0266668 90.8199992,96.0466666 90.98,96.06 C91.1400008,96.0733334 91.3399988,96.08 91.58,96.08 C92.3000036,96.08 92.8133318,95.980001 93.12,95.78 C93.4266682,95.579999 93.58,95.2733354 93.58,94.86 C93.58,94.5133316 93.4500013,94.2300011 93.19,94.01 C92.9299987,93.7899989 92.46667,93.68 91.8,93.68 L90.46,93.68 L90.46,96 Z M91.84,92.08 C92.2666688,92.08 92.6166653,91.9766677 92.89,91.77 C93.1633347,91.5633323 93.3,91.3000016 93.3,90.98 C93.3,90.6333316 93.1833345,90.3700009 92.95,90.19 C92.7166655,90.0099991 92.2933364,89.92 91.68,89.92 C91.3733318,89.92 91.1300009,89.9266666 90.95,89.94 C90.7699991,89.9533334 90.6066674,89.9666666 90.46,89.98 L90.46,92.08 L91.84,92.08 Z M106.02,97.14 C105.619998,97.4600016 105.07667,97.7299989 104.39,97.95 C103.70333,98.1700011 102.973337,98.28 102.2,98.28 C100.586659,98.28 99.4066704,97.8100047 98.66,96.87 C97.9133296,95.9299953 97.54,94.6400082 97.54,93 C97.54,91.2399912 97.9599958,89.9200044 98.8,89.04 C99.6400042,88.1599956 100.819992,87.72 102.34,87.72 C102.846669,87.72 103.339998,87.786666 103.82,87.92 C104.300002,88.053334 104.726665,88.2733318 105.1,88.58 C105.473335,88.8866682 105.773332,89.2999974 106,89.82 C106.226668,90.3400026 106.34,90.9866628 106.34,91.76 C106.34,92.0400014 106.323334,92.3399984 106.29,92.66 C106.256667,92.9800016 106.206667,93.3133316 106.14,93.66 L100.14,93.66 C100.18,94.5000042 100.396665,95.1333312 100.79,95.56 C101.183335,95.9866688 101.819996,96.2 102.7,96.2 C103.246669,96.2 103.736665,96.1166675 104.17,95.95 C104.603336,95.7833325 104.933332,95.6133342 105.16,95.44 L106.02,97.14 Z M102.3,89.8 C101.619997,89.8 101.116668,90.0033313 100.79,90.41 C100.463332,90.8166687 100.266667,91.3599966 100.2,92.04 L103.92,92.04 C103.973334,91.3199964 103.863335,90.7666686 103.59,90.38 C103.316665,89.9933314 102.88667,89.8 102.3,89.8 Z M115.38,90.3 L112.6,90.3 L112.6,98 L109.92,98 L109.92,90.3 L107.06,90.3 L107.06,88 L115.38,88 L115.38,90.3 Z M116.48,88.58 C117.013336,88.3399988 117.646663,88.1500007 118.38,88.01 C119.113337,87.8699993 119.879996,87.8 120.68,87.8 C121.373337,87.8 121.953331,87.8833325 122.42,88.05 C122.886669,88.2166675 123.256665,88.4533318 123.53,88.76 C123.803335,89.0666682 123.996666,89.4333312 124.11,89.86 C124.223334,90.2866688 124.28,90.766664 124.28,91.3 C124.28,91.8866696 124.26,92.4766637 124.22,93.07 C124.18,93.6633363 124.156667,94.2466638 124.15,94.82 C124.143333,95.3933362 124.16,95.9499973 124.2,96.49 C124.24,97.0300027 124.339999,97.5399976 124.5,98.02 L122.38,98.02 L121.96,96.64 L121.86,96.64 C121.593332,97.0533354 121.223336,97.4099985 120.75,97.71 C120.276664,98.0100015 119.66667,98.16 118.92,98.16 C118.453331,98.16 118.033335,98.0900007 117.66,97.95 C117.286665,97.8099993 116.966668,97.6100013 116.7,97.35 C116.433332,97.0899987 116.226667,96.7833351 116.08,96.43 C115.933333,96.0766649 115.86,95.6800022 115.86,95.24 C115.86,94.6266636 115.996665,94.1100021 116.27,93.69 C116.543335,93.2699979 116.936664,92.9300013 117.45,92.67 C117.963336,92.4099987 118.576663,92.2300005 119.29,92.13 C120.003337,92.0299995 120.799996,91.9999998 121.68,92.04 C121.773334,91.2933296 121.720001,90.7566683 121.52,90.43 C121.319999,90.1033317 120.873337,89.94 120.18,89.94 C119.659997,89.94 119.110003,89.9933328 118.53,90.1 C117.949997,90.2066672 117.473335,90.3466658 117.1,90.52 L116.48,88.58 Z M119.78,96.02 C120.300003,96.02 120.713332,95.9033345 121.02,95.67 C121.326668,95.4366655 121.553333,95.186668 121.7,94.92 L121.7,93.62 C121.286665,93.5799998 120.890002,93.5733332 120.51,93.6 C120.129998,93.6266668 119.793335,93.6866662 119.5,93.78 C119.206665,93.8733338 118.973334,94.0066658 118.8,94.18 C118.626666,94.3533342 118.54,94.573332 118.54,94.84 C118.54,95.2133352 118.649999,95.5033323 118.87,95.71 C119.090001,95.9166677 119.393331,96.02 119.78,96.02 Z M131.04,93 C131.04,91.3066582 131.453329,90.0033379 132.28,89.09 C133.106671,88.1766621 134.266659,87.72 135.76,87.72 C136.560004,87.72 137.25333,87.8466654 137.84,88.1 C138.42667,88.3533346 138.913331,88.7099977 139.3,89.17 C139.686669,89.6300023 139.976666,90.1866634 140.17,90.84 C140.363334,91.4933366 140.46,92.2133294 140.46,93 C140.46,94.6933418 140.050004,95.9966621 139.23,96.91 C138.409996,97.8233379 137.253341,98.28 135.76,98.28 C134.959996,98.28 134.26667,98.1533346 133.68,97.9 C133.09333,97.6466654 132.603335,97.2900023 132.21,96.83 C131.816665,96.3699977 131.523334,95.8133366 131.33,95.16 C131.136666,94.5066634 131.04,93.7866706 131.04,93 Z M133.72,93 C133.72,93.4400022 133.76,93.8466648 133.84,94.22 C133.92,94.5933352 134.039999,94.9199986 134.2,95.2 C134.360001,95.4800014 134.569999,95.6966659 134.83,95.85 C135.090001,96.0033341 135.399998,96.08 135.76,96.08 C136.440003,96.08 136.946665,95.8333358 137.28,95.34 C137.613335,94.8466642 137.78,94.066672 137.78,93 C137.78,92.0799954 137.626668,91.3366695 137.32,90.77 C137.013332,90.2033305 136.493337,89.92 135.76,89.92 C135.119997,89.92 134.620002,90.1599976 134.26,90.64 C133.899998,91.1200024 133.72,91.9066612 133.72,93 Z M149.46,90.3 L146.68,90.3 L146.68,98 L144,98 L144,90.3 L141.14,90.3 L141.14,88 L149.46,88 L149.46,90.3 Z M162.76,97.38 C162.359998,97.6733348 161.87667,97.8966659 161.31,98.05 C160.743331,98.2033341 160.160003,98.28 159.56,98.28 C158.759996,98.28 158.083336,98.1533346 157.53,97.9 C156.976664,97.6466654 156.526668,97.2900023 156.18,96.83 C155.833332,96.3699977 155.583334,95.8133366 155.43,95.16 C155.276666,94.5066634 155.2,93.7866706 155.2,93 C155.2,91.3066582 155.579996,90.0033379 156.34,89.09 C157.100004,88.1766621 158.206659,87.72 159.66,87.72 C160.393337,87.72 160.983331,87.7799994 161.43,87.9 C161.876669,88.0200006 162.279998,88.1733324 162.64,88.36 L162.02,90.48 C161.713332,90.3333326 161.410002,90.2200004 161.11,90.14 C160.809999,90.0599996 160.466669,90.02 160.08,90.02 C159.359996,90.02 158.813335,90.2566643 158.44,90.73 C158.066665,91.2033357 157.88,91.9599948 157.88,93 C157.88,93.4266688 157.926666,93.8199982 158.02,94.18 C158.113334,94.5400018 158.253332,94.853332 158.44,95.12 C158.626668,95.386668 158.869999,95.5966659 159.17,95.75 C159.470002,95.9033341 159.819998,95.98 160.22,95.98 C160.660002,95.98 161.033332,95.9233339 161.34,95.81 C161.646668,95.6966661 161.919999,95.5600008 162.16,95.4 L162.76,97.38 Z M172.34,97.14 C171.939998,97.4600016 171.39667,97.7299989 170.71,97.95 C170.02333,98.1700011 169.293337,98.28 168.52,98.28 C166.906659,98.28 165.72667,97.8100047 164.98,96.87 C164.23333,95.9299953 163.86,94.6400082 163.86,93 C163.86,91.2399912 164.279996,89.9200044 165.12,89.04 C165.960004,88.1599956 167.139992,87.72 168.66,87.72 C169.166669,87.72 169.659998,87.786666 170.14,87.92 C170.620002,88.053334 171.046665,88.2733318 171.42,88.58 C171.793335,88.8866682 172.093332,89.2999974 172.32,89.82 C172.546668,90.3400026 172.66,90.9866628 172.66,91.76 C172.66,92.0400014 172.643334,92.3399984 172.61,92.66 C172.576667,92.9800016 172.526667,93.3133316 172.46,93.66 L166.46,93.66 C166.5,94.5000042 166.716665,95.1333312 167.11,95.56 C167.503335,95.9866688 168.139996,96.2 169.02,96.2 C169.566669,96.2 170.056665,96.1166675 170.49,95.95 C170.923336,95.7833325 171.253332,95.6133342 171.48,95.44 L172.34,97.14 Z M168.62,89.8 C167.939997,89.8 167.436668,90.0033313 167.11,90.41 C166.783332,90.8166687 166.586667,91.3599966 166.52,92.04 L170.24,92.04 C170.293334,91.3199964 170.183335,90.7666686 169.91,90.38 C169.636665,89.9933314 169.20667,89.8 168.62,89.8 Z M174.5,88 L176.4,88 L176.7,89.2 L176.78,89.2 C177.126668,88.6933308 177.536664,88.3200012 178.01,88.08 C178.483336,87.8399988 179.059997,87.72 179.74,87.72 C180.99334,87.72 181.93333,88.1166627 182.56,88.91 C183.18667,89.7033373 183.5,90.9799912 183.5,92.74 C183.5,93.5933376 183.400001,94.3633299 183.2,95.05 C182.999999,95.7366701 182.703335,96.3199976 182.31,96.8 C181.916665,97.2800024 181.43667,97.6466654 180.87,97.9 C180.303331,98.1533346 179.653337,98.28 178.92,98.28 C178.506665,98.28 178.166668,98.2500003 177.9,98.19 C177.633332,98.1299997 177.366668,98.033334 177.1,97.9 L177.1,102 L174.5,102 L174.5,88 Z M178.96,89.92 C178.453331,89.92 178.056668,90.0466654 177.77,90.3 C177.483332,90.5533346 177.260001,90.9333308 177.1,91.44 L177.1,95.6 C177.286668,95.7466674 177.489999,95.8633329 177.71,95.95 C177.930001,96.0366671 178.219998,96.08 178.58,96.08 C179.32667,96.08 179.886665,95.8166693 180.26,95.29 C180.633335,94.7633307 180.82,93.8933394 180.82,92.68 C180.82,91.7999956 180.673335,91.1200024 180.38,90.64 C180.086665,90.1599976 179.613337,89.92 178.96,89.92 Z M185.3,88.02 C185.766669,87.9799998 186.329997,87.9400002 186.99,87.9 C187.650003,87.8599998 188.359996,87.84 189.12,87.84 C190.586674,87.84 191.629997,88.0499979 192.25,88.47 C192.870003,88.8900021 193.18,89.5199958 193.18,90.36 C193.18,90.826669 193.046668,91.2799978 192.78,91.72 C192.513332,92.1600022 192.093336,92.479999 191.52,92.68 L191.52,92.76 C192.240004,92.9200008 192.759998,93.2033313 193.08,93.61 C193.400002,94.0166687 193.56,94.5399968 193.56,95.18 C193.56,96.180005 193.176671,96.9266642 192.41,97.42 C191.64333,97.9133358 190.413342,98.16 188.72,98.16 C188.159997,98.16 187.56667,98.1433335 186.94,98.11 C186.31333,98.0766665 185.766669,98.0333336 185.3,97.98 L185.3,88.02 Z M187.84,96 C188.026668,96.0266668 188.199999,96.0466666 188.36,96.06 C188.520001,96.0733334 188.719999,96.08 188.96,96.08 C189.680004,96.08 190.193332,95.980001 190.5,95.78 C190.806668,95.579999 190.96,95.2733354 190.96,94.86 C190.96,94.5133316 190.830001,94.2300011 190.57,94.01 C190.309999,93.7899989 189.84667,93.68 189.18,93.68 L187.84,93.68 L187.84,96 Z M189.22,92.08 C189.646669,92.08 189.996665,91.9766677 190.27,91.77 C190.543335,91.5633323 190.68,91.3000016 190.68,90.98 C190.68,90.6333316 190.563335,90.3700009 190.33,90.19 C190.096666,90.0099991 189.673336,89.92 189.06,89.92 C188.753332,89.92 188.510001,89.9266666 188.33,89.94 C188.149999,89.9533334 187.986667,89.9666666 187.84,89.98 L187.84,92.08 L189.22,92.08 Z M203.4,97.14 C202.999998,97.4600016 202.45667,97.7299989 201.77,97.95 C201.08333,98.1700011 200.353337,98.28 199.58,98.28 C197.966659,98.28 196.78667,97.8100047 196.04,96.87 C195.29333,95.9299953 194.92,94.6400082 194.92,93 C194.92,91.2399912 195.339996,89.9200044 196.18,89.04 C197.020004,88.1599956 198.199992,87.72 199.72,87.72 C200.226669,87.72 200.719998,87.786666 201.2,87.92 C201.680002,88.053334 202.106665,88.2733318 202.48,88.58 C202.853335,88.8866682 203.153332,89.2999974 203.38,89.82 C203.606668,90.3400026 203.72,90.9866628 203.72,91.76 C203.72,92.0400014 203.703334,92.3399984 203.67,92.66 C203.636666,92.9800016 203.586667,93.3133316 203.52,93.66 L197.52,93.66 C197.56,94.5000042 197.776665,95.1333312 198.17,95.56 C198.563335,95.9866688 199.199996,96.2 200.08,96.2 C200.626669,96.2 201.116665,96.1166675 201.55,95.95 C201.983336,95.7833325 202.313332,95.6133342 202.54,95.44 L203.4,97.14 Z M199.68,89.8 C198.999997,89.8 198.496668,90.0033313 198.17,90.41 C197.843332,90.8166687 197.646667,91.3599966 197.58,92.04 L201.3,92.04 C201.353334,91.3199964 201.243335,90.7666686 200.97,90.38 C200.696665,89.9933314 200.26667,89.8 199.68,89.8 Z M205.56,88 L207.46,88 L207.76,89.2 L207.84,89.2 C208.186668,88.6933308 208.596664,88.3200012 209.07,88.08 C209.543336,87.8399988 210.119997,87.72 210.8,87.72 C212.05334,87.72 212.99333,88.1166627 213.62,88.91 C214.24667,89.7033373 214.56,90.9799912 214.56,92.74 C214.56,93.5933376 214.460001,94.3633299 214.26,95.05 C214.059999,95.7366701 213.763335,96.3199976 213.37,96.8 C212.976665,97.2800024 212.496669,97.6466654 211.93,97.9 C211.363331,98.1533346 210.713337,98.28 209.98,98.28 C209.566665,98.28 209.226668,98.2500003 208.96,98.19 C208.693332,98.1299997 208.426668,98.033334 208.16,97.9 L208.16,102 L205.56,102 L205.56,88 Z M210.02,89.92 C209.513331,89.92 209.116668,90.0466654 208.83,90.3 C208.543332,90.5533346 208.320001,90.9333308 208.16,91.44 L208.16,95.6 C208.346668,95.7466674 208.549999,95.8633329 208.77,95.95 C208.990001,96.0366671 209.279998,96.08 209.64,96.08 C210.38667,96.08 210.946665,95.8166693 211.32,95.29 C211.693335,94.7633307 211.88,93.8933394 211.88,92.68 C211.88,91.7999956 211.733335,91.1200024 211.44,90.64 C211.146665,90.1599976 210.673337,89.92 210.02,89.92 Z M216.3,88.58 C216.833336,88.3399988 217.466663,88.1500007 218.2,88.01 C218.933337,87.8699993 219.699996,87.8 220.5,87.8 C221.193337,87.8 221.773331,87.8833325 222.24,88.05 C222.706669,88.2166675 223.076665,88.4533318 223.35,88.76 C223.623335,89.0666682 223.816666,89.4333312 223.93,89.86 C224.043334,90.2866688 224.1,90.766664 224.1,91.3 C224.1,91.8866696 224.08,92.4766637 224.04,93.07 C224,93.6633363 223.976667,94.2466638 223.97,94.82 C223.963333,95.3933362 223.98,95.9499973 224.02,96.49 C224.06,97.0300027 224.159999,97.5399976 224.32,98.02 L222.2,98.02 L221.78,96.64 L221.68,96.64 C221.413332,97.0533354 221.043336,97.4099985 220.57,97.71 C220.096664,98.0100015 219.48667,98.16 218.74,98.16 C218.273331,98.16 217.853335,98.0900007 217.48,97.95 C217.106665,97.8099993 216.786668,97.6100013 216.52,97.35 C216.253332,97.0899987 216.046667,96.7833351 215.9,96.43 C215.753333,96.0766649 215.68,95.6800022 215.68,95.24 C215.68,94.6266636 215.816665,94.1100021 216.09,93.69 C216.363335,93.2699979 216.756664,92.9300013 217.27,92.67 C217.783336,92.4099987 218.396663,92.2300005 219.11,92.13 C219.823337,92.0299995 220.619996,91.9999998 221.5,92.04 C221.593334,91.2933296 221.540001,90.7566683 221.34,90.43 C221.139999,90.1033317 220.693337,89.94 220,89.94 C219.479997,89.94 218.930003,89.9933328 218.35,90.1 C217.769997,90.2066672 217.293335,90.3466658 216.92,90.52 L216.3,88.58 Z M219.6,96.02 C220.120003,96.02 220.533332,95.9033345 220.84,95.67 C221.146668,95.4366655 221.373333,95.186668 221.52,94.92 L221.52,93.62 C221.106665,93.5799998 220.710002,93.5733332 220.33,93.6 C219.949998,93.6266668 219.613335,93.6866662 219.32,93.78 C219.026665,93.8733338 218.793334,94.0066658 218.62,94.18 C218.446666,94.3533342 218.36,94.573332 218.36,94.84 C218.36,95.2133352 218.469999,95.5033323 218.69,95.71 C218.910001,95.9166677 219.213331,96.02 219.6,96.02 Z M226.2,96.68 C226.2,96.213331 226.346665,95.8433347 226.64,95.57 C226.933335,95.2966653 227.319998,95.16 227.8,95.16 C228.306669,95.16 228.706665,95.2966653 229,95.57 C229.293335,95.8433347 229.44,96.213331 229.44,96.68 C229.44,97.146669 229.293335,97.5199986 229,97.8 C228.706665,98.0800014 228.306669,98.22 227.8,98.22 C227.319998,98.22 226.933335,98.0800014 226.64,97.8 C226.346665,97.5199986 226.2,97.146669 226.2,96.68 Z M231.64,96.68 C231.64,96.213331 231.786665,95.8433347 232.08,95.57 C232.373335,95.2966653 232.759998,95.16 233.24,95.16 C233.746669,95.16 234.146665,95.2966653 234.44,95.57 C234.733335,95.8433347 234.88,96.213331 234.88,96.68 C234.88,97.146669 234.733335,97.5199986 234.44,97.8 C234.146665,98.0800014 233.746669,98.22 233.24,98.22 C232.759998,98.22 232.373335,98.0800014 232.08,97.8 C231.786665,97.5199986 231.64,97.146669 231.64,96.68 Z M237.08,96.68 C237.08,96.213331 237.226665,95.8433347 237.52,95.57 C237.813335,95.2966653 238.199998,95.16 238.68,95.16 C239.186669,95.16 239.586665,95.2966653 239.88,95.57 C240.173335,95.8433347 240.32,96.213331 240.32,96.68 C240.32,97.146669 240.173335,97.5199986 239.88,97.8 C239.586665,98.0800014 239.186669,98.22 238.68,98.22 C238.199998,98.22 237.813335,98.0800014 237.52,97.8 C237.226665,97.5199986 237.08,97.146669 237.08,96.68 Z" id="Ждём-ответа-от-серве" fill="#262626"></path>
                    <path d="M0.896,114.4 C0.896,112.533324 1.29066272,111.101338 2.08,110.104 C2.86933728,109.106662 3.99465936,108.608 5.456,108.608 C6.24533728,108.608 6.92799712,108.746665 7.504,109.024 C8.08000288,109.301335 8.55733144,109.693331 8.936,110.2 C9.31466856,110.706669 9.59466576,111.314663 9.776,112.024 C9.95733424,112.733337 10.048,113.525329 10.048,114.4 C10.048,116.266676 9.65067064,117.698662 8.856,118.696 C8.06132936,119.693338 6.92800736,120.192 5.456,120.192 C4.67732944,120.192 4.00266952,120.053335 3.432,119.776 C2.86133048,119.498665 2.38666856,119.106669 2.008,118.6 C1.62933144,118.093331 1.34933424,117.485337 1.168,116.776 C0.98666576,116.066663 0.896,115.274671 0.896,114.4 Z M2.304,114.4 C2.304,115.01867 2.36533272,115.605331 2.488,116.16 C2.61066728,116.714669 2.79999872,117.202665 3.056,117.624 C3.31200128,118.045335 3.639998,118.381332 4.04,118.632 C4.440002,118.882668 4.91199728,119.008 5.456,119.008 C6.44800496,119.008 7.22666384,118.632004 7.792,117.88 C8.35733616,117.127996 8.64,115.968008 8.64,114.4 C8.64,113.791997 8.57866728,113.208003 8.456,112.648 C8.33333272,112.087997 8.14133464,111.597335 7.88,111.176 C7.61866536,110.754665 7.288002,110.418668 6.888,110.168 C6.487998,109.917332 6.01066944,109.792 5.456,109.792 C4.47466176,109.792 3.7040028,110.167996 3.144,110.92 C2.5839972,111.672004 2.304,112.831992 2.304,114.4 Z M12.912,113.424 C13.2640018,112.911997 13.6533312,112.552001 14.08,112.344 C14.5066688,112.135999 15.0399968,112.032 15.68,112.032 C16.6613382,112.032 17.4159974,112.351997 17.944,112.992 C18.4720026,113.632003 18.736,114.575994 18.736,115.824 C18.736,117.264007 18.4293364,118.351996 17.816,119.088 C17.2026636,119.824004 16.3466722,120.192 15.248,120.192 C14.0746608,120.192 13.1946696,119.786671 12.608,118.976 C12.0213304,118.165329 11.728,116.890675 11.728,115.152 C11.728,114.234662 11.7733329,113.45067 11.864,112.8 C11.9546671,112.14933 12.0879991,111.600002 12.264,111.152 C12.4400009,110.703998 12.6533321,110.346668 12.904,110.08 C13.1546679,109.813332 13.4373318,109.602667 13.752,109.448 C14.0666682,109.293333 14.4106648,109.184 14.784,109.12 C15.1573352,109.056 15.5573312,109.002667 15.984,108.96 C16.5386694,108.906666 16.9733318,108.845334 17.288,108.776 C17.6026682,108.706666 17.855999,108.581334 18.048,108.4 L18.192,109.552 C18.0853328,109.648 17.9680006,109.728 17.84,109.792 C17.7119994,109.856 17.5573342,109.909333 17.376,109.952 C17.1946658,109.994667 16.9786679,110.032 16.728,110.064 C16.4773321,110.096 16.1866683,110.122667 15.856,110.144 C15.397331,110.176 14.9946684,110.232 14.648,110.312 C14.3013316,110.392 14.0026679,110.546666 13.752,110.776 C13.5013321,111.005334 13.3040007,111.330665 13.16,111.752 C13.0159993,112.173335 12.9173336,112.730663 12.864,113.424 L12.912,113.424 Z M13.056,116.016 C13.056,116.421335 13.0986662,116.810665 13.184,117.184 C13.2693338,117.557335 13.3999991,117.885332 13.576,118.168 C13.7520009,118.450668 13.9786653,118.671999 14.256,118.832 C14.5333347,118.992001 14.8586648,119.072 15.232,119.072 C15.9680037,119.072 16.5146649,118.808003 16.872,118.28 C17.2293351,117.751997 17.408,116.970672 17.408,115.936 C17.408,115.530665 17.370667,115.157335 17.296,114.816 C17.221333,114.474665 17.1040008,114.178668 16.944,113.928 C16.7839992,113.677332 16.5813346,113.485334 16.336,113.352 C16.0906654,113.218666 15.797335,113.152 15.456,113.152 C14.6239958,113.141333 14.0160019,113.383998 13.632,113.88 C13.2479981,114.376002 13.056,115.087995 13.056,116.016 Z M22.032,118.88 C22.4266686,118.944 22.8053315,118.976 23.168,118.976 C23.8400034,118.976 24.309332,118.845335 24.576,118.584 C24.842668,118.322665 24.976,117.952002 24.976,117.472 C24.976,117.045331 24.8453346,116.693335 24.584,116.416 C24.3226654,116.138665 23.8666699,116 23.216,116 C23.0346658,116 22.8373344,116.005333 22.624,116.016 C22.4106656,116.026667 22.2133342,116.058666 22.032,116.112 L22.032,118.88 Z M22.032,115.056 C22.2880013,115.013333 22.5333322,114.984 22.768,114.968 C23.0026678,114.952 23.2266656,114.944 23.44,114.944 C23.9840027,114.944 24.4399982,115.005333 24.808,115.128 C25.1760018,115.250667 25.4719989,115.418666 25.696,115.632 C25.9200011,115.845334 26.0773329,116.098665 26.168,116.392 C26.2586671,116.685335 26.304,116.997332 26.304,117.328 C26.304,118.298672 26.0346694,119.002664 25.496,119.44 C24.9573306,119.877336 24.0853394,120.096 22.88,120.096 C22.1973299,120.096 21.4880037,120.064 20.752,120 L20.752,112 L22.032,112 L22.032,115.056 Z M27.568,112 L28.848,112 L28.848,120 L27.568,120 L27.568,112 Z M32.144,112 L32.144,114.176 C32.144,114.464001 32.1599998,114.722666 32.192,114.952 C32.2240002,115.181334 32.2879995,115.378666 32.384,115.544 C32.4800005,115.709334 32.6186658,115.837333 32.8,115.928 C32.9813342,116.018667 33.2213318,116.064 33.52,116.064 C34.0000024,116.064 34.3946651,116.010667 34.704,115.904 C35.0133349,115.797333 35.2479992,115.680001 35.408,115.552 L35.408,112 L36.688,112 L36.688,120 L35.408,120 L35.408,116.64 C35.2373325,116.746667 34.9840017,116.863999 34.648,116.992 C34.3119983,117.120001 33.8506696,117.184 33.264,117.184 C32.8693314,117.184 32.5226682,117.141334 32.224,117.056 C31.9253318,116.970666 31.6746677,116.821334 31.472,116.608 C31.2693323,116.394666 31.1173338,116.112002 31.016,115.76 C30.9146662,115.407998 30.864,114.965336 30.864,114.432 L30.864,112 L32.144,112 Z M44.048,116.464 L40.432,116.464 L40.432,120 L39.152,120 L39.152,112 L40.432,112 L40.432,115.344 L44.048,115.344 L44.048,112 L45.328,112 L45.328,120 L44.048,120 L44.048,116.464 Z M47.344,116 C47.344,114.645327 47.6453303,113.608004 48.248,112.888 C48.8506697,112.167996 49.7173277,111.808 50.848,111.808 C51.4453363,111.808 51.9653311,111.906666 52.408,112.104 C52.8506689,112.301334 53.2159986,112.583998 53.504,112.952 C53.7920014,113.320002 54.0053326,113.762664 54.144,114.28 C54.2826674,114.797336 54.352,115.370664 54.352,116 C54.352,117.354673 54.0506697,118.391996 53.448,119.112 C52.8453303,119.832004 51.9786723,120.192 50.848,120.192 C50.2506637,120.192 49.7306689,120.093334 49.288,119.896 C48.8453311,119.698666 48.4800014,119.416002 48.192,119.048 C47.9039986,118.679998 47.6906674,118.237336 47.552,117.72 C47.4133326,117.202664 47.344,116.629336 47.344,116 Z M48.672,116 C48.672,116.405335 48.7119996,116.794665 48.792,117.168 C48.8720004,117.541335 48.9973325,117.866665 49.168,118.144 C49.3386675,118.421335 49.5626653,118.645332 49.84,118.816 C50.1173347,118.986668 50.4533314,119.072 50.848,119.072 C52.2986739,119.082667 53.024,118.058677 53.024,116 C53.024,115.583998 52.9840004,115.189335 52.904,114.816 C52.8239996,114.442665 52.6986675,114.117335 52.528,113.84 C52.3573325,113.562665 52.1333347,113.341334 51.856,113.176 C51.5786653,113.010666 51.2426686,112.928 50.848,112.928 C49.3973261,112.917333 48.672,113.941323 48.672,116 Z M61.344,115.44 L64.736,115.44 C64.6826664,114.682663 64.4613353,114.074669 64.072,113.616 C63.6826647,113.157331 63.1306702,112.928 62.416,112.928 C61.9786645,112.928 61.597335,112.986666 61.272,113.104 C60.946665,113.221334 60.6826677,113.349333 60.48,113.488 L60.032,112.512 C60.3626683,112.287999 60.7413312,112.114667 61.168,111.992 C61.5946688,111.869333 62.0906638,111.808 62.656,111.808 C63.8400059,111.808 64.7039973,112.175996 65.248,112.912 C65.7920027,113.648004 66.064,114.677327 66.064,116 C66.064,117.36534 65.7493365,118.40533 65.12,119.12 C64.4906635,119.83467 63.6160056,120.192 62.496,120.192 C61.9946642,120.192 61.5333354,120.152 61.112,120.072 C60.6906646,119.992 60.3360014,119.872001 60.048,119.712 L60.416,118.624 C60.6613346,118.762667 60.9626649,118.872 61.32,118.952 C61.6773351,119.032 62.026665,119.072 62.368,119.072 C63.8613408,119.082667 64.6559995,118.224009 64.752,116.496 L61.344,116.496 L61.344,115.44 Z M73.168,113.12 L70.672,113.12 L70.672,120 L69.392,120 L69.392,113.12 L66.896,113.12 L66.896,112 L73.168,112 L73.168,113.12 Z M73.984,116 C73.984,114.645327 74.2853303,113.608004 74.888,112.888 C75.4906697,112.167996 76.3573277,111.808 77.488,111.808 C78.0853363,111.808 78.6053311,111.906666 79.048,112.104 C79.4906689,112.301334 79.8559986,112.583998 80.144,112.952 C80.4320014,113.320002 80.6453326,113.762664 80.784,114.28 C80.9226674,114.797336 80.992,115.370664 80.992,116 C80.992,117.354673 80.6906697,118.391996 80.088,119.112 C79.4853303,119.832004 78.6186723,120.192 77.488,120.192 C76.8906637,120.192 76.3706689,120.093334 75.928,119.896 C75.4853311,119.698666 75.1200014,119.416002 74.832,119.048 C74.5439986,118.679998 74.3306674,118.237336 74.192,117.72 C74.0533326,117.202664 73.984,116.629336 73.984,116 Z M75.312,116 C75.312,116.405335 75.3519996,116.794665 75.432,117.168 C75.5120004,117.541335 75.6373325,117.866665 75.808,118.144 C75.9786675,118.421335 76.2026653,118.645332 76.48,118.816 C76.7573347,118.986668 77.0933314,119.072 77.488,119.072 C78.9386739,119.082667 79.664,118.058677 79.664,116 C79.664,115.583998 79.6240004,115.189335 79.544,114.816 C79.4639996,114.442665 79.3386675,114.117335 79.168,113.84 C78.9973325,113.562665 78.7733347,113.341334 78.496,113.176 C78.2186653,113.010666 77.8826686,112.928 77.488,112.928 C76.0373261,112.917333 75.312,113.941323 75.312,116 Z M88.048,116.432 L88.048,115.392 L89.168,115.392 C89.360001,115.392 89.5493324,115.36 89.736,115.296 C89.9226676,115.232 90.0906659,115.144001 90.24,115.032 C90.3893341,114.919999 90.5093329,114.786667 90.6,114.632 C90.6906671,114.477333 90.736,114.314668 90.736,114.144 C90.736,113.727998 90.5920014,113.434668 90.304,113.264 C90.0159986,113.093332 89.5840029,113.008 89.008,113.008 C88.5919979,113.008 88.2106684,113.071999 87.864,113.2 C87.5173316,113.328001 87.248001,113.450666 87.056,113.568 L86.688,112.576 C87.0080016,112.394666 87.3839978,112.234667 87.816,112.096 C88.2480022,111.957333 88.7626637,111.888 89.36,111.888 C91.1306755,111.888 92.016,112.543993 92.016,113.856 C92.016,114.229335 91.8960012,114.594665 91.656,114.952 C91.4159988,115.309335 91.0720022,115.562666 90.624,115.712 L90.624,115.776 C91.2533365,115.893334 91.6933321,116.117332 91.944,116.448 C92.1946679,116.778668 92.32,117.215997 92.32,117.76 C92.32,118.101335 92.2506674,118.415999 92.112,118.704 C91.9733326,118.992001 91.7653347,119.242666 91.488,119.456 C91.2106653,119.669334 90.8613354,119.837333 90.44,119.96 C90.0186646,120.082667 89.5306694,120.144 88.976,120.144 C88.4319973,120.144 87.9813351,120.096 87.624,120 C87.2666649,119.904 86.9440014,119.786667 86.656,119.648 L87.024,118.592 C87.2693346,118.730667 87.5653316,118.837333 87.912,118.912 C88.2586684,118.986667 88.6346646,119.024 89.04,119.024 C89.6906699,119.024 90.186665,118.912001 90.528,118.688 C90.869335,118.463999 91.04,118.122669 91.04,117.664 C91.04,117.279998 90.8800016,116.978668 90.56,116.76 C90.2399984,116.541332 89.7120037,116.432 88.976,116.432 L88.048,116.432 Z M94.208,112.592 C94.6133354,112.346665 95.0853306,112.165334 95.624,112.048 C96.1626694,111.930666 96.7253304,111.872 97.312,111.872 C97.8666694,111.872 98.3119983,111.946666 98.648,112.096 C98.9840017,112.245334 99.2399991,112.439999 99.416,112.68 C99.5920009,112.920001 99.709333,113.183999 99.768,113.472 C99.826667,113.760001 99.856,114.047999 99.856,114.336 C99.856,114.976003 99.8400002,115.599997 99.808,116.208 C99.7759998,116.816003 99.76,117.391997 99.76,117.936 C99.76,118.330669 99.7759998,118.703998 99.808,119.056 C99.8400002,119.408002 99.8986662,119.733332 99.984,120.032 L99.04,120.032 L98.704,118.912 L98.624,118.912 C98.5279995,119.061334 98.4080007,119.207999 98.264,119.352 C98.1199993,119.496001 97.9466677,119.623999 97.744,119.736 C97.5413323,119.848001 97.306668,119.941333 97.04,120.016 C96.773332,120.090667 96.469335,120.128 96.128,120.128 C95.786665,120.128 95.4693348,120.074667 95.176,119.968 C94.8826652,119.861333 94.6293344,119.709334 94.416,119.512 C94.2026656,119.314666 94.0346673,119.077335 93.912,118.8 C93.7893327,118.522665 93.728,118.208002 93.728,117.856 C93.728,117.386664 93.823999,116.994668 94.016,116.68 C94.208001,116.365332 94.4773316,116.114668 94.824,115.928 C95.1706684,115.741332 95.5866642,115.608 96.072,115.528 C96.5573358,115.448 97.0933304,115.408 97.68,115.408 L98.12,115.408 C98.2640007,115.408 98.4106659,115.418667 98.56,115.44 C98.5920002,115.119998 98.608,114.832001 98.608,114.576 C98.608,113.98933 98.4906678,113.578668 98.256,113.344 C98.0213322,113.109332 97.5946698,112.992 96.976,112.992 C96.7946658,112.992 96.600001,113.005333 96.392,113.032 C96.183999,113.058667 95.9706678,113.096 95.752,113.144 C95.5333322,113.192 95.3253343,113.250666 95.128,113.32 C94.9306657,113.389334 94.7573341,113.466666 94.608,113.552 L94.208,112.592 Z M96.48,119.008 C96.7786682,119.008 97.0453322,118.968 97.28,118.888 C97.5146678,118.808 97.7173325,118.706667 97.888,118.584 C98.0586675,118.461333 98.1999994,118.325334 98.312,118.176 C98.4240006,118.026666 98.5066664,117.882667 98.56,117.744 L98.56,116.416 C98.4106659,116.405333 98.2586674,116.397333 98.104,116.392 C97.9493326,116.386667 97.7973341,116.384 97.648,116.384 C97.3173317,116.384 96.9946682,116.402666 96.68,116.44 C96.3653318,116.477334 96.0880012,116.546666 95.848,116.648 C95.6079988,116.749334 95.4160007,116.887999 95.272,117.064 C95.1279993,117.240001 95.056,117.461332 95.056,117.728 C95.056,118.101335 95.189332,118.407999 95.456,118.648 C95.722668,118.888001 96.0639979,119.008 96.48,119.008 Z M107.168,116.464 L103.552,116.464 L103.552,120 L102.272,120 L102.272,112 L103.552,112 L103.552,115.344 L107.168,115.344 L107.168,112 L108.448,112 L108.448,120 L107.168,120 L107.168,116.464 Z M115.904,115.264 L115.952,114.272 L115.904,114.272 L115.248,115.296 L111.648,120 L110.912,120 L110.912,112 L112.192,112 L112.192,116.88 L112.144,117.824 L112.208,117.824 L112.832,116.832 L116.432,112 L117.184,112 L117.184,120 L115.904,120 L115.904,115.264 Z M126.256,115.248 L126.352,113.728 L126.272,113.728 L125.696,114.96 L123.76,118.096 L123.312,118.096 L121.296,114.96 L120.768,113.728 L120.704,113.728 L120.832,115.232 L120.832,120 L119.648,120 L119.648,112 L120.912,112 L123.152,115.584 L123.616,116.512 L123.648,116.512 L124.128,115.552 L126.224,112 L127.504,112 L127.504,120 L126.256,120 L126.256,115.248 Z M129.84,112.592 C130.245335,112.346665 130.717331,112.165334 131.256,112.048 C131.794669,111.930666 132.35733,111.872 132.944,111.872 C133.498669,111.872 133.943998,111.946666 134.28,112.096 C134.616002,112.245334 134.871999,112.439999 135.048,112.68 C135.224001,112.920001 135.341333,113.183999 135.4,113.472 C135.458667,113.760001 135.488,114.047999 135.488,114.336 C135.488,114.976003 135.472,115.599997 135.44,116.208 C135.408,116.816003 135.392,117.391997 135.392,117.936 C135.392,118.330669 135.408,118.703998 135.44,119.056 C135.472,119.408002 135.530666,119.733332 135.616,120.032 L134.672,120.032 L134.336,118.912 L134.256,118.912 C134.16,119.061334 134.040001,119.207999 133.896,119.352 C133.751999,119.496001 133.578668,119.623999 133.376,119.736 C133.173332,119.848001 132.938668,119.941333 132.672,120.016 C132.405332,120.090667 132.101335,120.128 131.76,120.128 C131.418665,120.128 131.101335,120.074667 130.808,119.968 C130.514665,119.861333 130.261334,119.709334 130.048,119.512 C129.834666,119.314666 129.666667,119.077335 129.544,118.8 C129.421333,118.522665 129.36,118.208002 129.36,117.856 C129.36,117.386664 129.455999,116.994668 129.648,116.68 C129.840001,116.365332 130.109332,116.114668 130.456,115.928 C130.802668,115.741332 131.218664,115.608 131.704,115.528 C132.189336,115.448 132.72533,115.408 133.312,115.408 L133.752,115.408 C133.896001,115.408 134.042666,115.418667 134.192,115.44 C134.224,115.119998 134.24,114.832001 134.24,114.576 C134.24,113.98933 134.122668,113.578668 133.888,113.344 C133.653332,113.109332 133.22667,112.992 132.608,112.992 C132.426666,112.992 132.232001,113.005333 132.024,113.032 C131.815999,113.058667 131.602668,113.096 131.384,113.144 C131.165332,113.192 130.957334,113.250666 130.76,113.32 C130.562666,113.389334 130.389334,113.466666 130.24,113.552 L129.84,112.592 Z M132.112,119.008 C132.410668,119.008 132.677332,118.968 132.912,118.888 C133.146668,118.808 133.349332,118.706667 133.52,118.584 C133.690668,118.461333 133.831999,118.325334 133.944,118.176 C134.056001,118.026666 134.138666,117.882667 134.192,117.744 L134.192,116.416 C134.042666,116.405333 133.890667,116.397333 133.736,116.392 C133.581333,116.386667 133.429334,116.384 133.28,116.384 C132.949332,116.384 132.626668,116.402666 132.312,116.44 C131.997332,116.477334 131.720001,116.546666 131.48,116.648 C131.239999,116.749334 131.048001,116.887999 130.904,117.064 C130.759999,117.240001 130.688,117.461332 130.688,117.728 C130.688,118.101335 130.821332,118.407999 131.088,118.648 C131.354668,118.888001 131.695998,119.008 132.112,119.008 Z M143.744,119.36 C143.423998,119.616001 143.021336,119.818666 142.536,119.968 C142.050664,120.117334 141.536003,120.192 140.992,120.192 C140.383997,120.192 139.856002,120.093334 139.408,119.896 C138.959998,119.698666 138.592001,119.416002 138.304,119.048 C138.015999,118.679998 137.802667,118.240003 137.664,117.728 C137.525333,117.215997 137.456,116.640003 137.456,116 C137.456,114.63466 137.759997,113.59467 138.368,112.88 C138.976003,112.16533 139.845328,111.808 140.976,111.808 C141.338668,111.808 141.701332,111.848 142.064,111.928 C142.426668,112.008 142.751999,112.159999 143.04,112.384 C143.328001,112.608001 143.562666,112.925331 143.744,113.336 C143.925334,113.746669 144.016,114.287997 144.016,114.96 C144.016,115.312002 143.984,115.701331 143.92,116.128 L138.784,116.128 C138.784,116.597336 138.832,117.013332 138.928,117.376 C139.024,117.738668 139.173332,118.045332 139.376,118.296 C139.578668,118.546668 139.842665,118.738666 140.168,118.872 C140.493335,119.005334 140.890664,119.072 141.36,119.072 C141.722668,119.072 142.085332,119.008001 142.448,118.88 C142.810668,118.751999 143.082666,118.602668 143.264,118.432 L143.744,119.36 Z M140.992,112.928 C140.362664,112.928 139.858669,113.093332 139.48,113.424 C139.101331,113.754668 138.874667,114.319996 138.8,115.12 L142.768,115.12 C142.768,114.309329 142.613335,113.741335 142.304,113.416 C141.994665,113.090665 141.557336,112.928 140.992,112.928 Z M151.12,113.12 L148.624,113.12 L148.624,120 L147.344,120 L147.344,113.12 L144.848,113.12 L144.848,112 L151.12,112 L151.12,113.12 Z M159.168,119.072 C159.530668,119.072 159.866665,119.018667 160.176,118.912 C160.485335,118.805333 160.751999,118.648001 160.976,118.44 C161.200001,118.231999 161.375999,117.984001 161.504,117.696 C161.632001,117.407999 161.696,117.093335 161.696,116.752 C161.696,116.00533 161.474669,115.450668 161.032,115.088 C160.589331,114.725332 159.978671,114.544 159.2,114.544 L158.016,114.544 L158.016,114.08 L160.32,110.528 L161.056,109.824 L160.016,109.984 L156.848,109.984 L156.848,108.8 L162.56,108.8 L162.56,109.264 L160.016,113.088 L159.456,113.552 L159.456,113.584 L160,113.472 C160.426669,113.482667 160.821332,113.559999 161.184,113.704 C161.546668,113.848001 161.861332,114.055999 162.128,114.328 C162.394668,114.600001 162.602666,114.925331 162.752,115.304 C162.901334,115.682669 162.976,116.111998 162.976,116.592 C162.976,117.168003 162.874668,117.679998 162.672,118.128 C162.469332,118.576002 162.194668,118.951998 161.848,119.256 C161.501332,119.560002 161.093336,119.791999 160.624,119.952 C160.154664,120.112001 159.658669,120.192 159.136,120.192 C158.655998,120.192 158.224002,120.154667 157.84,120.08 C157.455998,120.005333 157.120001,119.909334 156.832,119.792 L157.168,118.656 C157.413335,118.773334 157.703998,118.872 158.04,118.952 C158.376002,119.032 158.751998,119.072 159.168,119.072 Z M164.832,114.4 C164.832,112.47999 165.143997,111.034672 165.768,110.064 C166.392003,109.093328 167.301327,108.608 168.496,108.608 C169.786673,108.608 170.722664,109.085329 171.304,110.04 C171.885336,110.994671 172.176,112.44799 172.176,114.4 C172.176,116.32001 171.864003,117.765328 171.24,118.736 C170.615997,119.706672 169.701339,120.192 168.496,120.192 C167.22666,120.192 166.29867,119.685338 165.712,118.672 C165.12533,117.658662 164.832,116.234676 164.832,114.4 Z M166.16,114.4 C166.16,115.093337 166.205333,115.72533 166.296,116.296 C166.386667,116.86667 166.527999,117.357331 166.72,117.768 C166.912001,118.178669 167.154665,118.498666 167.448,118.728 C167.741335,118.957334 168.090665,119.072 168.496,119.072 C169.306671,119.072 169.901331,118.696004 170.28,117.944 C170.658669,117.191996 170.848,116.010675 170.848,114.4 C170.848,113.71733 170.808,113.088003 170.728,112.512 C170.648,111.935997 170.514668,111.440002 170.328,111.024 C170.141332,110.607998 169.898668,110.288001 169.6,110.064 C169.301332,109.839999 168.933336,109.728 168.496,109.728 C167.695996,109.728 167.106669,110.106663 166.728,110.864 C166.349331,111.621337 166.16,112.799992 166.16,114.4 Z M174.752,114.8 L181.536,114.8 L181.536,115.984 L174.752,115.984 L174.752,114.8 Z M191.808,116.56 L189.92,116.56 L189.92,120 L188.672,120 L188.672,116.56 L183.744,116.56 L183.744,116.032 L189.056,108.624 L189.92,108.624 L189.92,115.44 L191.808,115.44 L191.808,116.56 Z M188.672,111.952 L188.832,110.64 L188.784,110.64 L188.224,111.728 L185.968,114.784 L185.2,115.568 L186.32,115.44 L188.672,115.44 L188.672,111.952 Z M192.832,114.4 C192.832,112.47999 193.143997,111.034672 193.768,110.064 C194.392003,109.093328 195.301327,108.608 196.496,108.608 C197.786673,108.608 198.722664,109.085329 199.304,110.04 C199.885336,110.994671 200.176,112.44799 200.176,114.4 C200.176,116.32001 199.864003,117.765328 199.24,118.736 C198.615997,119.706672 197.701339,120.192 196.496,120.192 C195.22666,120.192 194.29867,119.685338 193.712,118.672 C193.12533,117.658662 192.832,116.234676 192.832,114.4 Z M194.16,114.4 C194.16,115.093337 194.205333,115.72533 194.296,116.296 C194.386667,116.86667 194.527999,117.357331 194.72,117.768 C194.912001,118.178669 195.154665,118.498666 195.448,118.728 C195.741335,118.957334 196.090665,119.072 196.496,119.072 C197.306671,119.072 197.901331,118.696004 198.28,117.944 C198.658669,117.191996 198.848,116.010675 198.848,114.4 C198.848,113.71733 198.808,113.088003 198.728,112.512 C198.648,111.935997 198.514668,111.440002 198.328,111.024 C198.141332,110.607998 197.898668,110.288001 197.6,110.064 C197.301332,109.839999 196.933336,109.728 196.496,109.728 C195.695996,109.728 195.106669,110.106663 194.728,110.864 C194.349331,111.621337 194.16,112.799992 194.16,114.4 Z M211.824,119.472 C211.503998,119.706668 211.125336,119.885333 210.688,120.008 C210.250664,120.130667 209.792002,120.192 209.312,120.192 C208.69333,120.192 208.170669,120.093334 207.744,119.896 C207.317331,119.698666 206.968001,119.416002 206.696,119.048 C206.423999,118.679998 206.226667,118.237336 206.104,117.72 C205.981333,117.202664 205.92,116.629336 205.92,116 C205.92,114.645327 206.218664,113.608004 206.816,112.888 C207.413336,112.167996 208.271994,111.808 209.392,111.808 C209.904003,111.808 210.338665,111.848 210.696,111.928 C211.053335,112.008 211.375999,112.122666 211.664,112.272 L211.296,113.376 C211.050665,113.237333 210.778668,113.128 210.48,113.048 C210.181332,112.968 209.861335,112.928 209.52,112.928 C208.005326,112.928 207.248,113.95199 207.248,116 C207.248,116.405335 207.288,116.791998 207.368,117.16 C207.448,117.528002 207.581332,117.853332 207.768,118.136 C207.954668,118.418668 208.199998,118.645332 208.504,118.816 C208.808002,118.986668 209.183998,119.072 209.632,119.072 C210.016002,119.072 210.359998,119.013334 210.664,118.896 C210.968002,118.778666 211.215999,118.645334 211.408,118.496 L211.824,119.472 Z M219.424,119.36 C219.103998,119.616001 218.701336,119.818666 218.216,119.968 C217.730664,120.117334 217.216003,120.192 216.672,120.192 C216.063997,120.192 215.536002,120.093334 215.088,119.896 C214.639998,119.698666 214.272001,119.416002 213.984,119.048 C213.695999,118.679998 213.482667,118.240003 213.344,117.728 C213.205333,117.215997 213.136,116.640003 213.136,116 C213.136,114.63466 213.439997,113.59467 214.048,112.88 C214.656003,112.16533 215.525328,111.808 216.656,111.808 C217.018668,111.808 217.381332,111.848 217.744,111.928 C218.106668,112.008 218.431999,112.159999 218.72,112.384 C219.008001,112.608001 219.242666,112.925331 219.424,113.336 C219.605334,113.746669 219.696,114.287997 219.696,114.96 C219.696,115.312002 219.664,115.701331 219.6,116.128 L214.464,116.128 C214.464,116.597336 214.512,117.013332 214.608,117.376 C214.704,117.738668 214.853332,118.045332 215.056,118.296 C215.258668,118.546668 215.522665,118.738666 215.848,118.872 C216.173335,119.005334 216.570664,119.072 217.04,119.072 C217.402668,119.072 217.765332,119.008001 218.128,118.88 C218.490668,118.751999 218.762666,118.602668 218.944,118.432 L219.424,119.36 Z M216.672,112.928 C216.042664,112.928 215.538669,113.093332 215.16,113.424 C214.781331,113.754668 214.554667,114.319996 214.48,115.12 L218.448,115.12 C218.448,114.309329 218.293335,113.741335 217.984,113.416 C217.674665,113.090665 217.237336,112.928 216.672,112.928 Z M223.728,116.4 L222.992,116.4 L222.992,120 L221.712,120 L221.712,112 L222.992,112 L222.992,115.616 L223.68,115.392 L226.24,112 L227.632,112 L225.152,115.216 L224.48,115.744 L225.312,116.384 L227.984,120 L226.4,120 L223.728,116.4 Z M231.712,117.184 L232.16,118.72 L232.24,118.72 L232.592,117.168 L234.144,112 L235.44,112 L233.072,119.184 C232.890666,119.706669 232.712001,120.213331 232.536,120.704 C232.359999,121.194669 232.165334,121.631998 231.952,122.016 C231.738666,122.400002 231.498668,122.706666 231.232,122.936 C230.965332,123.165334 230.656002,123.28 230.304,123.28 C229.919998,123.28 229.605335,123.226667 229.36,123.12 L229.584,122.016 C229.722667,122.069334 229.855999,122.096 229.984,122.096 C230.282668,122.096 230.570665,121.938668 230.848,121.624 C231.125335,121.309332 231.354666,120.768004 231.536,120 L228.32,112 L229.792,112 L231.712,117.184 Z M241.712,116.464 L238.096,116.464 L238.096,120 L236.816,120 L236.816,112 L238.096,112 L238.096,115.344 L241.712,115.344 L241.712,112 L242.992,112 L242.992,120 L241.712,120 L241.712,116.464 Z M252.528,122.032 L251.664,122.032 L251.424,120 L245.408,120 L245.168,122.032 L244.304,122.032 L244.304,118.88 L245.248,118.88 C245.333334,118.762666 245.445333,118.552002 245.584,118.248 C245.722667,117.943998 245.858666,117.517336 245.992,116.968 C246.125334,116.418664 246.242666,115.736004 246.344,114.92 C246.445334,114.103996 246.506667,113.130672 246.528,112 L251.36,112 L251.36,118.88 L252.528,118.88 L252.528,122.032 Z M250.08,118.88 L250.08,113.12 L247.68,113.12 C247.658667,113.568002 247.621334,114.055997 247.568,114.584 C247.514666,115.112003 247.442667,115.639997 247.352,116.168 C247.261333,116.696003 247.146667,117.194664 247.008,117.664 C246.869333,118.133336 246.709334,118.538665 246.528,118.88 L250.08,118.88 Z" id="Обычно-это-занимает-" fill="#000000"></path>
                </g>
            </g>
        </g>
    </g>
</svg>