<?xml version="1.0" encoding="UTF-8"?>
<svg width="54px" height="64px" viewBox="0 0 54 64" version="1.1" xmlns="http://www.w3.org/2000/svg" xmlns:xlink="http://www.w3.org/1999/xlink">
    <!-- Generator: Sketch 41.2 (35397) - http://www.bohemiancoding.com/sketch -->
    <title>noun_627189_cc</title>
    <desc>Created with Sketch.</desc>
    <defs></defs>
    <g id="Page-1" stroke="none" stroke-width="1" fill="none" fill-rule="evenodd">
        <g id="noun_627189_cc" fill="#000000">
            <g id="Group">
                <path d="M31.484,27.751 C30.582,27.751 29.816,28.093 29.188,28.778 C28.56,29.463 28.246,30.283 28.246,31.237 C28.246,32.192 28.562,33.011 29.195,33.696 C29.829,34.381 30.591,34.723 31.484,34.723 C32.378,34.723 33.137,34.376 33.766,33.681 C34.394,32.987 34.708,32.172 34.708,31.236 C34.708,30.301 34.396,29.486 33.772,28.791 C33.15,28.098 32.387,27.751 31.484,27.751 Z" id="Shape"></path>
                <path d="M4.63,42.547 L51.874,42.547 C52.896,42.547 53.726,41.718 53.726,40.695 L53.726,22.535 C53.726,21.512 52.897,20.684 51.874,20.684 L42.44,20.684 L42.367,2.021 C42.365,1.24 41.731,0.608 40.95,0.608 L1.691,0.608 C0.908,0.608 0.274,1.243 0.274,2.025 L0.274,55.313 C0.274,59.749 3.882,63.357 8.318,63.358 L45.68,63.39 C50.117,63.39 53.725,59.781 53.725,55.312 C53.725,54.529 53.091,53.895 52.308,53.895 L14.946,53.895 C14.163,53.895 13.529,54.53 13.529,55.312 C13.529,58.185 11.192,60.522 8.319,60.522 C5.446,60.522 3.108,58.185 3.108,55.312 L3.108,41.748 C3.442,42.23 3.999,42.547 4.63,42.547 Z M15.335,32.825 C15.335,33.799 14.989,34.628 14.3,35.313 C13.611,35.998 12.779,36.34 11.806,36.34 C11.031,36.34 10.336,36.113 9.722,35.66 C9.108,35.207 8.688,34.62 8.461,33.902 C8.395,33.694 8.411,33.494 8.51,33.3 C8.61,33.106 8.761,32.979 8.964,32.917 C9.167,32.855 9.365,32.872 9.559,32.967 C9.753,33.061 9.883,33.213 9.95,33.42 C10.082,33.817 10.318,34.141 10.658,34.391 C10.999,34.641 11.409,34.766 11.891,34.766 C12.372,34.766 12.805,34.575 13.188,34.192 C13.571,33.81 13.762,33.354 13.762,32.824 L13.762,27.198 C13.762,26.981 13.84,26.796 13.995,26.645 C14.151,26.494 14.338,26.418 14.555,26.418 C14.773,26.418 14.957,26.494 15.108,26.645 C15.259,26.796 15.336,26.98 15.336,27.198 L15.336,32.825 L15.335,32.825 Z M23.726,35.482 C22.951,36.044 22.058,36.325 21.047,36.325 C19.809,36.316 18.6,35.843 17.418,34.908 C17.267,34.785 17.18,34.62 17.156,34.412 C17.132,34.204 17.181,34.025 17.304,33.873 C17.427,33.722 17.592,33.635 17.8,33.611 C18.008,33.588 18.188,33.642 18.339,33.774 C19.245,34.511 20.148,34.875 21.046,34.865 C21.754,34.865 22.328,34.702 22.768,34.376 C23.207,34.05 23.427,33.698 23.427,33.32 C23.427,32.602 22.595,32.087 20.933,31.775 L20.904,31.775 C20.168,31.633 19.53,31.435 18.991,31.18 C18.453,30.925 18.058,30.597 17.807,30.195 C17.557,29.794 17.432,29.38 17.432,28.955 C17.432,28.133 17.793,27.457 18.516,26.928 C19.239,26.399 20.073,26.135 21.018,26.135 C21.433,26.135 21.859,26.206 22.293,26.347 C22.727,26.488 23.051,26.621 23.264,26.744 C23.477,26.867 23.757,27.041 24.108,27.268 C24.268,27.381 24.37,27.537 24.413,27.736 C24.455,27.934 24.422,28.116 24.313,28.281 C24.205,28.447 24.05,28.551 23.852,28.593 C23.654,28.635 23.469,28.6 23.299,28.487 C22.855,28.185 22.46,27.958 22.115,27.807 C21.77,27.656 21.404,27.58 21.017,27.58 C20.393,27.58 19.883,27.727 19.486,28.019 C19.09,28.312 18.891,28.624 18.891,28.955 C18.891,29.116 18.928,29.253 19.004,29.366 C19.268,29.801 19.982,30.127 21.144,30.344 L21.172,30.344 C21.966,30.505 22.618,30.703 23.128,30.939 C24.3,31.515 24.886,32.309 24.886,33.32 C24.888,34.2 24.5,34.92 23.726,35.482 Z M34.894,34.823 C34.468,35.296 33.958,35.666 33.363,35.936 C32.768,36.205 32.149,36.34 31.507,36.34 C30.137,36.34 28.982,35.84 28.042,34.838 C27.102,33.837 26.631,32.636 26.631,31.238 C26.631,29.84 27.102,28.64 28.042,27.638 C28.981,26.637 30.127,26.136 31.479,26.136 C32.831,26.136 33.976,26.644 34.917,27.659 C35.856,28.675 36.327,29.872 36.327,31.252 C36.325,32.631 35.848,33.822 34.894,34.823 Z M40.52,26.83 L45.098,33.165 L45.098,27.326 C45.098,27.118 45.173,26.939 45.325,26.787 C45.476,26.636 45.656,26.56 45.864,26.56 C46.071,26.56 46.254,26.636 46.41,26.787 C46.565,26.938 46.643,27.118 46.643,27.326 L46.643,35.561 C46.643,35.778 46.565,35.962 46.41,36.114 C46.254,36.265 46.067,36.341 45.849,36.341 C45.632,36.341 45.443,36.247 45.283,36.057 C45.245,36.019 45.221,35.991 45.212,35.972 L40.677,29.679 L40.677,35.561 C40.677,35.769 40.601,35.951 40.45,36.106 C40.299,36.262 40.117,36.34 39.904,36.34 C39.691,36.34 39.509,36.264 39.358,36.113 C39.207,35.962 39.131,35.778 39.131,35.56 L39.131,27.311 C39.111,27.037 39.204,26.829 39.407,26.687 C39.61,26.545 39.815,26.491 40.023,26.524 C40.231,26.557 40.396,26.66 40.52,26.83 Z M3.108,3.443 L39.538,3.443 L39.606,20.684 L4.63,20.684 C3.999,20.684 3.442,21.001 3.109,21.483 L3.109,3.443 L3.108,3.443 Z M16.238,56.731 L50.704,56.731 C50.097,58.934 48.074,60.556 45.682,60.556 L14.44,60.529 C15.348,59.465 15.983,58.163 16.238,56.731 Z" id="Shape"></path>
            </g>
        </g>
    </g>
</svg>