<?xml version="1.0" encoding="UTF-8"?>
<svg width="128px" height="112px" viewBox="0 0 128 112" version="1.1" xmlns="http://www.w3.org/2000/svg" xmlns:xlink="http://www.w3.org/1999/xlink">
    <!-- Generator: Sketch 41.2 (35397) - http://www.bohemiancoding.com/sketch -->
    <title>noun_603658_cc</title>
    <desc>Created with Sketch.</desc>
    <defs></defs>
    <g id="Page-1" stroke="none" stroke-width="1" fill="none" fill-rule="evenodd">
        <g id="noun_603658_cc" fill="#000000">
            <g id="Group">
                <path d="M128,97.7 L115.3,83.7 L115.3,92.1 L103.7,92.1 C99.5,96.4 94.3,100.7 88.5,103.3 L115.3,103.3 L115.3,111.7 L128,97.7 Z" id="Shape"></path>
                <path d="M110.5,62.1 C110.5,39.3 92,20.9 69.2,20.9 C56.3,20.9 44.9,26.8 37.3,36 L37.3,36 C34.7,39.3 32.5,42.9 31,46.6 C30.9,46.9 30.8,47.1 30.7,47.4 C30.5,48 30.3,48.5 30.1,49.1 C28.7,53.2 28,57.6 28,62.2 C28,67.3 29,72.2 30.7,76.8 L23,80.1 L41.4,87.4 L48.6,69 L41.2,72.2 C40,69 39.4,65.6 39.4,62.2 C39.4,45.8 52.8,32.5 69.2,32.5 C85.6,32.5 99,45.9 99,62.3 C99,78.7 85.6,92.1 69.2,92.1 L0,92.1 L5.4,97.5 L0,103.3 L69.2,103.3 C91.9,103.3 110.5,84.9 110.5,62.1 Z" id="Shape"></path>
                <path d="M27.4,43.9 C27.7,44.1 28,44.3 28.2,44.5 C29.7,41 31.7,37.7 34.1,34.6 C33.8,34.4 33.6,34.2 33.3,34 C31.5,32.3 30.3,29.9 30.3,27.2 C30.3,22.1 34.5,17.9 39.6,17.9 C40.4,17.9 41.2,18 41.9,18.2 L38.3,25.4 L46.2,22.7 L57.1,19 L56.8,18.2 L50.7,0.2 L47,7.7 C44.6,6.8 42.1,6.3 39.6,6.3 C28.1,6.3 18.8,15.6 18.8,27.1 C18.9,34 22.3,40.1 27.4,43.9 Z" id="Shape"></path>
            </g>
        </g>
    </g>
</svg>