<?xml version="1.0" encoding="UTF-8"?>
<svg width="90px" height="85px" viewBox="0 0 90 85" version="1.1" xmlns="http://www.w3.org/2000/svg" xmlns:xlink="http://www.w3.org/1999/xlink">
    <!-- Generator: Sketch 41.2 (35397) - http://www.bohemiancoding.com/sketch -->
    <title>noun_195994_cc</title>
    <desc>Created with Sketch.</desc>
    <defs></defs>
    <g id="Page-1" stroke="none" stroke-width="1" fill="none" fill-rule="evenodd">
        <g id="noun_195994_cc" fill="#000000">
            <path d="M84.2,56.3 C81.8,56.3 79.8,57.8 79,59.8 L53,54.6 L53,54.1 C53,53.4 52.9,52.7 52.7,52 L66.7,45.9 C68.1,48.2 70.6,49.8 73.5,49.8 C77.9,49.8 81.5,46.2 81.5,41.8 C81.5,38.6 79.6,35.8 76.8,34.6 L78.7,28.1 C78.9,28.1 79.1,28.2 79.3,28.2 C80.3,28.2 81.3,27.8 82,27.1 C83.6,25.6 83.7,23.1 82.2,21.5 C81.5,20.7 80.4,20.3 79.3,20.3 C78.3,20.3 77.3,20.7 76.6,21.4 C75.8,22.1 75.4,23.1 75.4,24.2 C75.4,25.3 75.7,26.3 76.5,27 C76.9,27.4 77.3,27.7 77.8,27.9 L76,34.3 C75.2,34.1 74.4,33.9 73.6,33.9 C71.4,33.9 69.4,34.8 68,36.2 L66,34.2 C67.7,32.1 67.7,29 65.8,27 C64.8,25.9 63.3,25.3 61.8,25.3 C60.4,25.3 59.1,25.8 58.1,26.8 C57.5,27.4 57,28.1 56.7,28.9 L48.3,27.5 L49.4,11.7 C52.1,11.4 54.2,9.1 54.2,6.3 C54.2,3.3 51.8,0.9 48.8,0.9 C45.8,0.9 43.4,3.3 43.4,6.3 C43.4,8.8 45.1,11 47.5,11.6 L46.4,27.2 L33,24.8 C32.9,23.9 32.6,23.1 32,22.4 C31.3,21.6 30.2,21.2 29.1,21.2 C28.3,21.2 27.5,21.5 26.8,21.9 L20.2,14.7 C20.8,14 21.2,13.1 21.2,12.2 C21.2,10 19.4,8.2 17.2,8.2 C15,8.2 13.2,10 13.2,12.2 C13.2,14.4 15,16.2 17.2,16.2 C18.1,16.2 18.8,15.9 19.5,15.5 L26.1,22.7 C24.9,24.2 24.8,26.3 26.1,27.8 L20,37.6 C19.1,37.2 18.1,37 17.1,37 C15.3,37 13.5,37.7 12.2,38.9 C11.9,39.2 11.6,39.5 11.4,39.8 L7.7,37.4 C8,36.9 8.1,36.3 8.1,35.7 C8.1,33.5 6.3,31.7 4.1,31.7 C1.9,31.7 0.1,33.5 0.1,35.7 C0.1,37.9 1.9,39.7 4.1,39.7 C5.3,39.7 6.4,39.1 7.1,38.3 L10.8,40.7 C9.3,43.3 9.7,46.8 11.8,49.1 C12.1,49.4 12.3,49.6 12.6,49.8 L9.4,54.3 C8.7,54 7.9,53.8 7.1,53.8 C4.1,53.8 1.6,56.2 1.6,59.3 C1.6,62.4 4,64.8 7.1,64.8 C10.2,64.8 12.6,62.4 12.6,59.3 C12.6,57.9 12,56.5 11.1,55.6 L14.5,51 C15.3,51.3 16.2,51.5 17.2,51.5 C18.4,51.5 19.6,51.2 20.6,50.6 L28.1,62 C27.2,62.7 26.7,63.8 26.7,65 C26.7,67.2 28.5,69 30.7,69 C32.9,69 34.7,67.2 34.7,65 C34.7,62.8 32.9,61 30.7,61 C30.1,61 29.5,61.2 29,61.4 L21.5,49.8 C21.7,49.6 21.9,49.5 22.1,49.3 C25,46.6 25.1,42.1 22.4,39.2 C22.2,39 22,38.8 21.7,38.6 L27.7,28.8 C28.1,29 28.6,29.1 29,29.1 C30,29.1 31,28.7 31.7,28 C32.1,27.6 32.4,27.2 32.6,26.8 L46,29.1 L45,46.5 C43.4,46.6 42,47.2 40.8,48.1 L38.9,46 C39.5,45.3 39.9,44.4 39.9,43.4 C39.9,41.2 38.1,39.4 35.9,39.4 C33.7,39.4 31.9,41.2 31.9,43.4 C31.9,45.6 33.7,47.4 35.9,47.4 C36.7,47.4 37.5,47.1 38.2,46.7 L40.1,48.8 C38.8,50.2 38,52 38,54.1 C38,58.2 41.2,61.5 45.2,61.7 L45.5,73.9 C42.8,74.2 40.7,76.5 40.7,79.3 C40.7,82.3 43.1,84.7 46.1,84.7 C49.1,84.7 51.5,82.3 51.5,79.3 C51.5,76.4 49.3,74.1 46.4,73.9 L46.1,61.7 C49.1,61.4 51.6,59.4 52.6,56.6 L78.6,61.8 L78.6,61.9 C78.6,65 81.1,67.5 84.2,67.5 C87.3,67.5 89.8,65 89.8,61.9 C89.8,58.8 87.2,56.3 84.2,56.3 Z M78,22.7 C78.4,22.4 78.8,22.2 79.3,22.2 C79.8,22.2 80.4,22.4 80.7,22.8 C81.4,23.6 81.4,24.8 80.6,25.6 C79.8,26.3 78.5,26.3 77.8,25.5 C77.4,25.1 77.3,24.6 77.3,24.1 C77.3,23.6 77.6,23 78,22.7 Z M4.2,37.7 C3.1,37.7 2.2,36.8 2.2,35.7 C2.2,34.6 3.1,33.7 4.2,33.7 C5.3,33.7 6.2,34.6 6.2,35.7 C6.2,36.8 5.3,37.7 4.2,37.7 Z M7.2,62.6 C5.3,62.6 3.7,61 3.7,59.1 C3.7,57.2 5.3,55.6 7.2,55.6 C9.1,55.6 10.7,57.2 10.7,59.1 C10.7,61 9.1,62.6 7.2,62.6 Z M32.6,65.1 C32.6,66.2 31.7,67.1 30.6,67.1 C29.5,67.1 28.6,66.2 28.6,65.1 C28.6,64 29.5,63.1 30.6,63.1 C31.7,63.1 32.6,64 32.6,65.1 Z M20.7,47.9 C19.7,48.8 18.5,49.3 17.2,49.3 C15.8,49.3 14.4,48.7 13.4,47.7 C11.5,45.6 11.6,42.4 13.6,40.4 C14.6,39.5 15.8,39 17.1,39 C18.5,39 19.9,39.6 20.9,40.6 C22.9,42.7 22.8,46 20.7,47.9 Z M17.2,14.1 C16.1,14.1 15.2,13.2 15.2,12.1 C15.2,11 16.1,10.1 17.2,10.1 C18.3,10.1 19.2,11 19.2,12.1 C19.1,13.2 18.3,14.1 17.2,14.1 Z M30.5,26.6 C29.7,27.3 28.4,27.3 27.7,26.5 C27,25.7 27,24.5 27.8,23.7 C28.2,23.4 28.6,23.2 29.1,23.2 C29.6,23.2 30.2,23.4 30.5,23.8 C31.3,24.6 31.2,25.8 30.5,26.6 Z M73.5,35.8 C76.8,35.8 79.5,38.5 79.5,41.8 C79.5,45.1 76.8,47.8 73.5,47.8 C70.2,47.8 67.5,45.1 67.5,41.8 C67.5,38.5 70.2,35.8 73.5,35.8 Z M59.4,28.2 C60,27.6 60.9,27.3 61.8,27.3 C62.8,27.3 63.7,27.7 64.3,28.4 C65.6,29.8 65.5,32 64.1,33.3 C63.5,33.9 62.6,34.2 61.7,34.2 C60.7,34.2 59.8,33.8 59.2,33.1 C57.9,31.6 58,29.5 59.4,28.2 Z M56.3,30.8 C56.3,32.1 56.8,33.4 57.8,34.4 C58.8,35.5 60.3,36.1 61.8,36.1 C63.1,36.1 64.3,35.6 65.3,34.8 L67.3,36.8 C66.3,38.1 65.6,39.8 65.6,41.7 C65.6,42.5 65.7,43.2 65.9,44 L51.9,50.1 C50.8,48.3 49,47 46.9,46.6 L48.1,29.3 L56.3,30.8 Z M45.2,6.1 C45.2,4.2 46.7,2.7 48.6,2.7 C50.5,2.7 52,4.2 52,6.1 C52,8 50.5,9.5 48.6,9.5 C46.7,9.5 45.2,8 45.2,6.1 Z M35.9,45.4 C34.8,45.4 33.9,44.5 33.9,43.4 C33.9,42.3 34.8,41.4 35.9,41.4 C37,41.4 37.9,42.3 37.9,43.4 C37.9,44.5 37,45.4 35.9,45.4 Z M49.5,79.3 C49.5,81.2 48,82.7 46.1,82.7 C44.2,82.7 42.7,81.2 42.7,79.3 C42.7,77.4 44.2,75.9 46.1,75.9 C48,75.9 49.5,77.4 49.5,79.3 Z M45.5,59.6 C42.4,59.6 39.9,57.1 39.9,54 C39.9,50.9 42.4,48.4 45.5,48.4 C48.6,48.4 51,51 51,54.1 C51,57.2 48.5,59.6 45.5,59.6 Z M84.2,65.4 C82.2,65.4 80.6,63.8 80.6,61.8 C80.6,59.8 82.2,58.2 84.2,58.2 C86.2,58.2 87.8,59.8 87.8,61.8 C87.8,63.8 86.1,65.4 84.2,65.4 Z" id="Shape"></path>
        </g>
    </g>
</svg>